M48
; DRILL file {KiCad (7.0.0)} date Fri Apr 21 00:04:55 2023
; FORMAT={-:-/ absolute / metric / decimal}
; #@! TF.CreationDate,2023-04-21T00:04:55-05:00
; #@! TF.GenerationSoftware,Kicad,Pcbnew,(7.0.0)
; #@! TF.FileFunction,Plated,1,2,PTH
FMAT,2
METRIC
; #@! TA.AperFunction,Plated,PTH,ViaDrill
T1C0.400
; #@! TA.AperFunction,Plated,PTH,ComponentDrill
T2C0.500
; #@! TA.AperFunction,Plated,PTH,ViaDrill
T3C0.508
; #@! TA.AperFunction,Plated,PTH,ComponentDrill
T4C0.900
; #@! TA.AperFunction,Plated,PTH,ComponentDrill
T5C1.000
; #@! TA.AperFunction,Plated,PTH,ComponentDrill
T6C1.020
; #@! TA.AperFunction,Plated,PTH,ComponentDrill
T7C1.100
; #@! TA.AperFunction,Plated,PTH,ComponentDrill
T8C1.200
; #@! TA.AperFunction,Plated,PTH,ComponentDrill
T9C1.250
; #@! TA.AperFunction,Plated,PTH,ComponentDrill
T10C2.700
; #@! TA.AperFunction,Plated,PTH,ComponentDrill
T11C3.200
%
G90
G05
T1
X134.72Y-59.58
X141.0Y-59.47
X151.8Y-59.52
X163.4Y-59.58
X175.07Y-59.45
X184.14Y-92.33
X187.0Y-92.69
X187.41Y-59.44
X187.6Y-95.7
X187.62Y-97.9
X188.95Y-57.66
X191.8Y-81.93
X197.96Y-59.24
X198.48Y-61.55
X198.66Y-83.34
X201.04Y-93.03
X208.7Y-59.35
T2
X125.027Y-55.687
X125.197Y-97.953
X125.73Y-53.99
X125.73Y-57.384
X125.9Y-96.256
X125.9Y-99.65
X127.427Y-53.287
X127.427Y-58.087
X127.597Y-95.553
X127.597Y-100.353
X129.124Y-53.99
X129.124Y-57.384
X129.294Y-96.256
X129.294Y-99.65
X129.827Y-55.687
X129.997Y-97.953
X213.023Y-98.883
X213.397Y-55.497
X213.726Y-97.186
X213.726Y-100.58
X214.1Y-53.8
X214.1Y-57.194
X215.423Y-96.483
X215.423Y-101.283
X215.797Y-53.097
X215.797Y-57.897
X217.12Y-97.186
X217.12Y-100.58
X217.494Y-53.8
X217.494Y-57.194
X217.823Y-98.883
X218.197Y-55.497
T3
X147.36Y-88.86
X169.77Y-99.54
X194.6Y-94.01
T4
X137.515Y-91.025
X137.615Y-86.425
X145.135Y-91.025
X145.235Y-86.425
X164.05Y-85.69
X164.05Y-93.31
T5
X126.42Y-75.91
X128.96Y-75.91
X129.19Y-63.91
X129.19Y-66.45
X129.19Y-68.99
X129.19Y-71.53
X131.5Y-75.91
X131.73Y-63.91
X131.73Y-66.45
X131.73Y-68.99
X131.73Y-71.53
X134.04Y-75.91
X135.35Y-55.92
X137.89Y-55.92
X138.84Y-64.55
X138.84Y-67.09
X138.84Y-69.63
X138.84Y-72.17
X138.84Y-74.71
X138.84Y-77.25
X138.84Y-79.79
X138.84Y-82.33
X140.43Y-55.92
X146.42Y-56.07
X148.96Y-56.07
X149.0Y-64.55
X149.0Y-67.09
X149.0Y-69.63
X149.0Y-72.17
X149.0Y-74.71
X149.0Y-77.25
X149.0Y-79.79
X149.0Y-82.33
X151.5Y-56.07
X153.17Y-64.55
X153.17Y-67.09
X153.17Y-69.63
X153.17Y-72.17
X153.17Y-74.71
X153.17Y-77.25
X153.17Y-79.79
X153.17Y-82.33
X157.54Y-56.07
X159.55Y-87.235
X159.55Y-89.775
X159.55Y-92.315
X160.08Y-56.07
X162.62Y-56.07
X163.33Y-64.55
X163.33Y-67.09
X163.33Y-69.63
X163.33Y-72.17
X163.33Y-74.71
X163.33Y-77.25
X163.33Y-79.79
X163.33Y-82.33
X169.1Y-55.9
X171.64Y-55.9
X174.18Y-55.9
X180.775Y-55.96
X183.315Y-55.96
X185.855Y-55.96
X191.96Y-55.6
X194.5Y-55.6
X197.04Y-55.6
X203.06Y-55.57
X205.6Y-55.57
X208.14Y-55.57
T6
X173.155Y-64.382
X173.155Y-89.782
X175.695Y-64.382
X175.695Y-89.782
X178.235Y-64.382
X178.235Y-89.782
X180.775Y-64.382
X180.775Y-89.782
X183.315Y-64.382
X183.315Y-89.782
X185.855Y-64.382
X185.855Y-89.782
X188.395Y-64.382
X188.395Y-89.782
X190.935Y-64.382
X190.935Y-89.782
X193.475Y-64.382
X193.475Y-89.782
X196.015Y-64.382
X196.015Y-89.782
X198.555Y-64.382
X198.555Y-89.782
X201.095Y-64.382
X201.095Y-89.782
X203.635Y-64.382
X203.635Y-89.782
X206.175Y-64.382
X206.175Y-89.782
X208.715Y-64.382
X208.715Y-89.782
T7
X199.38Y-93.55
X199.38Y-98.05
X205.88Y-93.55
X205.88Y-98.05
T8
X135.525Y-97.45
X139.025Y-97.45
X145.225Y-97.575
X148.725Y-97.575
T9
X176.64Y-73.22
X176.64Y-79.67
X207.64Y-73.17
X207.64Y-79.67
T10
X157.375Y-98.525
X162.375Y-98.525
T11
X127.427Y-55.687
X127.597Y-97.953
X215.423Y-98.883
X215.797Y-55.497
T0
M30
