%TF.GenerationSoftware,KiCad,Pcbnew,(7.0.0)*%
%TF.CreationDate,2023-04-21T00:05:07-05:00*%
%TF.ProjectId,OMICRON oO,4f4d4943-524f-44e2-906f-4f2e6b696361,rev?*%
%TF.SameCoordinates,Original*%
%TF.FileFunction,Copper,L1,Top*%
%TF.FilePolarity,Positive*%
%FSLAX46Y46*%
G04 Gerber Fmt 4.6, Leading zero omitted, Abs format (unit mm)*
G04 Created by KiCad (PCBNEW (7.0.0)) date 2023-04-21 00:05:07*
%MOMM*%
%LPD*%
G01*
G04 APERTURE LIST*
G04 Aperture macros list*
%AMRoundRect*
0 Rectangle with rounded corners*
0 $1 Rounding radius*
0 $2 $3 $4 $5 $6 $7 $8 $9 X,Y pos of 4 corners*
0 Add a 4 corners polygon primitive as box body*
4,1,4,$2,$3,$4,$5,$6,$7,$8,$9,$2,$3,0*
0 Add four circle primitives for the rounded corners*
1,1,$1+$1,$2,$3*
1,1,$1+$1,$4,$5*
1,1,$1+$1,$6,$7*
1,1,$1+$1,$8,$9*
0 Add four rect primitives between the rounded corners*
20,1,$1+$1,$2,$3,$4,$5,0*
20,1,$1+$1,$4,$5,$6,$7,0*
20,1,$1+$1,$6,$7,$8,$9,0*
20,1,$1+$1,$8,$9,$2,$3,0*%
G04 Aperture macros list end*
%ADD10C,0.100000*%
%ADD11C,0.150000*%
%ADD12C,0.300000*%
%ADD13C,0.400000*%
%TA.AperFunction,NonConductor*%
%ADD14C,0.300000*%
%TD*%
%TA.AperFunction,ComponentPad*%
%ADD15O,2.000000X1.524000*%
%TD*%
%TA.AperFunction,SMDPad,CuDef*%
%ADD16RoundRect,0.250000X0.375000X0.625000X-0.375000X0.625000X-0.375000X-0.625000X0.375000X-0.625000X0*%
%TD*%
%TA.AperFunction,SMDPad,CuDef*%
%ADD17RoundRect,0.250000X1.500000X0.550000X-1.500000X0.550000X-1.500000X-0.550000X1.500000X-0.550000X0*%
%TD*%
%TA.AperFunction,ComponentPad*%
%ADD18R,1.700000X1.700000*%
%TD*%
%TA.AperFunction,ComponentPad*%
%ADD19O,1.700000X1.700000*%
%TD*%
%TA.AperFunction,ComponentPad*%
%ADD20C,0.800000*%
%TD*%
%TA.AperFunction,ComponentPad*%
%ADD21C,6.400000*%
%TD*%
%TA.AperFunction,ComponentPad*%
%ADD22R,1.800000X1.800000*%
%TD*%
%TA.AperFunction,ComponentPad*%
%ADD23O,1.800000X1.800000*%
%TD*%
%TA.AperFunction,ComponentPad*%
%ADD24R,2.400000X2.400000*%
%TD*%
%TA.AperFunction,ComponentPad*%
%ADD25C,2.400000*%
%TD*%
%TA.AperFunction,SMDPad,CuDef*%
%ADD26R,2.200000X1.200000*%
%TD*%
%TA.AperFunction,SMDPad,CuDef*%
%ADD27R,6.400000X5.800000*%
%TD*%
%TA.AperFunction,ComponentPad*%
%ADD28R,3.800000X3.800000*%
%TD*%
%TA.AperFunction,ComponentPad*%
%ADD29C,4.000000*%
%TD*%
%TA.AperFunction,ComponentPad*%
%ADD30R,2.000000X2.000000*%
%TD*%
%TA.AperFunction,ComponentPad*%
%ADD31C,2.000000*%
%TD*%
%TA.AperFunction,SMDPad,CuDef*%
%ADD32RoundRect,0.250000X-0.550000X1.500000X-0.550000X-1.500000X0.550000X-1.500000X0.550000X1.500000X0*%
%TD*%
%TA.AperFunction,SMDPad,CuDef*%
%ADD33RoundRect,0.250000X0.550000X-1.500000X0.550000X1.500000X-0.550000X1.500000X-0.550000X-1.500000X0*%
%TD*%
%TA.AperFunction,ComponentPad*%
%ADD34R,5.000000X3.500000*%
%TD*%
%TA.AperFunction,ViaPad*%
%ADD35C,1.016000*%
%TD*%
%TA.AperFunction,ViaPad*%
%ADD36C,0.800000*%
%TD*%
%TA.AperFunction,Conductor*%
%ADD37C,1.000000*%
%TD*%
%TA.AperFunction,Conductor*%
%ADD38C,2.032000*%
%TD*%
%TA.AperFunction,Conductor*%
%ADD39C,1.500000*%
%TD*%
%TA.AperFunction,Conductor*%
%ADD40C,0.700000*%
%TD*%
%TA.AperFunction,Conductor*%
%ADD41C,0.300000*%
%TD*%
%TA.AperFunction,Conductor*%
%ADD42C,0.250000*%
%TD*%
G04 APERTURE END LIST*
D10*
D11*
X177002200Y-166007200D02*
X285002200Y-166007200D01*
X285002200Y-198007200D01*
X177002200Y-198007200D01*
X177002200Y-166007200D01*
D10*
D11*
X10000000Y-10000000D02*
X287002200Y-10000000D01*
X287002200Y-200007200D01*
X10000000Y-200007200D01*
X10000000Y-10000000D01*
D10*
D11*
X12000000Y-12000000D02*
X285002200Y-12000000D01*
X285002200Y-198007200D01*
X12000000Y-198007200D01*
X12000000Y-12000000D01*
D10*
D11*
X60000000Y-12000000D02*
X60000000Y-10000000D01*
D10*
D11*
X110000000Y-12000000D02*
X110000000Y-10000000D01*
D10*
D11*
X160000000Y-12000000D02*
X160000000Y-10000000D01*
D10*
D11*
X210000000Y-12000000D02*
X210000000Y-10000000D01*
D10*
D11*
X260000000Y-12000000D02*
X260000000Y-10000000D01*
D10*
D11*
X35990476Y-11477595D02*
X35247619Y-11477595D01*
X35619047Y-11477595D02*
X35619047Y-10177595D01*
X35619047Y-10177595D02*
X35495238Y-10363309D01*
X35495238Y-10363309D02*
X35371428Y-10487119D01*
X35371428Y-10487119D02*
X35247619Y-10549023D01*
D10*
D11*
X85247619Y-10301404D02*
X85309523Y-10239500D01*
X85309523Y-10239500D02*
X85433333Y-10177595D01*
X85433333Y-10177595D02*
X85742857Y-10177595D01*
X85742857Y-10177595D02*
X85866666Y-10239500D01*
X85866666Y-10239500D02*
X85928571Y-10301404D01*
X85928571Y-10301404D02*
X85990476Y-10425214D01*
X85990476Y-10425214D02*
X85990476Y-10549023D01*
X85990476Y-10549023D02*
X85928571Y-10734738D01*
X85928571Y-10734738D02*
X85185714Y-11477595D01*
X85185714Y-11477595D02*
X85990476Y-11477595D01*
D10*
D11*
X135185714Y-10177595D02*
X135990476Y-10177595D01*
X135990476Y-10177595D02*
X135557142Y-10672833D01*
X135557142Y-10672833D02*
X135742857Y-10672833D01*
X135742857Y-10672833D02*
X135866666Y-10734738D01*
X135866666Y-10734738D02*
X135928571Y-10796642D01*
X135928571Y-10796642D02*
X135990476Y-10920452D01*
X135990476Y-10920452D02*
X135990476Y-11229976D01*
X135990476Y-11229976D02*
X135928571Y-11353785D01*
X135928571Y-11353785D02*
X135866666Y-11415690D01*
X135866666Y-11415690D02*
X135742857Y-11477595D01*
X135742857Y-11477595D02*
X135371428Y-11477595D01*
X135371428Y-11477595D02*
X135247619Y-11415690D01*
X135247619Y-11415690D02*
X135185714Y-11353785D01*
D10*
D11*
X185866666Y-10610928D02*
X185866666Y-11477595D01*
X185557142Y-10115690D02*
X185247619Y-11044261D01*
X185247619Y-11044261D02*
X186052380Y-11044261D01*
D10*
D11*
X235928571Y-10177595D02*
X235309523Y-10177595D01*
X235309523Y-10177595D02*
X235247619Y-10796642D01*
X235247619Y-10796642D02*
X235309523Y-10734738D01*
X235309523Y-10734738D02*
X235433333Y-10672833D01*
X235433333Y-10672833D02*
X235742857Y-10672833D01*
X235742857Y-10672833D02*
X235866666Y-10734738D01*
X235866666Y-10734738D02*
X235928571Y-10796642D01*
X235928571Y-10796642D02*
X235990476Y-10920452D01*
X235990476Y-10920452D02*
X235990476Y-11229976D01*
X235990476Y-11229976D02*
X235928571Y-11353785D01*
X235928571Y-11353785D02*
X235866666Y-11415690D01*
X235866666Y-11415690D02*
X235742857Y-11477595D01*
X235742857Y-11477595D02*
X235433333Y-11477595D01*
X235433333Y-11477595D02*
X235309523Y-11415690D01*
X235309523Y-11415690D02*
X235247619Y-11353785D01*
D10*
D11*
X285866666Y-10177595D02*
X285619047Y-10177595D01*
X285619047Y-10177595D02*
X285495238Y-10239500D01*
X285495238Y-10239500D02*
X285433333Y-10301404D01*
X285433333Y-10301404D02*
X285309523Y-10487119D01*
X285309523Y-10487119D02*
X285247619Y-10734738D01*
X285247619Y-10734738D02*
X285247619Y-11229976D01*
X285247619Y-11229976D02*
X285309523Y-11353785D01*
X285309523Y-11353785D02*
X285371428Y-11415690D01*
X285371428Y-11415690D02*
X285495238Y-11477595D01*
X285495238Y-11477595D02*
X285742857Y-11477595D01*
X285742857Y-11477595D02*
X285866666Y-11415690D01*
X285866666Y-11415690D02*
X285928571Y-11353785D01*
X285928571Y-11353785D02*
X285990476Y-11229976D01*
X285990476Y-11229976D02*
X285990476Y-10920452D01*
X285990476Y-10920452D02*
X285928571Y-10796642D01*
X285928571Y-10796642D02*
X285866666Y-10734738D01*
X285866666Y-10734738D02*
X285742857Y-10672833D01*
X285742857Y-10672833D02*
X285495238Y-10672833D01*
X285495238Y-10672833D02*
X285371428Y-10734738D01*
X285371428Y-10734738D02*
X285309523Y-10796642D01*
X285309523Y-10796642D02*
X285247619Y-10920452D01*
D10*
D11*
X60000000Y-198007200D02*
X60000000Y-200007200D01*
D10*
D11*
X110000000Y-198007200D02*
X110000000Y-200007200D01*
D10*
D11*
X160000000Y-198007200D02*
X160000000Y-200007200D01*
D10*
D11*
X210000000Y-198007200D02*
X210000000Y-200007200D01*
D10*
D11*
X260000000Y-198007200D02*
X260000000Y-200007200D01*
D10*
D11*
X35990476Y-199484795D02*
X35247619Y-199484795D01*
X35619047Y-199484795D02*
X35619047Y-198184795D01*
X35619047Y-198184795D02*
X35495238Y-198370509D01*
X35495238Y-198370509D02*
X35371428Y-198494319D01*
X35371428Y-198494319D02*
X35247619Y-198556223D01*
D10*
D11*
X85247619Y-198308604D02*
X85309523Y-198246700D01*
X85309523Y-198246700D02*
X85433333Y-198184795D01*
X85433333Y-198184795D02*
X85742857Y-198184795D01*
X85742857Y-198184795D02*
X85866666Y-198246700D01*
X85866666Y-198246700D02*
X85928571Y-198308604D01*
X85928571Y-198308604D02*
X85990476Y-198432414D01*
X85990476Y-198432414D02*
X85990476Y-198556223D01*
X85990476Y-198556223D02*
X85928571Y-198741938D01*
X85928571Y-198741938D02*
X85185714Y-199484795D01*
X85185714Y-199484795D02*
X85990476Y-199484795D01*
D10*
D11*
X135185714Y-198184795D02*
X135990476Y-198184795D01*
X135990476Y-198184795D02*
X135557142Y-198680033D01*
X135557142Y-198680033D02*
X135742857Y-198680033D01*
X135742857Y-198680033D02*
X135866666Y-198741938D01*
X135866666Y-198741938D02*
X135928571Y-198803842D01*
X135928571Y-198803842D02*
X135990476Y-198927652D01*
X135990476Y-198927652D02*
X135990476Y-199237176D01*
X135990476Y-199237176D02*
X135928571Y-199360985D01*
X135928571Y-199360985D02*
X135866666Y-199422890D01*
X135866666Y-199422890D02*
X135742857Y-199484795D01*
X135742857Y-199484795D02*
X135371428Y-199484795D01*
X135371428Y-199484795D02*
X135247619Y-199422890D01*
X135247619Y-199422890D02*
X135185714Y-199360985D01*
D10*
D11*
X185866666Y-198618128D02*
X185866666Y-199484795D01*
X185557142Y-198122890D02*
X185247619Y-199051461D01*
X185247619Y-199051461D02*
X186052380Y-199051461D01*
D10*
D11*
X235928571Y-198184795D02*
X235309523Y-198184795D01*
X235309523Y-198184795D02*
X235247619Y-198803842D01*
X235247619Y-198803842D02*
X235309523Y-198741938D01*
X235309523Y-198741938D02*
X235433333Y-198680033D01*
X235433333Y-198680033D02*
X235742857Y-198680033D01*
X235742857Y-198680033D02*
X235866666Y-198741938D01*
X235866666Y-198741938D02*
X235928571Y-198803842D01*
X235928571Y-198803842D02*
X235990476Y-198927652D01*
X235990476Y-198927652D02*
X235990476Y-199237176D01*
X235990476Y-199237176D02*
X235928571Y-199360985D01*
X235928571Y-199360985D02*
X235866666Y-199422890D01*
X235866666Y-199422890D02*
X235742857Y-199484795D01*
X235742857Y-199484795D02*
X235433333Y-199484795D01*
X235433333Y-199484795D02*
X235309523Y-199422890D01*
X235309523Y-199422890D02*
X235247619Y-199360985D01*
D10*
D11*
X285866666Y-198184795D02*
X285619047Y-198184795D01*
X285619047Y-198184795D02*
X285495238Y-198246700D01*
X285495238Y-198246700D02*
X285433333Y-198308604D01*
X285433333Y-198308604D02*
X285309523Y-198494319D01*
X285309523Y-198494319D02*
X285247619Y-198741938D01*
X285247619Y-198741938D02*
X285247619Y-199237176D01*
X285247619Y-199237176D02*
X285309523Y-199360985D01*
X285309523Y-199360985D02*
X285371428Y-199422890D01*
X285371428Y-199422890D02*
X285495238Y-199484795D01*
X285495238Y-199484795D02*
X285742857Y-199484795D01*
X285742857Y-199484795D02*
X285866666Y-199422890D01*
X285866666Y-199422890D02*
X285928571Y-199360985D01*
X285928571Y-199360985D02*
X285990476Y-199237176D01*
X285990476Y-199237176D02*
X285990476Y-198927652D01*
X285990476Y-198927652D02*
X285928571Y-198803842D01*
X285928571Y-198803842D02*
X285866666Y-198741938D01*
X285866666Y-198741938D02*
X285742857Y-198680033D01*
X285742857Y-198680033D02*
X285495238Y-198680033D01*
X285495238Y-198680033D02*
X285371428Y-198741938D01*
X285371428Y-198741938D02*
X285309523Y-198803842D01*
X285309523Y-198803842D02*
X285247619Y-198927652D01*
D10*
D11*
X10000000Y-60000000D02*
X12000000Y-60000000D01*
D10*
D11*
X10000000Y-110000000D02*
X12000000Y-110000000D01*
D10*
D11*
X10000000Y-160000000D02*
X12000000Y-160000000D01*
D10*
D11*
X10690476Y-35106166D02*
X11309523Y-35106166D01*
X10566666Y-35477595D02*
X10999999Y-34177595D01*
X10999999Y-34177595D02*
X11433333Y-35477595D01*
D10*
D11*
X11092857Y-84796642D02*
X11278571Y-84858547D01*
X11278571Y-84858547D02*
X11340476Y-84920452D01*
X11340476Y-84920452D02*
X11402380Y-85044261D01*
X11402380Y-85044261D02*
X11402380Y-85229976D01*
X11402380Y-85229976D02*
X11340476Y-85353785D01*
X11340476Y-85353785D02*
X11278571Y-85415690D01*
X11278571Y-85415690D02*
X11154761Y-85477595D01*
X11154761Y-85477595D02*
X10659523Y-85477595D01*
X10659523Y-85477595D02*
X10659523Y-84177595D01*
X10659523Y-84177595D02*
X11092857Y-84177595D01*
X11092857Y-84177595D02*
X11216666Y-84239500D01*
X11216666Y-84239500D02*
X11278571Y-84301404D01*
X11278571Y-84301404D02*
X11340476Y-84425214D01*
X11340476Y-84425214D02*
X11340476Y-84549023D01*
X11340476Y-84549023D02*
X11278571Y-84672833D01*
X11278571Y-84672833D02*
X11216666Y-84734738D01*
X11216666Y-84734738D02*
X11092857Y-84796642D01*
X11092857Y-84796642D02*
X10659523Y-84796642D01*
D10*
D11*
X11402380Y-135353785D02*
X11340476Y-135415690D01*
X11340476Y-135415690D02*
X11154761Y-135477595D01*
X11154761Y-135477595D02*
X11030952Y-135477595D01*
X11030952Y-135477595D02*
X10845238Y-135415690D01*
X10845238Y-135415690D02*
X10721428Y-135291880D01*
X10721428Y-135291880D02*
X10659523Y-135168071D01*
X10659523Y-135168071D02*
X10597619Y-134920452D01*
X10597619Y-134920452D02*
X10597619Y-134734738D01*
X10597619Y-134734738D02*
X10659523Y-134487119D01*
X10659523Y-134487119D02*
X10721428Y-134363309D01*
X10721428Y-134363309D02*
X10845238Y-134239500D01*
X10845238Y-134239500D02*
X11030952Y-134177595D01*
X11030952Y-134177595D02*
X11154761Y-134177595D01*
X11154761Y-134177595D02*
X11340476Y-134239500D01*
X11340476Y-134239500D02*
X11402380Y-134301404D01*
D10*
D11*
X10659523Y-185477595D02*
X10659523Y-184177595D01*
X10659523Y-184177595D02*
X10969047Y-184177595D01*
X10969047Y-184177595D02*
X11154761Y-184239500D01*
X11154761Y-184239500D02*
X11278571Y-184363309D01*
X11278571Y-184363309D02*
X11340476Y-184487119D01*
X11340476Y-184487119D02*
X11402380Y-184734738D01*
X11402380Y-184734738D02*
X11402380Y-184920452D01*
X11402380Y-184920452D02*
X11340476Y-185168071D01*
X11340476Y-185168071D02*
X11278571Y-185291880D01*
X11278571Y-185291880D02*
X11154761Y-185415690D01*
X11154761Y-185415690D02*
X10969047Y-185477595D01*
X10969047Y-185477595D02*
X10659523Y-185477595D01*
D10*
D11*
X287002200Y-60000000D02*
X285002200Y-60000000D01*
D10*
D11*
X287002200Y-110000000D02*
X285002200Y-110000000D01*
D10*
D11*
X287002200Y-160000000D02*
X285002200Y-160000000D01*
D10*
D11*
X285692676Y-35106166D02*
X286311723Y-35106166D01*
X285568866Y-35477595D02*
X286002199Y-34177595D01*
X286002199Y-34177595D02*
X286435533Y-35477595D01*
D10*
D11*
X286095057Y-84796642D02*
X286280771Y-84858547D01*
X286280771Y-84858547D02*
X286342676Y-84920452D01*
X286342676Y-84920452D02*
X286404580Y-85044261D01*
X286404580Y-85044261D02*
X286404580Y-85229976D01*
X286404580Y-85229976D02*
X286342676Y-85353785D01*
X286342676Y-85353785D02*
X286280771Y-85415690D01*
X286280771Y-85415690D02*
X286156961Y-85477595D01*
X286156961Y-85477595D02*
X285661723Y-85477595D01*
X285661723Y-85477595D02*
X285661723Y-84177595D01*
X285661723Y-84177595D02*
X286095057Y-84177595D01*
X286095057Y-84177595D02*
X286218866Y-84239500D01*
X286218866Y-84239500D02*
X286280771Y-84301404D01*
X286280771Y-84301404D02*
X286342676Y-84425214D01*
X286342676Y-84425214D02*
X286342676Y-84549023D01*
X286342676Y-84549023D02*
X286280771Y-84672833D01*
X286280771Y-84672833D02*
X286218866Y-84734738D01*
X286218866Y-84734738D02*
X286095057Y-84796642D01*
X286095057Y-84796642D02*
X285661723Y-84796642D01*
D10*
D11*
X286404580Y-135353785D02*
X286342676Y-135415690D01*
X286342676Y-135415690D02*
X286156961Y-135477595D01*
X286156961Y-135477595D02*
X286033152Y-135477595D01*
X286033152Y-135477595D02*
X285847438Y-135415690D01*
X285847438Y-135415690D02*
X285723628Y-135291880D01*
X285723628Y-135291880D02*
X285661723Y-135168071D01*
X285661723Y-135168071D02*
X285599819Y-134920452D01*
X285599819Y-134920452D02*
X285599819Y-134734738D01*
X285599819Y-134734738D02*
X285661723Y-134487119D01*
X285661723Y-134487119D02*
X285723628Y-134363309D01*
X285723628Y-134363309D02*
X285847438Y-134239500D01*
X285847438Y-134239500D02*
X286033152Y-134177595D01*
X286033152Y-134177595D02*
X286156961Y-134177595D01*
X286156961Y-134177595D02*
X286342676Y-134239500D01*
X286342676Y-134239500D02*
X286404580Y-134301404D01*
D10*
D11*
X285661723Y-185477595D02*
X285661723Y-184177595D01*
X285661723Y-184177595D02*
X285971247Y-184177595D01*
X285971247Y-184177595D02*
X286156961Y-184239500D01*
X286156961Y-184239500D02*
X286280771Y-184363309D01*
X286280771Y-184363309D02*
X286342676Y-184487119D01*
X286342676Y-184487119D02*
X286404580Y-184734738D01*
X286404580Y-184734738D02*
X286404580Y-184920452D01*
X286404580Y-184920452D02*
X286342676Y-185168071D01*
X286342676Y-185168071D02*
X286280771Y-185291880D01*
X286280771Y-185291880D02*
X286156961Y-185415690D01*
X286156961Y-185415690D02*
X285971247Y-185477595D01*
X285971247Y-185477595D02*
X285661723Y-185477595D01*
D10*
D11*
X200359342Y-193658271D02*
X200359342Y-192158271D01*
X200359342Y-192158271D02*
X200716485Y-192158271D01*
X200716485Y-192158271D02*
X200930771Y-192229700D01*
X200930771Y-192229700D02*
X201073628Y-192372557D01*
X201073628Y-192372557D02*
X201145057Y-192515414D01*
X201145057Y-192515414D02*
X201216485Y-192801128D01*
X201216485Y-192801128D02*
X201216485Y-193015414D01*
X201216485Y-193015414D02*
X201145057Y-193301128D01*
X201145057Y-193301128D02*
X201073628Y-193443985D01*
X201073628Y-193443985D02*
X200930771Y-193586842D01*
X200930771Y-193586842D02*
X200716485Y-193658271D01*
X200716485Y-193658271D02*
X200359342Y-193658271D01*
X202502200Y-193658271D02*
X202502200Y-192872557D01*
X202502200Y-192872557D02*
X202430771Y-192729700D01*
X202430771Y-192729700D02*
X202287914Y-192658271D01*
X202287914Y-192658271D02*
X202002200Y-192658271D01*
X202002200Y-192658271D02*
X201859342Y-192729700D01*
X202502200Y-193586842D02*
X202359342Y-193658271D01*
X202359342Y-193658271D02*
X202002200Y-193658271D01*
X202002200Y-193658271D02*
X201859342Y-193586842D01*
X201859342Y-193586842D02*
X201787914Y-193443985D01*
X201787914Y-193443985D02*
X201787914Y-193301128D01*
X201787914Y-193301128D02*
X201859342Y-193158271D01*
X201859342Y-193158271D02*
X202002200Y-193086842D01*
X202002200Y-193086842D02*
X202359342Y-193086842D01*
X202359342Y-193086842D02*
X202502200Y-193015414D01*
X203002200Y-192658271D02*
X203573628Y-192658271D01*
X203216485Y-192158271D02*
X203216485Y-193443985D01*
X203216485Y-193443985D02*
X203287914Y-193586842D01*
X203287914Y-193586842D02*
X203430771Y-193658271D01*
X203430771Y-193658271D02*
X203573628Y-193658271D01*
X204645057Y-193586842D02*
X204502200Y-193658271D01*
X204502200Y-193658271D02*
X204216486Y-193658271D01*
X204216486Y-193658271D02*
X204073628Y-193586842D01*
X204073628Y-193586842D02*
X204002200Y-193443985D01*
X204002200Y-193443985D02*
X204002200Y-192872557D01*
X204002200Y-192872557D02*
X204073628Y-192729700D01*
X204073628Y-192729700D02*
X204216486Y-192658271D01*
X204216486Y-192658271D02*
X204502200Y-192658271D01*
X204502200Y-192658271D02*
X204645057Y-192729700D01*
X204645057Y-192729700D02*
X204716486Y-192872557D01*
X204716486Y-192872557D02*
X204716486Y-193015414D01*
X204716486Y-193015414D02*
X204002200Y-193158271D01*
X205359342Y-193515414D02*
X205430771Y-193586842D01*
X205430771Y-193586842D02*
X205359342Y-193658271D01*
X205359342Y-193658271D02*
X205287914Y-193586842D01*
X205287914Y-193586842D02*
X205359342Y-193515414D01*
X205359342Y-193515414D02*
X205359342Y-193658271D01*
X205359342Y-192729700D02*
X205430771Y-192801128D01*
X205430771Y-192801128D02*
X205359342Y-192872557D01*
X205359342Y-192872557D02*
X205287914Y-192801128D01*
X205287914Y-192801128D02*
X205359342Y-192729700D01*
X205359342Y-192729700D02*
X205359342Y-192872557D01*
D10*
D11*
X177002200Y-194507200D02*
X285002200Y-194507200D01*
D10*
D11*
X178359342Y-196458271D02*
X178359342Y-194958271D01*
X179216485Y-196458271D02*
X178573628Y-195601128D01*
X179216485Y-194958271D02*
X178359342Y-195815414D01*
X179859342Y-196458271D02*
X179859342Y-195458271D01*
X179859342Y-194958271D02*
X179787914Y-195029700D01*
X179787914Y-195029700D02*
X179859342Y-195101128D01*
X179859342Y-195101128D02*
X179930771Y-195029700D01*
X179930771Y-195029700D02*
X179859342Y-194958271D01*
X179859342Y-194958271D02*
X179859342Y-195101128D01*
X181430771Y-196315414D02*
X181359343Y-196386842D01*
X181359343Y-196386842D02*
X181145057Y-196458271D01*
X181145057Y-196458271D02*
X181002200Y-196458271D01*
X181002200Y-196458271D02*
X180787914Y-196386842D01*
X180787914Y-196386842D02*
X180645057Y-196243985D01*
X180645057Y-196243985D02*
X180573628Y-196101128D01*
X180573628Y-196101128D02*
X180502200Y-195815414D01*
X180502200Y-195815414D02*
X180502200Y-195601128D01*
X180502200Y-195601128D02*
X180573628Y-195315414D01*
X180573628Y-195315414D02*
X180645057Y-195172557D01*
X180645057Y-195172557D02*
X180787914Y-195029700D01*
X180787914Y-195029700D02*
X181002200Y-194958271D01*
X181002200Y-194958271D02*
X181145057Y-194958271D01*
X181145057Y-194958271D02*
X181359343Y-195029700D01*
X181359343Y-195029700D02*
X181430771Y-195101128D01*
X182716486Y-196458271D02*
X182716486Y-195672557D01*
X182716486Y-195672557D02*
X182645057Y-195529700D01*
X182645057Y-195529700D02*
X182502200Y-195458271D01*
X182502200Y-195458271D02*
X182216486Y-195458271D01*
X182216486Y-195458271D02*
X182073628Y-195529700D01*
X182716486Y-196386842D02*
X182573628Y-196458271D01*
X182573628Y-196458271D02*
X182216486Y-196458271D01*
X182216486Y-196458271D02*
X182073628Y-196386842D01*
X182073628Y-196386842D02*
X182002200Y-196243985D01*
X182002200Y-196243985D02*
X182002200Y-196101128D01*
X182002200Y-196101128D02*
X182073628Y-195958271D01*
X182073628Y-195958271D02*
X182216486Y-195886842D01*
X182216486Y-195886842D02*
X182573628Y-195886842D01*
X182573628Y-195886842D02*
X182716486Y-195815414D01*
X184073629Y-196458271D02*
X184073629Y-194958271D01*
X184073629Y-196386842D02*
X183930771Y-196458271D01*
X183930771Y-196458271D02*
X183645057Y-196458271D01*
X183645057Y-196458271D02*
X183502200Y-196386842D01*
X183502200Y-196386842D02*
X183430771Y-196315414D01*
X183430771Y-196315414D02*
X183359343Y-196172557D01*
X183359343Y-196172557D02*
X183359343Y-195743985D01*
X183359343Y-195743985D02*
X183430771Y-195601128D01*
X183430771Y-195601128D02*
X183502200Y-195529700D01*
X183502200Y-195529700D02*
X183645057Y-195458271D01*
X183645057Y-195458271D02*
X183930771Y-195458271D01*
X183930771Y-195458271D02*
X184073629Y-195529700D01*
X185687914Y-195672557D02*
X186187914Y-195672557D01*
X186402200Y-196458271D02*
X185687914Y-196458271D01*
X185687914Y-196458271D02*
X185687914Y-194958271D01*
X185687914Y-194958271D02*
X186402200Y-194958271D01*
X187045057Y-196315414D02*
X187116486Y-196386842D01*
X187116486Y-196386842D02*
X187045057Y-196458271D01*
X187045057Y-196458271D02*
X186973629Y-196386842D01*
X186973629Y-196386842D02*
X187045057Y-196315414D01*
X187045057Y-196315414D02*
X187045057Y-196458271D01*
X187759343Y-196458271D02*
X187759343Y-194958271D01*
X187759343Y-194958271D02*
X188116486Y-194958271D01*
X188116486Y-194958271D02*
X188330772Y-195029700D01*
X188330772Y-195029700D02*
X188473629Y-195172557D01*
X188473629Y-195172557D02*
X188545058Y-195315414D01*
X188545058Y-195315414D02*
X188616486Y-195601128D01*
X188616486Y-195601128D02*
X188616486Y-195815414D01*
X188616486Y-195815414D02*
X188545058Y-196101128D01*
X188545058Y-196101128D02*
X188473629Y-196243985D01*
X188473629Y-196243985D02*
X188330772Y-196386842D01*
X188330772Y-196386842D02*
X188116486Y-196458271D01*
X188116486Y-196458271D02*
X187759343Y-196458271D01*
X189259343Y-196315414D02*
X189330772Y-196386842D01*
X189330772Y-196386842D02*
X189259343Y-196458271D01*
X189259343Y-196458271D02*
X189187915Y-196386842D01*
X189187915Y-196386842D02*
X189259343Y-196315414D01*
X189259343Y-196315414D02*
X189259343Y-196458271D01*
X189902201Y-196029700D02*
X190616487Y-196029700D01*
X189759344Y-196458271D02*
X190259344Y-194958271D01*
X190259344Y-194958271D02*
X190759344Y-196458271D01*
X191259343Y-196315414D02*
X191330772Y-196386842D01*
X191330772Y-196386842D02*
X191259343Y-196458271D01*
X191259343Y-196458271D02*
X191187915Y-196386842D01*
X191187915Y-196386842D02*
X191259343Y-196315414D01*
X191259343Y-196315414D02*
X191259343Y-196458271D01*
X193773629Y-196458271D02*
X193773629Y-194958271D01*
X193916487Y-195886842D02*
X194345058Y-196458271D01*
X194345058Y-195458271D02*
X193773629Y-196029700D01*
X194987915Y-196458271D02*
X194987915Y-195458271D01*
X194987915Y-194958271D02*
X194916487Y-195029700D01*
X194916487Y-195029700D02*
X194987915Y-195101128D01*
X194987915Y-195101128D02*
X195059344Y-195029700D01*
X195059344Y-195029700D02*
X194987915Y-194958271D01*
X194987915Y-194958271D02*
X194987915Y-195101128D01*
X196345059Y-196386842D02*
X196202201Y-196458271D01*
X196202201Y-196458271D02*
X195916487Y-196458271D01*
X195916487Y-196458271D02*
X195773630Y-196386842D01*
X195773630Y-196386842D02*
X195702201Y-196315414D01*
X195702201Y-196315414D02*
X195630773Y-196172557D01*
X195630773Y-196172557D02*
X195630773Y-195743985D01*
X195630773Y-195743985D02*
X195702201Y-195601128D01*
X195702201Y-195601128D02*
X195773630Y-195529700D01*
X195773630Y-195529700D02*
X195916487Y-195458271D01*
X195916487Y-195458271D02*
X196202201Y-195458271D01*
X196202201Y-195458271D02*
X196345059Y-195529700D01*
X197630773Y-196458271D02*
X197630773Y-195672557D01*
X197630773Y-195672557D02*
X197559344Y-195529700D01*
X197559344Y-195529700D02*
X197416487Y-195458271D01*
X197416487Y-195458271D02*
X197130773Y-195458271D01*
X197130773Y-195458271D02*
X196987915Y-195529700D01*
X197630773Y-196386842D02*
X197487915Y-196458271D01*
X197487915Y-196458271D02*
X197130773Y-196458271D01*
X197130773Y-196458271D02*
X196987915Y-196386842D01*
X196987915Y-196386842D02*
X196916487Y-196243985D01*
X196916487Y-196243985D02*
X196916487Y-196101128D01*
X196916487Y-196101128D02*
X196987915Y-195958271D01*
X196987915Y-195958271D02*
X197130773Y-195886842D01*
X197130773Y-195886842D02*
X197487915Y-195886842D01*
X197487915Y-195886842D02*
X197630773Y-195815414D01*
X198987916Y-196458271D02*
X198987916Y-194958271D01*
X198987916Y-196386842D02*
X198845058Y-196458271D01*
X198845058Y-196458271D02*
X198559344Y-196458271D01*
X198559344Y-196458271D02*
X198416487Y-196386842D01*
X198416487Y-196386842D02*
X198345058Y-196315414D01*
X198345058Y-196315414D02*
X198273630Y-196172557D01*
X198273630Y-196172557D02*
X198273630Y-195743985D01*
X198273630Y-195743985D02*
X198345058Y-195601128D01*
X198345058Y-195601128D02*
X198416487Y-195529700D01*
X198416487Y-195529700D02*
X198559344Y-195458271D01*
X198559344Y-195458271D02*
X198845058Y-195458271D01*
X198845058Y-195458271D02*
X198987916Y-195529700D01*
X201030773Y-197029700D02*
X200959344Y-196958271D01*
X200959344Y-196958271D02*
X200816487Y-196743985D01*
X200816487Y-196743985D02*
X200745059Y-196601128D01*
X200745059Y-196601128D02*
X200673630Y-196386842D01*
X200673630Y-196386842D02*
X200602201Y-196029700D01*
X200602201Y-196029700D02*
X200602201Y-195743985D01*
X200602201Y-195743985D02*
X200673630Y-195386842D01*
X200673630Y-195386842D02*
X200745059Y-195172557D01*
X200745059Y-195172557D02*
X200816487Y-195029700D01*
X200816487Y-195029700D02*
X200959344Y-194815414D01*
X200959344Y-194815414D02*
X201030773Y-194743985D01*
X201459344Y-194958271D02*
X202459344Y-194958271D01*
X202459344Y-194958271D02*
X201816487Y-196458271D01*
X203030772Y-196315414D02*
X203102201Y-196386842D01*
X203102201Y-196386842D02*
X203030772Y-196458271D01*
X203030772Y-196458271D02*
X202959344Y-196386842D01*
X202959344Y-196386842D02*
X203030772Y-196315414D01*
X203030772Y-196315414D02*
X203030772Y-196458271D01*
X204030773Y-194958271D02*
X204173630Y-194958271D01*
X204173630Y-194958271D02*
X204316487Y-195029700D01*
X204316487Y-195029700D02*
X204387916Y-195101128D01*
X204387916Y-195101128D02*
X204459344Y-195243985D01*
X204459344Y-195243985D02*
X204530773Y-195529700D01*
X204530773Y-195529700D02*
X204530773Y-195886842D01*
X204530773Y-195886842D02*
X204459344Y-196172557D01*
X204459344Y-196172557D02*
X204387916Y-196315414D01*
X204387916Y-196315414D02*
X204316487Y-196386842D01*
X204316487Y-196386842D02*
X204173630Y-196458271D01*
X204173630Y-196458271D02*
X204030773Y-196458271D01*
X204030773Y-196458271D02*
X203887916Y-196386842D01*
X203887916Y-196386842D02*
X203816487Y-196315414D01*
X203816487Y-196315414D02*
X203745058Y-196172557D01*
X203745058Y-196172557D02*
X203673630Y-195886842D01*
X203673630Y-195886842D02*
X203673630Y-195529700D01*
X203673630Y-195529700D02*
X203745058Y-195243985D01*
X203745058Y-195243985D02*
X203816487Y-195101128D01*
X203816487Y-195101128D02*
X203887916Y-195029700D01*
X203887916Y-195029700D02*
X204030773Y-194958271D01*
X205173629Y-196315414D02*
X205245058Y-196386842D01*
X205245058Y-196386842D02*
X205173629Y-196458271D01*
X205173629Y-196458271D02*
X205102201Y-196386842D01*
X205102201Y-196386842D02*
X205173629Y-196315414D01*
X205173629Y-196315414D02*
X205173629Y-196458271D01*
X206173630Y-194958271D02*
X206316487Y-194958271D01*
X206316487Y-194958271D02*
X206459344Y-195029700D01*
X206459344Y-195029700D02*
X206530773Y-195101128D01*
X206530773Y-195101128D02*
X206602201Y-195243985D01*
X206602201Y-195243985D02*
X206673630Y-195529700D01*
X206673630Y-195529700D02*
X206673630Y-195886842D01*
X206673630Y-195886842D02*
X206602201Y-196172557D01*
X206602201Y-196172557D02*
X206530773Y-196315414D01*
X206530773Y-196315414D02*
X206459344Y-196386842D01*
X206459344Y-196386842D02*
X206316487Y-196458271D01*
X206316487Y-196458271D02*
X206173630Y-196458271D01*
X206173630Y-196458271D02*
X206030773Y-196386842D01*
X206030773Y-196386842D02*
X205959344Y-196315414D01*
X205959344Y-196315414D02*
X205887915Y-196172557D01*
X205887915Y-196172557D02*
X205816487Y-195886842D01*
X205816487Y-195886842D02*
X205816487Y-195529700D01*
X205816487Y-195529700D02*
X205887915Y-195243985D01*
X205887915Y-195243985D02*
X205959344Y-195101128D01*
X205959344Y-195101128D02*
X206030773Y-195029700D01*
X206030773Y-195029700D02*
X206173630Y-194958271D01*
X207173629Y-197029700D02*
X207245058Y-196958271D01*
X207245058Y-196958271D02*
X207387915Y-196743985D01*
X207387915Y-196743985D02*
X207459344Y-196601128D01*
X207459344Y-196601128D02*
X207530772Y-196386842D01*
X207530772Y-196386842D02*
X207602201Y-196029700D01*
X207602201Y-196029700D02*
X207602201Y-195743985D01*
X207602201Y-195743985D02*
X207530772Y-195386842D01*
X207530772Y-195386842D02*
X207459344Y-195172557D01*
X207459344Y-195172557D02*
X207387915Y-195029700D01*
X207387915Y-195029700D02*
X207245058Y-194815414D01*
X207245058Y-194815414D02*
X207173629Y-194743985D01*
D10*
D11*
X177002200Y-191507200D02*
X285002200Y-191507200D01*
D10*
D12*
X264216485Y-193658271D02*
X263716485Y-192943985D01*
X263359342Y-193658271D02*
X263359342Y-192158271D01*
X263359342Y-192158271D02*
X263930771Y-192158271D01*
X263930771Y-192158271D02*
X264073628Y-192229700D01*
X264073628Y-192229700D02*
X264145057Y-192301128D01*
X264145057Y-192301128D02*
X264216485Y-192443985D01*
X264216485Y-192443985D02*
X264216485Y-192658271D01*
X264216485Y-192658271D02*
X264145057Y-192801128D01*
X264145057Y-192801128D02*
X264073628Y-192872557D01*
X264073628Y-192872557D02*
X263930771Y-192943985D01*
X263930771Y-192943985D02*
X263359342Y-192943985D01*
X265430771Y-193586842D02*
X265287914Y-193658271D01*
X265287914Y-193658271D02*
X265002200Y-193658271D01*
X265002200Y-193658271D02*
X264859342Y-193586842D01*
X264859342Y-193586842D02*
X264787914Y-193443985D01*
X264787914Y-193443985D02*
X264787914Y-192872557D01*
X264787914Y-192872557D02*
X264859342Y-192729700D01*
X264859342Y-192729700D02*
X265002200Y-192658271D01*
X265002200Y-192658271D02*
X265287914Y-192658271D01*
X265287914Y-192658271D02*
X265430771Y-192729700D01*
X265430771Y-192729700D02*
X265502200Y-192872557D01*
X265502200Y-192872557D02*
X265502200Y-193015414D01*
X265502200Y-193015414D02*
X264787914Y-193158271D01*
X266002199Y-192658271D02*
X266359342Y-193658271D01*
X266359342Y-193658271D02*
X266716485Y-192658271D01*
X267287913Y-193515414D02*
X267359342Y-193586842D01*
X267359342Y-193586842D02*
X267287913Y-193658271D01*
X267287913Y-193658271D02*
X267216485Y-193586842D01*
X267216485Y-193586842D02*
X267287913Y-193515414D01*
X267287913Y-193515414D02*
X267287913Y-193658271D01*
X267287913Y-192729700D02*
X267359342Y-192801128D01*
X267359342Y-192801128D02*
X267287913Y-192872557D01*
X267287913Y-192872557D02*
X267216485Y-192801128D01*
X267216485Y-192801128D02*
X267287913Y-192729700D01*
X267287913Y-192729700D02*
X267287913Y-192872557D01*
D10*
D11*
X178287914Y-193586842D02*
X178502200Y-193658271D01*
X178502200Y-193658271D02*
X178859342Y-193658271D01*
X178859342Y-193658271D02*
X179002200Y-193586842D01*
X179002200Y-193586842D02*
X179073628Y-193515414D01*
X179073628Y-193515414D02*
X179145057Y-193372557D01*
X179145057Y-193372557D02*
X179145057Y-193229700D01*
X179145057Y-193229700D02*
X179073628Y-193086842D01*
X179073628Y-193086842D02*
X179002200Y-193015414D01*
X179002200Y-193015414D02*
X178859342Y-192943985D01*
X178859342Y-192943985D02*
X178573628Y-192872557D01*
X178573628Y-192872557D02*
X178430771Y-192801128D01*
X178430771Y-192801128D02*
X178359342Y-192729700D01*
X178359342Y-192729700D02*
X178287914Y-192586842D01*
X178287914Y-192586842D02*
X178287914Y-192443985D01*
X178287914Y-192443985D02*
X178359342Y-192301128D01*
X178359342Y-192301128D02*
X178430771Y-192229700D01*
X178430771Y-192229700D02*
X178573628Y-192158271D01*
X178573628Y-192158271D02*
X178930771Y-192158271D01*
X178930771Y-192158271D02*
X179145057Y-192229700D01*
X179787913Y-193658271D02*
X179787913Y-192658271D01*
X179787913Y-192158271D02*
X179716485Y-192229700D01*
X179716485Y-192229700D02*
X179787913Y-192301128D01*
X179787913Y-192301128D02*
X179859342Y-192229700D01*
X179859342Y-192229700D02*
X179787913Y-192158271D01*
X179787913Y-192158271D02*
X179787913Y-192301128D01*
X180359342Y-192658271D02*
X181145057Y-192658271D01*
X181145057Y-192658271D02*
X180359342Y-193658271D01*
X180359342Y-193658271D02*
X181145057Y-193658271D01*
X182287914Y-193586842D02*
X182145057Y-193658271D01*
X182145057Y-193658271D02*
X181859343Y-193658271D01*
X181859343Y-193658271D02*
X181716485Y-193586842D01*
X181716485Y-193586842D02*
X181645057Y-193443985D01*
X181645057Y-193443985D02*
X181645057Y-192872557D01*
X181645057Y-192872557D02*
X181716485Y-192729700D01*
X181716485Y-192729700D02*
X181859343Y-192658271D01*
X181859343Y-192658271D02*
X182145057Y-192658271D01*
X182145057Y-192658271D02*
X182287914Y-192729700D01*
X182287914Y-192729700D02*
X182359343Y-192872557D01*
X182359343Y-192872557D02*
X182359343Y-193015414D01*
X182359343Y-193015414D02*
X181645057Y-193158271D01*
X183002199Y-193515414D02*
X183073628Y-193586842D01*
X183073628Y-193586842D02*
X183002199Y-193658271D01*
X183002199Y-193658271D02*
X182930771Y-193586842D01*
X182930771Y-193586842D02*
X183002199Y-193515414D01*
X183002199Y-193515414D02*
X183002199Y-193658271D01*
X183002199Y-192729700D02*
X183073628Y-192801128D01*
X183073628Y-192801128D02*
X183002199Y-192872557D01*
X183002199Y-192872557D02*
X182930771Y-192801128D01*
X182930771Y-192801128D02*
X183002199Y-192729700D01*
X183002199Y-192729700D02*
X183002199Y-192872557D01*
X184545057Y-193229700D02*
X185259343Y-193229700D01*
X184402200Y-193658271D02*
X184902200Y-192158271D01*
X184902200Y-192158271D02*
X185402200Y-193658271D01*
X186545057Y-192658271D02*
X186545057Y-193658271D01*
X186187914Y-192086842D02*
X185830771Y-193158271D01*
X185830771Y-193158271D02*
X186759342Y-193158271D01*
D10*
D11*
X263359342Y-196458271D02*
X263359342Y-194958271D01*
X264716486Y-196458271D02*
X264716486Y-194958271D01*
X264716486Y-196386842D02*
X264573628Y-196458271D01*
X264573628Y-196458271D02*
X264287914Y-196458271D01*
X264287914Y-196458271D02*
X264145057Y-196386842D01*
X264145057Y-196386842D02*
X264073628Y-196315414D01*
X264073628Y-196315414D02*
X264002200Y-196172557D01*
X264002200Y-196172557D02*
X264002200Y-195743985D01*
X264002200Y-195743985D02*
X264073628Y-195601128D01*
X264073628Y-195601128D02*
X264145057Y-195529700D01*
X264145057Y-195529700D02*
X264287914Y-195458271D01*
X264287914Y-195458271D02*
X264573628Y-195458271D01*
X264573628Y-195458271D02*
X264716486Y-195529700D01*
X265430771Y-196315414D02*
X265502200Y-196386842D01*
X265502200Y-196386842D02*
X265430771Y-196458271D01*
X265430771Y-196458271D02*
X265359343Y-196386842D01*
X265359343Y-196386842D02*
X265430771Y-196315414D01*
X265430771Y-196315414D02*
X265430771Y-196458271D01*
X265430771Y-195529700D02*
X265502200Y-195601128D01*
X265502200Y-195601128D02*
X265430771Y-195672557D01*
X265430771Y-195672557D02*
X265359343Y-195601128D01*
X265359343Y-195601128D02*
X265430771Y-195529700D01*
X265430771Y-195529700D02*
X265430771Y-195672557D01*
X267830772Y-196458271D02*
X266973629Y-196458271D01*
X267402200Y-196458271D02*
X267402200Y-194958271D01*
X267402200Y-194958271D02*
X267259343Y-195172557D01*
X267259343Y-195172557D02*
X267116486Y-195315414D01*
X267116486Y-195315414D02*
X266973629Y-195386842D01*
X269545057Y-194886842D02*
X268259343Y-196815414D01*
X270830772Y-196458271D02*
X269973629Y-196458271D01*
X270402200Y-196458271D02*
X270402200Y-194958271D01*
X270402200Y-194958271D02*
X270259343Y-195172557D01*
X270259343Y-195172557D02*
X270116486Y-195315414D01*
X270116486Y-195315414D02*
X269973629Y-195386842D01*
D10*
D11*
X177002200Y-187507200D02*
X285002200Y-187507200D01*
D10*
D13*
X178454580Y-188041961D02*
X179597438Y-188041961D01*
X178776009Y-190041961D02*
X179026009Y-188041961D01*
X180014105Y-190041961D02*
X180180771Y-188708628D01*
X180264105Y-188041961D02*
X180156962Y-188137200D01*
X180156962Y-188137200D02*
X180240295Y-188232438D01*
X180240295Y-188232438D02*
X180347438Y-188137200D01*
X180347438Y-188137200D02*
X180264105Y-188041961D01*
X180264105Y-188041961D02*
X180240295Y-188232438D01*
X180847438Y-188708628D02*
X181609343Y-188708628D01*
X181216486Y-188041961D02*
X181002200Y-189756247D01*
X181002200Y-189756247D02*
X181073629Y-189946723D01*
X181073629Y-189946723D02*
X181252200Y-190041961D01*
X181252200Y-190041961D02*
X181442676Y-190041961D01*
X182395057Y-190041961D02*
X182216486Y-189946723D01*
X182216486Y-189946723D02*
X182145057Y-189756247D01*
X182145057Y-189756247D02*
X182359343Y-188041961D01*
X183930771Y-189946723D02*
X183728390Y-190041961D01*
X183728390Y-190041961D02*
X183347438Y-190041961D01*
X183347438Y-190041961D02*
X183168867Y-189946723D01*
X183168867Y-189946723D02*
X183097438Y-189756247D01*
X183097438Y-189756247D02*
X183192676Y-188994342D01*
X183192676Y-188994342D02*
X183311724Y-188803866D01*
X183311724Y-188803866D02*
X183514105Y-188708628D01*
X183514105Y-188708628D02*
X183895057Y-188708628D01*
X183895057Y-188708628D02*
X184073628Y-188803866D01*
X184073628Y-188803866D02*
X184145057Y-188994342D01*
X184145057Y-188994342D02*
X184121247Y-189184819D01*
X184121247Y-189184819D02*
X183145057Y-189375295D01*
X184895057Y-189851485D02*
X184978391Y-189946723D01*
X184978391Y-189946723D02*
X184871248Y-190041961D01*
X184871248Y-190041961D02*
X184787914Y-189946723D01*
X184787914Y-189946723D02*
X184895057Y-189851485D01*
X184895057Y-189851485D02*
X184871248Y-190041961D01*
X185026010Y-188803866D02*
X185109343Y-188899104D01*
X185109343Y-188899104D02*
X185002200Y-188994342D01*
X185002200Y-188994342D02*
X184918867Y-188899104D01*
X184918867Y-188899104D02*
X185026010Y-188803866D01*
X185026010Y-188803866D02*
X185002200Y-188994342D01*
D10*
D11*
X178859342Y-185472557D02*
X178359342Y-185472557D01*
X178359342Y-186258271D02*
X178359342Y-184758271D01*
X178359342Y-184758271D02*
X179073628Y-184758271D01*
X179645056Y-186258271D02*
X179645056Y-185258271D01*
X179645056Y-184758271D02*
X179573628Y-184829700D01*
X179573628Y-184829700D02*
X179645056Y-184901128D01*
X179645056Y-184901128D02*
X179716485Y-184829700D01*
X179716485Y-184829700D02*
X179645056Y-184758271D01*
X179645056Y-184758271D02*
X179645056Y-184901128D01*
X180573628Y-186258271D02*
X180430771Y-186186842D01*
X180430771Y-186186842D02*
X180359342Y-186043985D01*
X180359342Y-186043985D02*
X180359342Y-184758271D01*
X181716485Y-186186842D02*
X181573628Y-186258271D01*
X181573628Y-186258271D02*
X181287914Y-186258271D01*
X181287914Y-186258271D02*
X181145056Y-186186842D01*
X181145056Y-186186842D02*
X181073628Y-186043985D01*
X181073628Y-186043985D02*
X181073628Y-185472557D01*
X181073628Y-185472557D02*
X181145056Y-185329700D01*
X181145056Y-185329700D02*
X181287914Y-185258271D01*
X181287914Y-185258271D02*
X181573628Y-185258271D01*
X181573628Y-185258271D02*
X181716485Y-185329700D01*
X181716485Y-185329700D02*
X181787914Y-185472557D01*
X181787914Y-185472557D02*
X181787914Y-185615414D01*
X181787914Y-185615414D02*
X181073628Y-185758271D01*
X182430770Y-186115414D02*
X182502199Y-186186842D01*
X182502199Y-186186842D02*
X182430770Y-186258271D01*
X182430770Y-186258271D02*
X182359342Y-186186842D01*
X182359342Y-186186842D02*
X182430770Y-186115414D01*
X182430770Y-186115414D02*
X182430770Y-186258271D01*
X182430770Y-185329700D02*
X182502199Y-185401128D01*
X182502199Y-185401128D02*
X182430770Y-185472557D01*
X182430770Y-185472557D02*
X182359342Y-185401128D01*
X182359342Y-185401128D02*
X182430770Y-185329700D01*
X182430770Y-185329700D02*
X182430770Y-185472557D01*
X184330771Y-184758271D02*
X184616485Y-184758271D01*
X184616485Y-184758271D02*
X184759342Y-184829700D01*
X184759342Y-184829700D02*
X184902199Y-184972557D01*
X184902199Y-184972557D02*
X184973628Y-185258271D01*
X184973628Y-185258271D02*
X184973628Y-185758271D01*
X184973628Y-185758271D02*
X184902199Y-186043985D01*
X184902199Y-186043985D02*
X184759342Y-186186842D01*
X184759342Y-186186842D02*
X184616485Y-186258271D01*
X184616485Y-186258271D02*
X184330771Y-186258271D01*
X184330771Y-186258271D02*
X184187914Y-186186842D01*
X184187914Y-186186842D02*
X184045056Y-186043985D01*
X184045056Y-186043985D02*
X183973628Y-185758271D01*
X183973628Y-185758271D02*
X183973628Y-185258271D01*
X183973628Y-185258271D02*
X184045056Y-184972557D01*
X184045056Y-184972557D02*
X184187914Y-184829700D01*
X184187914Y-184829700D02*
X184330771Y-184758271D01*
X185616485Y-186258271D02*
X185616485Y-184758271D01*
X185616485Y-184758271D02*
X186116485Y-185829700D01*
X186116485Y-185829700D02*
X186616485Y-184758271D01*
X186616485Y-184758271D02*
X186616485Y-186258271D01*
X187330771Y-186258271D02*
X187330771Y-184758271D01*
X188902200Y-186115414D02*
X188830772Y-186186842D01*
X188830772Y-186186842D02*
X188616486Y-186258271D01*
X188616486Y-186258271D02*
X188473629Y-186258271D01*
X188473629Y-186258271D02*
X188259343Y-186186842D01*
X188259343Y-186186842D02*
X188116486Y-186043985D01*
X188116486Y-186043985D02*
X188045057Y-185901128D01*
X188045057Y-185901128D02*
X187973629Y-185615414D01*
X187973629Y-185615414D02*
X187973629Y-185401128D01*
X187973629Y-185401128D02*
X188045057Y-185115414D01*
X188045057Y-185115414D02*
X188116486Y-184972557D01*
X188116486Y-184972557D02*
X188259343Y-184829700D01*
X188259343Y-184829700D02*
X188473629Y-184758271D01*
X188473629Y-184758271D02*
X188616486Y-184758271D01*
X188616486Y-184758271D02*
X188830772Y-184829700D01*
X188830772Y-184829700D02*
X188902200Y-184901128D01*
X190402200Y-186258271D02*
X189902200Y-185543985D01*
X189545057Y-186258271D02*
X189545057Y-184758271D01*
X189545057Y-184758271D02*
X190116486Y-184758271D01*
X190116486Y-184758271D02*
X190259343Y-184829700D01*
X190259343Y-184829700D02*
X190330772Y-184901128D01*
X190330772Y-184901128D02*
X190402200Y-185043985D01*
X190402200Y-185043985D02*
X190402200Y-185258271D01*
X190402200Y-185258271D02*
X190330772Y-185401128D01*
X190330772Y-185401128D02*
X190259343Y-185472557D01*
X190259343Y-185472557D02*
X190116486Y-185543985D01*
X190116486Y-185543985D02*
X189545057Y-185543985D01*
X191330772Y-184758271D02*
X191616486Y-184758271D01*
X191616486Y-184758271D02*
X191759343Y-184829700D01*
X191759343Y-184829700D02*
X191902200Y-184972557D01*
X191902200Y-184972557D02*
X191973629Y-185258271D01*
X191973629Y-185258271D02*
X191973629Y-185758271D01*
X191973629Y-185758271D02*
X191902200Y-186043985D01*
X191902200Y-186043985D02*
X191759343Y-186186842D01*
X191759343Y-186186842D02*
X191616486Y-186258271D01*
X191616486Y-186258271D02*
X191330772Y-186258271D01*
X191330772Y-186258271D02*
X191187915Y-186186842D01*
X191187915Y-186186842D02*
X191045057Y-186043985D01*
X191045057Y-186043985D02*
X190973629Y-185758271D01*
X190973629Y-185758271D02*
X190973629Y-185258271D01*
X190973629Y-185258271D02*
X191045057Y-184972557D01*
X191045057Y-184972557D02*
X191187915Y-184829700D01*
X191187915Y-184829700D02*
X191330772Y-184758271D01*
X192616486Y-186258271D02*
X192616486Y-184758271D01*
X192616486Y-184758271D02*
X193473629Y-186258271D01*
X193473629Y-186258271D02*
X193473629Y-184758271D01*
X195302201Y-186258271D02*
X195159344Y-186186842D01*
X195159344Y-186186842D02*
X195087915Y-186115414D01*
X195087915Y-186115414D02*
X195016487Y-185972557D01*
X195016487Y-185972557D02*
X195016487Y-185543985D01*
X195016487Y-185543985D02*
X195087915Y-185401128D01*
X195087915Y-185401128D02*
X195159344Y-185329700D01*
X195159344Y-185329700D02*
X195302201Y-185258271D01*
X195302201Y-185258271D02*
X195516487Y-185258271D01*
X195516487Y-185258271D02*
X195659344Y-185329700D01*
X195659344Y-185329700D02*
X195730773Y-185401128D01*
X195730773Y-185401128D02*
X195802201Y-185543985D01*
X195802201Y-185543985D02*
X195802201Y-185972557D01*
X195802201Y-185972557D02*
X195730773Y-186115414D01*
X195730773Y-186115414D02*
X195659344Y-186186842D01*
X195659344Y-186186842D02*
X195516487Y-186258271D01*
X195516487Y-186258271D02*
X195302201Y-186258271D01*
X196730773Y-184758271D02*
X197016487Y-184758271D01*
X197016487Y-184758271D02*
X197159344Y-184829700D01*
X197159344Y-184829700D02*
X197302201Y-184972557D01*
X197302201Y-184972557D02*
X197373630Y-185258271D01*
X197373630Y-185258271D02*
X197373630Y-185758271D01*
X197373630Y-185758271D02*
X197302201Y-186043985D01*
X197302201Y-186043985D02*
X197159344Y-186186842D01*
X197159344Y-186186842D02*
X197016487Y-186258271D01*
X197016487Y-186258271D02*
X196730773Y-186258271D01*
X196730773Y-186258271D02*
X196587916Y-186186842D01*
X196587916Y-186186842D02*
X196445058Y-186043985D01*
X196445058Y-186043985D02*
X196373630Y-185758271D01*
X196373630Y-185758271D02*
X196373630Y-185258271D01*
X196373630Y-185258271D02*
X196445058Y-184972557D01*
X196445058Y-184972557D02*
X196587916Y-184829700D01*
X196587916Y-184829700D02*
X196730773Y-184758271D01*
X198016487Y-186115414D02*
X198087916Y-186186842D01*
X198087916Y-186186842D02*
X198016487Y-186258271D01*
X198016487Y-186258271D02*
X197945059Y-186186842D01*
X197945059Y-186186842D02*
X198016487Y-186115414D01*
X198016487Y-186115414D02*
X198016487Y-186258271D01*
X198730773Y-186258271D02*
X198730773Y-184758271D01*
X198873631Y-185686842D02*
X199302202Y-186258271D01*
X199302202Y-185258271D02*
X198730773Y-185829700D01*
X199945059Y-186258271D02*
X199945059Y-185258271D01*
X199945059Y-184758271D02*
X199873631Y-184829700D01*
X199873631Y-184829700D02*
X199945059Y-184901128D01*
X199945059Y-184901128D02*
X200016488Y-184829700D01*
X200016488Y-184829700D02*
X199945059Y-184758271D01*
X199945059Y-184758271D02*
X199945059Y-184901128D01*
X201302203Y-186186842D02*
X201159345Y-186258271D01*
X201159345Y-186258271D02*
X200873631Y-186258271D01*
X200873631Y-186258271D02*
X200730774Y-186186842D01*
X200730774Y-186186842D02*
X200659345Y-186115414D01*
X200659345Y-186115414D02*
X200587917Y-185972557D01*
X200587917Y-185972557D02*
X200587917Y-185543985D01*
X200587917Y-185543985D02*
X200659345Y-185401128D01*
X200659345Y-185401128D02*
X200730774Y-185329700D01*
X200730774Y-185329700D02*
X200873631Y-185258271D01*
X200873631Y-185258271D02*
X201159345Y-185258271D01*
X201159345Y-185258271D02*
X201302203Y-185329700D01*
X202587917Y-186258271D02*
X202587917Y-185472557D01*
X202587917Y-185472557D02*
X202516488Y-185329700D01*
X202516488Y-185329700D02*
X202373631Y-185258271D01*
X202373631Y-185258271D02*
X202087917Y-185258271D01*
X202087917Y-185258271D02*
X201945059Y-185329700D01*
X202587917Y-186186842D02*
X202445059Y-186258271D01*
X202445059Y-186258271D02*
X202087917Y-186258271D01*
X202087917Y-186258271D02*
X201945059Y-186186842D01*
X201945059Y-186186842D02*
X201873631Y-186043985D01*
X201873631Y-186043985D02*
X201873631Y-185901128D01*
X201873631Y-185901128D02*
X201945059Y-185758271D01*
X201945059Y-185758271D02*
X202087917Y-185686842D01*
X202087917Y-185686842D02*
X202445059Y-185686842D01*
X202445059Y-185686842D02*
X202587917Y-185615414D01*
X203945060Y-186258271D02*
X203945060Y-184758271D01*
X203945060Y-186186842D02*
X203802202Y-186258271D01*
X203802202Y-186258271D02*
X203516488Y-186258271D01*
X203516488Y-186258271D02*
X203373631Y-186186842D01*
X203373631Y-186186842D02*
X203302202Y-186115414D01*
X203302202Y-186115414D02*
X203230774Y-185972557D01*
X203230774Y-185972557D02*
X203230774Y-185543985D01*
X203230774Y-185543985D02*
X203302202Y-185401128D01*
X203302202Y-185401128D02*
X203373631Y-185329700D01*
X203373631Y-185329700D02*
X203516488Y-185258271D01*
X203516488Y-185258271D02*
X203802202Y-185258271D01*
X203802202Y-185258271D02*
X203945060Y-185329700D01*
X204302203Y-186401128D02*
X205445060Y-186401128D01*
X205802202Y-185258271D02*
X205802202Y-186758271D01*
X205802202Y-185329700D02*
X205945060Y-185258271D01*
X205945060Y-185258271D02*
X206230774Y-185258271D01*
X206230774Y-185258271D02*
X206373631Y-185329700D01*
X206373631Y-185329700D02*
X206445060Y-185401128D01*
X206445060Y-185401128D02*
X206516488Y-185543985D01*
X206516488Y-185543985D02*
X206516488Y-185972557D01*
X206516488Y-185972557D02*
X206445060Y-186115414D01*
X206445060Y-186115414D02*
X206373631Y-186186842D01*
X206373631Y-186186842D02*
X206230774Y-186258271D01*
X206230774Y-186258271D02*
X205945060Y-186258271D01*
X205945060Y-186258271D02*
X205802202Y-186186842D01*
X207802203Y-186186842D02*
X207659345Y-186258271D01*
X207659345Y-186258271D02*
X207373631Y-186258271D01*
X207373631Y-186258271D02*
X207230774Y-186186842D01*
X207230774Y-186186842D02*
X207159345Y-186115414D01*
X207159345Y-186115414D02*
X207087917Y-185972557D01*
X207087917Y-185972557D02*
X207087917Y-185543985D01*
X207087917Y-185543985D02*
X207159345Y-185401128D01*
X207159345Y-185401128D02*
X207230774Y-185329700D01*
X207230774Y-185329700D02*
X207373631Y-185258271D01*
X207373631Y-185258271D02*
X207659345Y-185258271D01*
X207659345Y-185258271D02*
X207802203Y-185329700D01*
X208445059Y-186258271D02*
X208445059Y-184758271D01*
X208445059Y-185329700D02*
X208587917Y-185258271D01*
X208587917Y-185258271D02*
X208873631Y-185258271D01*
X208873631Y-185258271D02*
X209016488Y-185329700D01*
X209016488Y-185329700D02*
X209087917Y-185401128D01*
X209087917Y-185401128D02*
X209159345Y-185543985D01*
X209159345Y-185543985D02*
X209159345Y-185972557D01*
X209159345Y-185972557D02*
X209087917Y-186115414D01*
X209087917Y-186115414D02*
X209016488Y-186186842D01*
X209016488Y-186186842D02*
X208873631Y-186258271D01*
X208873631Y-186258271D02*
X208587917Y-186258271D01*
X208587917Y-186258271D02*
X208445059Y-186186842D01*
D10*
D11*
X177002200Y-181507200D02*
X285002200Y-181507200D01*
D10*
D11*
X178287914Y-183486842D02*
X178502200Y-183558271D01*
X178502200Y-183558271D02*
X178859342Y-183558271D01*
X178859342Y-183558271D02*
X179002200Y-183486842D01*
X179002200Y-183486842D02*
X179073628Y-183415414D01*
X179073628Y-183415414D02*
X179145057Y-183272557D01*
X179145057Y-183272557D02*
X179145057Y-183129700D01*
X179145057Y-183129700D02*
X179073628Y-182986842D01*
X179073628Y-182986842D02*
X179002200Y-182915414D01*
X179002200Y-182915414D02*
X178859342Y-182843985D01*
X178859342Y-182843985D02*
X178573628Y-182772557D01*
X178573628Y-182772557D02*
X178430771Y-182701128D01*
X178430771Y-182701128D02*
X178359342Y-182629700D01*
X178359342Y-182629700D02*
X178287914Y-182486842D01*
X178287914Y-182486842D02*
X178287914Y-182343985D01*
X178287914Y-182343985D02*
X178359342Y-182201128D01*
X178359342Y-182201128D02*
X178430771Y-182129700D01*
X178430771Y-182129700D02*
X178573628Y-182058271D01*
X178573628Y-182058271D02*
X178930771Y-182058271D01*
X178930771Y-182058271D02*
X179145057Y-182129700D01*
X179787913Y-183558271D02*
X179787913Y-182058271D01*
X180430771Y-183558271D02*
X180430771Y-182772557D01*
X180430771Y-182772557D02*
X180359342Y-182629700D01*
X180359342Y-182629700D02*
X180216485Y-182558271D01*
X180216485Y-182558271D02*
X180002199Y-182558271D01*
X180002199Y-182558271D02*
X179859342Y-182629700D01*
X179859342Y-182629700D02*
X179787913Y-182701128D01*
X181716485Y-183486842D02*
X181573628Y-183558271D01*
X181573628Y-183558271D02*
X181287914Y-183558271D01*
X181287914Y-183558271D02*
X181145056Y-183486842D01*
X181145056Y-183486842D02*
X181073628Y-183343985D01*
X181073628Y-183343985D02*
X181073628Y-182772557D01*
X181073628Y-182772557D02*
X181145056Y-182629700D01*
X181145056Y-182629700D02*
X181287914Y-182558271D01*
X181287914Y-182558271D02*
X181573628Y-182558271D01*
X181573628Y-182558271D02*
X181716485Y-182629700D01*
X181716485Y-182629700D02*
X181787914Y-182772557D01*
X181787914Y-182772557D02*
X181787914Y-182915414D01*
X181787914Y-182915414D02*
X181073628Y-183058271D01*
X183002199Y-183486842D02*
X182859342Y-183558271D01*
X182859342Y-183558271D02*
X182573628Y-183558271D01*
X182573628Y-183558271D02*
X182430770Y-183486842D01*
X182430770Y-183486842D02*
X182359342Y-183343985D01*
X182359342Y-183343985D02*
X182359342Y-182772557D01*
X182359342Y-182772557D02*
X182430770Y-182629700D01*
X182430770Y-182629700D02*
X182573628Y-182558271D01*
X182573628Y-182558271D02*
X182859342Y-182558271D01*
X182859342Y-182558271D02*
X183002199Y-182629700D01*
X183002199Y-182629700D02*
X183073628Y-182772557D01*
X183073628Y-182772557D02*
X183073628Y-182915414D01*
X183073628Y-182915414D02*
X182359342Y-183058271D01*
X183502199Y-182558271D02*
X184073627Y-182558271D01*
X183716484Y-182058271D02*
X183716484Y-183343985D01*
X183716484Y-183343985D02*
X183787913Y-183486842D01*
X183787913Y-183486842D02*
X183930770Y-183558271D01*
X183930770Y-183558271D02*
X184073627Y-183558271D01*
X184573627Y-183415414D02*
X184645056Y-183486842D01*
X184645056Y-183486842D02*
X184573627Y-183558271D01*
X184573627Y-183558271D02*
X184502199Y-183486842D01*
X184502199Y-183486842D02*
X184573627Y-183415414D01*
X184573627Y-183415414D02*
X184573627Y-183558271D01*
X184573627Y-182629700D02*
X184645056Y-182701128D01*
X184645056Y-182701128D02*
X184573627Y-182772557D01*
X184573627Y-182772557D02*
X184502199Y-182701128D01*
X184502199Y-182701128D02*
X184573627Y-182629700D01*
X184573627Y-182629700D02*
X184573627Y-182772557D01*
D10*
D12*
D10*
D11*
D10*
D11*
D10*
D11*
D10*
D11*
D10*
D11*
X197002200Y-191507200D02*
X197002200Y-194507200D01*
D10*
D11*
X261002200Y-191507200D02*
X261002200Y-198007200D01*
D12*
D14*
G36*
X217681640Y-85401650D02*
G01*
X217695829Y-85405648D01*
X217707139Y-85415009D01*
X217713251Y-85428978D01*
X217715000Y-85445872D01*
X217715000Y-85763143D01*
X217714162Y-85771590D01*
X217708728Y-85786262D01*
X217698871Y-85798794D01*
X217685324Y-85807473D01*
X217199159Y-86016667D01*
X217199159Y-86746831D01*
X217670303Y-86746831D01*
X217677839Y-86747289D01*
X217693008Y-86751760D01*
X217705813Y-86762220D01*
X217712642Y-86775537D01*
X217715000Y-86792260D01*
X217715000Y-87121988D01*
X217714560Y-87128981D01*
X217710241Y-87143379D01*
X217700046Y-87155919D01*
X217686936Y-87162795D01*
X217670303Y-87165219D01*
X216310725Y-87165219D01*
X216294865Y-87164029D01*
X216280632Y-87160508D01*
X216265358Y-87152939D01*
X216253154Y-87141985D01*
X216244315Y-87127786D01*
X216239133Y-87110487D01*
X216237819Y-87094511D01*
X216237819Y-86723018D01*
X216481817Y-86723018D01*
X216483461Y-86735434D01*
X216495119Y-86745302D01*
X216510760Y-86746831D01*
X216963953Y-86746831D01*
X216963953Y-85996884D01*
X216847083Y-85874152D01*
X216839708Y-85867706D01*
X216825467Y-85863161D01*
X216611510Y-85863161D01*
X216598001Y-85865359D01*
X216585865Y-85874152D01*
X216491343Y-85970872D01*
X216483970Y-85981588D01*
X216481817Y-85996151D01*
X216481817Y-86723018D01*
X216237819Y-86723018D01*
X216237819Y-85740062D01*
X216238562Y-85727361D01*
X216241366Y-85712699D01*
X216247165Y-85696629D01*
X216255554Y-85681958D01*
X216266395Y-85668988D01*
X216459836Y-85464923D01*
X216470687Y-85456582D01*
X216484470Y-85449975D01*
X216498970Y-85446158D01*
X216515157Y-85444773D01*
X216857707Y-85444773D01*
X216863309Y-85444889D01*
X216879706Y-85446650D01*
X216895388Y-85450575D01*
X216910225Y-85456722D01*
X216924087Y-85465149D01*
X216936842Y-85475914D01*
X217097676Y-85645907D01*
X217578346Y-85416563D01*
X217582648Y-85414574D01*
X217596578Y-85408734D01*
X217611601Y-85404099D01*
X217627479Y-85401508D01*
X217643558Y-85400809D01*
X217666273Y-85400809D01*
X217681640Y-85401650D01*
G37*
G36*
X217674367Y-83495544D02*
G01*
X217690330Y-83499176D01*
X217704124Y-83508464D01*
X217712548Y-83522538D01*
X217715000Y-83538213D01*
X217715000Y-83857683D01*
X217713621Y-83868016D01*
X217706856Y-83881215D01*
X217695370Y-83891480D01*
X217682027Y-83897983D01*
X217410184Y-83995802D01*
X217410184Y-84869947D01*
X217682393Y-84965935D01*
X217690156Y-84969968D01*
X217702654Y-84979991D01*
X217711587Y-84993025D01*
X217715000Y-85008433D01*
X217715000Y-85266720D01*
X217714189Y-85276151D01*
X217709048Y-85290248D01*
X217697858Y-85302098D01*
X217683906Y-85308222D01*
X217669204Y-85309951D01*
X217639528Y-85309951D01*
X217635181Y-85309870D01*
X217618566Y-85308079D01*
X217602569Y-85304321D01*
X217588431Y-85299825D01*
X217573583Y-85294563D01*
X216288011Y-84832578D01*
X216277229Y-84827539D01*
X216265238Y-84818108D01*
X216255120Y-84806245D01*
X216247108Y-84793074D01*
X216240604Y-84777124D01*
X216237819Y-84760771D01*
X216237819Y-84519337D01*
X216481817Y-84519337D01*
X216486580Y-84531060D01*
X217179009Y-84785683D01*
X217179009Y-84080432D01*
X216484748Y-84334689D01*
X216481817Y-84342749D01*
X216481817Y-84519337D01*
X216237819Y-84519337D01*
X216237819Y-84044528D01*
X216238712Y-84031706D01*
X216242239Y-84017130D01*
X216249750Y-84001859D01*
X216260524Y-83989120D01*
X216274228Y-83979026D01*
X216287644Y-83972721D01*
X217573583Y-83510736D01*
X217577930Y-83509174D01*
X217592519Y-83504096D01*
X217608548Y-83499371D01*
X217624680Y-83496290D01*
X217639528Y-83495348D01*
X217669204Y-83495348D01*
X217674367Y-83495544D01*
G37*
G36*
X216283248Y-81732404D02*
G01*
X216266525Y-81734765D01*
X216253207Y-81741621D01*
X216242747Y-81754514D01*
X216238276Y-81769836D01*
X216237819Y-81777466D01*
X216237819Y-83060840D01*
X216238886Y-83076033D01*
X216242031Y-83090574D01*
X216248208Y-83106463D01*
X216256956Y-83120908D01*
X216266395Y-83131915D01*
X216436388Y-83312166D01*
X216446811Y-83324794D01*
X216457943Y-83336220D01*
X216470495Y-83345703D01*
X216485178Y-83352506D01*
X216499552Y-83355595D01*
X216509295Y-83356130D01*
X216813377Y-83356130D01*
X216830450Y-83355425D01*
X216845480Y-83352962D01*
X216861419Y-83347170D01*
X216874558Y-83339108D01*
X216887993Y-83327636D01*
X216890314Y-83325355D01*
X217064337Y-83167819D01*
X217074034Y-83156061D01*
X217080944Y-83141639D01*
X217084278Y-83126989D01*
X217084853Y-83117627D01*
X217084853Y-82242383D01*
X217088081Y-82227711D01*
X217095040Y-82214277D01*
X217098775Y-82210143D01*
X217180474Y-82128443D01*
X217191465Y-82118918D01*
X217357794Y-82118918D01*
X217372432Y-82121693D01*
X217384173Y-82130642D01*
X217458911Y-82200983D01*
X217466382Y-82213707D01*
X217470528Y-82228588D01*
X217471367Y-82241650D01*
X217471367Y-83335980D01*
X217473729Y-83351553D01*
X217481910Y-83365750D01*
X217495445Y-83375250D01*
X217511275Y-83379007D01*
X217516430Y-83379211D01*
X217669937Y-83379211D01*
X217684571Y-83377419D01*
X217698326Y-83371143D01*
X217709249Y-83359183D01*
X217714220Y-83345201D01*
X217715000Y-83335980D01*
X217715000Y-82012672D01*
X217713782Y-81996217D01*
X217710208Y-81979951D01*
X217704393Y-81964061D01*
X217696452Y-81948736D01*
X217688295Y-81936533D01*
X217682759Y-81929508D01*
X217497745Y-81736067D01*
X217486575Y-81726458D01*
X217472449Y-81717590D01*
X217457231Y-81711355D01*
X217441014Y-81707869D01*
X217428869Y-81707124D01*
X217094745Y-81707124D01*
X217077991Y-81708548D01*
X217061480Y-81712835D01*
X217047625Y-81718806D01*
X217034139Y-81726911D01*
X217021106Y-81737166D01*
X216857341Y-81891039D01*
X216846509Y-81903500D01*
X216837615Y-81917617D01*
X216830817Y-81933116D01*
X216826274Y-81949721D01*
X216824147Y-81967156D01*
X216824002Y-81973105D01*
X216824002Y-82827833D01*
X216819365Y-82842052D01*
X216815209Y-82846884D01*
X216734975Y-82930781D01*
X216722824Y-82939218D01*
X216716657Y-82939940D01*
X216599787Y-82939940D01*
X216584726Y-82937748D01*
X216571516Y-82929573D01*
X216567180Y-82924919D01*
X216497205Y-82851280D01*
X216488119Y-82839575D01*
X216482910Y-82825614D01*
X216481817Y-82813178D01*
X216481817Y-81777466D01*
X216479434Y-81760788D01*
X216472635Y-81747575D01*
X216460139Y-81737247D01*
X216445663Y-81732852D01*
X216438586Y-81732404D01*
X216283248Y-81732404D01*
G37*
G36*
X216283248Y-79135614D02*
G01*
X216267552Y-79137979D01*
X216254272Y-79144861D01*
X216244352Y-79155938D01*
X216238734Y-79170886D01*
X216237819Y-79181043D01*
X216237819Y-79508572D01*
X216240554Y-79524439D01*
X216248131Y-79537111D01*
X216261510Y-79547090D01*
X216276286Y-79551365D01*
X216283248Y-79551803D01*
X217335812Y-79551803D01*
X217349936Y-79556505D01*
X217354497Y-79560596D01*
X217464040Y-79680397D01*
X217471208Y-79693771D01*
X217471367Y-79699815D01*
X217471367Y-80285631D01*
X217468327Y-80300242D01*
X217464040Y-80305048D01*
X217354497Y-80424483D01*
X217342151Y-80432814D01*
X217335812Y-80433642D01*
X216283248Y-80433642D01*
X216267699Y-80435944D01*
X216254424Y-80442587D01*
X216243337Y-80454996D01*
X216238346Y-80469627D01*
X216237819Y-80476873D01*
X216237819Y-80810631D01*
X216239845Y-80825435D01*
X216246788Y-80839310D01*
X216257765Y-80849221D01*
X216271831Y-80854845D01*
X216283248Y-80856060D01*
X217413482Y-80856060D01*
X217429702Y-80854109D01*
X217444944Y-80848453D01*
X217458230Y-80839384D01*
X217464406Y-80832979D01*
X217682393Y-80606566D01*
X217693157Y-80592920D01*
X217701887Y-80577766D01*
X217707536Y-80564238D01*
X217711643Y-80550107D01*
X217714151Y-80535572D01*
X217715000Y-80520837D01*
X217715000Y-79470837D01*
X217714151Y-79456101D01*
X217711643Y-79441567D01*
X217707536Y-79427435D01*
X217701887Y-79413907D01*
X217693157Y-79398754D01*
X217682393Y-79385108D01*
X217464406Y-79158695D01*
X217452630Y-79147857D01*
X217438353Y-79140268D01*
X217422556Y-79136222D01*
X217413482Y-79135614D01*
X216283248Y-79135614D01*
G37*
G36*
X216283614Y-77275949D02*
G01*
X216268913Y-77277740D01*
X216254960Y-77284017D01*
X216243770Y-77295977D01*
X216238629Y-77309959D01*
X216237819Y-77319180D01*
X216237819Y-77558782D01*
X216239628Y-77573416D01*
X216246059Y-77587171D01*
X216258572Y-77598094D01*
X216273547Y-77603065D01*
X216283614Y-77603845D01*
X217210882Y-77603845D01*
X216285446Y-78575443D01*
X216274564Y-78587305D01*
X216265021Y-78599794D01*
X216256853Y-78612885D01*
X216250092Y-78626550D01*
X216244774Y-78640766D01*
X216240933Y-78655505D01*
X216238603Y-78670742D01*
X216237819Y-78686451D01*
X216237819Y-78894546D01*
X216239712Y-78912323D01*
X216245234Y-78927436D01*
X216254150Y-78939741D01*
X216266226Y-78949096D01*
X216281227Y-78955359D01*
X216298918Y-78958386D01*
X216306695Y-78958660D01*
X217669937Y-78958660D01*
X217684571Y-78956868D01*
X217698326Y-78950591D01*
X217709249Y-78938631D01*
X217714220Y-78924649D01*
X217715000Y-78915429D01*
X217715000Y-78682421D01*
X217712597Y-78666701D01*
X217704328Y-78652506D01*
X217690762Y-78643089D01*
X217675031Y-78639390D01*
X217669937Y-78639190D01*
X216745966Y-78639190D01*
X217667739Y-77659166D01*
X217678605Y-77647303D01*
X217688106Y-77634814D01*
X217696216Y-77621723D01*
X217702909Y-77608058D01*
X217708160Y-77593843D01*
X217711943Y-77579104D01*
X217714231Y-77563867D01*
X217715000Y-77548157D01*
X217715000Y-77340429D01*
X217713131Y-77322505D01*
X217707670Y-77307291D01*
X217698834Y-77294922D01*
X217686842Y-77285531D01*
X217671912Y-77279253D01*
X217654262Y-77276222D01*
X217646489Y-77275949D01*
X216283614Y-77275949D01*
G37*
G36*
X216283614Y-76648733D02*
G01*
X216267580Y-76651427D01*
X216254185Y-76658927D01*
X216244281Y-76670359D01*
X216238720Y-76684847D01*
X216237819Y-76694162D01*
X216237819Y-77027920D01*
X216240517Y-77044056D01*
X216248044Y-77057352D01*
X216259548Y-77067072D01*
X216274178Y-77072479D01*
X216283614Y-77073349D01*
X217669937Y-77073349D01*
X217684707Y-77071323D01*
X217698483Y-77064380D01*
X217708276Y-77053403D01*
X217713809Y-77039337D01*
X217715000Y-77027920D01*
X217715000Y-76694162D01*
X217712679Y-76678613D01*
X217705901Y-76665338D01*
X217694942Y-76655351D01*
X217680078Y-76649663D01*
X217669937Y-76648733D01*
X216283614Y-76648733D01*
G37*
G36*
X217674367Y-74673492D02*
G01*
X217690330Y-74677125D01*
X217704124Y-74686412D01*
X217712548Y-74700486D01*
X217715000Y-74716161D01*
X217715000Y-75035631D01*
X217713621Y-75045964D01*
X217706856Y-75059163D01*
X217695370Y-75069428D01*
X217682027Y-75075931D01*
X217410184Y-75173750D01*
X217410184Y-76047896D01*
X217682393Y-76143883D01*
X217690156Y-76147917D01*
X217702654Y-76157940D01*
X217711587Y-76170973D01*
X217715000Y-76186381D01*
X217715000Y-76444668D01*
X217714189Y-76454099D01*
X217709048Y-76468196D01*
X217697858Y-76480046D01*
X217683906Y-76486170D01*
X217669204Y-76487899D01*
X217639528Y-76487899D01*
X217635181Y-76487819D01*
X217618566Y-76486027D01*
X217602569Y-76482270D01*
X217588431Y-76477774D01*
X217573583Y-76472512D01*
X216288011Y-76010526D01*
X216277229Y-76005487D01*
X216265238Y-75996056D01*
X216255120Y-75984193D01*
X216247108Y-75971022D01*
X216240604Y-75955073D01*
X216237819Y-75938719D01*
X216237819Y-75697285D01*
X216481817Y-75697285D01*
X216486580Y-75709009D01*
X217179009Y-75963632D01*
X217179009Y-75258381D01*
X216484748Y-75512637D01*
X216481817Y-75520697D01*
X216481817Y-75697285D01*
X216237819Y-75697285D01*
X216237819Y-75222477D01*
X216238712Y-75209654D01*
X216242239Y-75195079D01*
X216249750Y-75179808D01*
X216260524Y-75167068D01*
X216274228Y-75156975D01*
X216287644Y-75150669D01*
X217573583Y-74688684D01*
X217577930Y-74687123D01*
X217592519Y-74682044D01*
X217608548Y-74677319D01*
X217624680Y-74674239D01*
X217639528Y-74673297D01*
X217669204Y-74673297D01*
X217674367Y-74673492D01*
G37*
G36*
X216283614Y-72842941D02*
G01*
X216268913Y-72844733D01*
X216254960Y-72851009D01*
X216243770Y-72862969D01*
X216238629Y-72876951D01*
X216237819Y-72886172D01*
X216237819Y-73125774D01*
X216239628Y-73140408D01*
X216246059Y-73154163D01*
X216258572Y-73165086D01*
X216273547Y-73170058D01*
X216283614Y-73170837D01*
X217210882Y-73170837D01*
X216285446Y-74142435D01*
X216274564Y-74154297D01*
X216265021Y-74166787D01*
X216256853Y-74179877D01*
X216250092Y-74193543D01*
X216244774Y-74207758D01*
X216240933Y-74222497D01*
X216238603Y-74237734D01*
X216237819Y-74253443D01*
X216237819Y-74461538D01*
X216239712Y-74479316D01*
X216245234Y-74494428D01*
X216254150Y-74506733D01*
X216266226Y-74516089D01*
X216281227Y-74522351D01*
X216298918Y-74525379D01*
X216306695Y-74525652D01*
X217669937Y-74525652D01*
X217684571Y-74523860D01*
X217698326Y-74517584D01*
X217709249Y-74505624D01*
X217714220Y-74491642D01*
X217715000Y-74482421D01*
X217715000Y-74249413D01*
X217712597Y-74233693D01*
X217704328Y-74219498D01*
X217690762Y-74210081D01*
X217675031Y-74206382D01*
X217669937Y-74206182D01*
X216745966Y-74206182D01*
X217667739Y-73226158D01*
X217678605Y-73214295D01*
X217688106Y-73201806D01*
X217696216Y-73188716D01*
X217702909Y-73175050D01*
X217708160Y-73160835D01*
X217711943Y-73146096D01*
X217714231Y-73130859D01*
X217715000Y-73115150D01*
X217715000Y-72907421D01*
X217713131Y-72889497D01*
X217707670Y-72874284D01*
X217698834Y-72861914D01*
X217686842Y-72852524D01*
X217671912Y-72846245D01*
X217654262Y-72843214D01*
X217646489Y-72842941D01*
X216283614Y-72842941D01*
G37*
G36*
X217321823Y-70920543D02*
G01*
X217337553Y-70924108D01*
X217351370Y-70932193D01*
X217362923Y-70942609D01*
X217682027Y-71278199D01*
X217691159Y-71287621D01*
X217700311Y-71300993D01*
X217707370Y-71316386D01*
X217711558Y-71330580D01*
X217714127Y-71345865D01*
X217715000Y-71362096D01*
X217715000Y-72584654D01*
X217713712Y-72600604D01*
X217708596Y-72618123D01*
X217699778Y-72632721D01*
X217687469Y-72644145D01*
X217671877Y-72652145D01*
X217657182Y-72655910D01*
X217640628Y-72657194D01*
X216310725Y-72657194D01*
X216294760Y-72655910D01*
X216277186Y-72650831D01*
X216262510Y-72642126D01*
X216251000Y-72630047D01*
X216242925Y-72614845D01*
X216239118Y-72600604D01*
X216237819Y-72584654D01*
X216237819Y-72216824D01*
X216481817Y-72216824D01*
X216485435Y-72231158D01*
X216499769Y-72234776D01*
X217447187Y-72234776D01*
X217455009Y-72234421D01*
X217468643Y-72227478D01*
X217471367Y-72212794D01*
X217471367Y-71555537D01*
X217470691Y-71545101D01*
X217466483Y-71530014D01*
X217457812Y-71517435D01*
X217303939Y-71355868D01*
X217300556Y-71352761D01*
X217287427Y-71344986D01*
X217272431Y-71342313D01*
X216643018Y-71342313D01*
X216627905Y-71344740D01*
X216615540Y-71354036D01*
X216497571Y-71473471D01*
X216489743Y-71483150D01*
X216483565Y-71497728D01*
X216481817Y-71513405D01*
X216481817Y-72216824D01*
X216237819Y-72216824D01*
X216237819Y-71286625D01*
X216237854Y-71283106D01*
X216239072Y-71266073D01*
X216241971Y-71250023D01*
X216246474Y-71235014D01*
X216252507Y-71221105D01*
X216259994Y-71208355D01*
X216270792Y-71194668D01*
X216518087Y-70942976D01*
X216527020Y-70934276D01*
X216541077Y-70925940D01*
X216555491Y-70921440D01*
X216571210Y-70919895D01*
X217306137Y-70919895D01*
X217321823Y-70920543D01*
G37*
G36*
X216283248Y-69217766D02*
G01*
X216266525Y-69220214D01*
X216253207Y-69227251D01*
X216242747Y-69240321D01*
X216238276Y-69255641D01*
X216237819Y-69263196D01*
X216237819Y-70472930D01*
X216239268Y-70489324D01*
X216243525Y-70504784D01*
X216250451Y-70519219D01*
X216259908Y-70532536D01*
X216266395Y-70539609D01*
X216459836Y-70741109D01*
X216471571Y-70750841D01*
X216484748Y-70757962D01*
X216499300Y-70762335D01*
X216515157Y-70763824D01*
X217372449Y-70763824D01*
X217387876Y-70762335D01*
X217402170Y-70757962D01*
X217415159Y-70750841D01*
X217426671Y-70741109D01*
X217688988Y-70463771D01*
X217697510Y-70451658D01*
X217705462Y-70436703D01*
X217711116Y-70421038D01*
X217714312Y-70404848D01*
X217715000Y-70393063D01*
X217715000Y-69260997D01*
X217712638Y-69244274D01*
X217705783Y-69230957D01*
X217692889Y-69220497D01*
X217677567Y-69216026D01*
X217669937Y-69215568D01*
X217516430Y-69215568D01*
X217501796Y-69217375D01*
X217488041Y-69223784D01*
X217477118Y-69236218D01*
X217472146Y-69251051D01*
X217471367Y-69260997D01*
X217471367Y-70168115D01*
X217468986Y-70183274D01*
X217460010Y-70195959D01*
X217335080Y-70330415D01*
X217322761Y-70339070D01*
X217307969Y-70341406D01*
X217081922Y-70341406D01*
X217081922Y-69277850D01*
X217079583Y-69261127D01*
X217072889Y-69247809D01*
X217060525Y-69237349D01*
X217046125Y-69232879D01*
X217039057Y-69232421D01*
X216889947Y-69232421D01*
X216874081Y-69234869D01*
X216859886Y-69243258D01*
X216850552Y-69256954D01*
X216846912Y-69272751D01*
X216846716Y-69277850D01*
X216846716Y-70341406D01*
X216617372Y-70341406D01*
X216602397Y-70339508D01*
X216588911Y-70331565D01*
X216587330Y-70330048D01*
X216493541Y-70233695D01*
X216484593Y-70222030D01*
X216481817Y-70208049D01*
X216481817Y-69263196D01*
X216479475Y-69246472D01*
X216472754Y-69233155D01*
X216460302Y-69222695D01*
X216445748Y-69218224D01*
X216438586Y-69217766D01*
X216283248Y-69217766D01*
G37*
G36*
X216283248Y-67444197D02*
G01*
X216266525Y-67446559D01*
X216253207Y-67453414D01*
X216242747Y-67466308D01*
X216238276Y-67481630D01*
X216237819Y-67489260D01*
X216237819Y-68772634D01*
X216238886Y-68787827D01*
X216242031Y-68802367D01*
X216248208Y-68818256D01*
X216256956Y-68832702D01*
X216266395Y-68843709D01*
X216436388Y-69023960D01*
X216446811Y-69036588D01*
X216457943Y-69048013D01*
X216470495Y-69057497D01*
X216485178Y-69064300D01*
X216499552Y-69067388D01*
X216509295Y-69067923D01*
X216813377Y-69067923D01*
X216830450Y-69067218D01*
X216845480Y-69064755D01*
X216861419Y-69058963D01*
X216874558Y-69050901D01*
X216887993Y-69039429D01*
X216890314Y-69037149D01*
X217064337Y-68879612D01*
X217074034Y-68867854D01*
X217080944Y-68853432D01*
X217084278Y-68838782D01*
X217084853Y-68829420D01*
X217084853Y-67954176D01*
X217088081Y-67939504D01*
X217095040Y-67926071D01*
X217098775Y-67921936D01*
X217180474Y-67840237D01*
X217191465Y-67830711D01*
X217357794Y-67830711D01*
X217372432Y-67833487D01*
X217384173Y-67842435D01*
X217458911Y-67912777D01*
X217466382Y-67925501D01*
X217470528Y-67940381D01*
X217471367Y-67953443D01*
X217471367Y-69047773D01*
X217473729Y-69063346D01*
X217481910Y-69077543D01*
X217495445Y-69087043D01*
X217511275Y-69090801D01*
X217516430Y-69091004D01*
X217669937Y-69091004D01*
X217684571Y-69089212D01*
X217698326Y-69082936D01*
X217709249Y-69070976D01*
X217714220Y-69056994D01*
X217715000Y-69047773D01*
X217715000Y-67724466D01*
X217713782Y-67708011D01*
X217710208Y-67691744D01*
X217704393Y-67675854D01*
X217696452Y-67660529D01*
X217688295Y-67648326D01*
X217682759Y-67641301D01*
X217497745Y-67447861D01*
X217486575Y-67438251D01*
X217472449Y-67429384D01*
X217457231Y-67423149D01*
X217441014Y-67419662D01*
X217428869Y-67418918D01*
X217094745Y-67418918D01*
X217077991Y-67420342D01*
X217061480Y-67424629D01*
X217047625Y-67430599D01*
X217034139Y-67438705D01*
X217021106Y-67448960D01*
X216857341Y-67602833D01*
X216846509Y-67615293D01*
X216837615Y-67629411D01*
X216830817Y-67644909D01*
X216826274Y-67661514D01*
X216824147Y-67678949D01*
X216824002Y-67684898D01*
X216824002Y-68539626D01*
X216819365Y-68553846D01*
X216815209Y-68558677D01*
X216734975Y-68642575D01*
X216722824Y-68651011D01*
X216716657Y-68651734D01*
X216599787Y-68651734D01*
X216584726Y-68649542D01*
X216571516Y-68641366D01*
X216567180Y-68636713D01*
X216497205Y-68563073D01*
X216488119Y-68551368D01*
X216482910Y-68537407D01*
X216481817Y-68524972D01*
X216481817Y-67489260D01*
X216479434Y-67472582D01*
X216472635Y-67459368D01*
X216460139Y-67449040D01*
X216445663Y-67444646D01*
X216438586Y-67444197D01*
X216283248Y-67444197D01*
G37*
D15*
%TO.P,DRV 8833,1,GND*%
%TO.N,GND*%
X153169999Y-64549999D03*
%TO.P,DRV 8833,2,VIN*%
%TO.N,VIN M*%
X153169999Y-67089999D03*
%TO.P,DRV 8833,3,OUT_B1*%
%TO.N,unconnected-(DM_2-OUT_B1-Pad3)*%
X153169999Y-69629999D03*
%TO.P,DRV 8833,4,OUT_B2*%
%TO.N,unconnected-(DM_2-OUT_B2-Pad4)*%
X153169999Y-72169999D03*
%TO.P,DRV 8833,5,OUT_A2*%
%TO.N,OUT A1*%
X153169999Y-74709999D03*
%TO.P,DRV 8833,6,OUT_A1*%
%TO.N,OUT A2*%
X153169999Y-77249999D03*
%TO.P,DRV 8833,7,AISEN*%
%TO.N,unconnected-(DM_2-AISEN-Pad7)*%
X153169999Y-79789999D03*
%TO.P,DRV 8833,8,BISEN*%
%TO.N,unconnected-(DM_2-BISEN-Pad8)*%
X153169999Y-82329999D03*
%TO.P,DRV 8833,9,GND*%
%TO.N,GND*%
X163329999Y-64549999D03*
%TO.P,DRV 8833,10,VMM*%
%TO.N,unconnected-(DM_2-VMM-Pad10)*%
X163329999Y-67089999D03*
%TO.P,DRV 8833,11,IN_B1*%
%TO.N,unconnected-(DM_2-IN_B1-Pad11)*%
X163329999Y-69629999D03*
%TO.P,DRV 8833,12,IN_B2*%
%TO.N,unconnected-(DM_2-IN_B2-Pad12)*%
X163329999Y-72169999D03*
%TO.P,DRV 8833,13,IN_A2*%
%TO.N,MOTOR A1*%
X163329999Y-74709999D03*
%TO.P,DRV 8833,14,IN_A1*%
%TO.N,MOTOR A2*%
X163329999Y-77249999D03*
%TO.P,DRV 8833,15,SPL*%
%TO.N,unconnected-(DM_2-SPL-Pad15)*%
X163329999Y-79789999D03*
%TO.P,DRV 8833,16,FTL*%
%TO.N,unconnected-(DM_2-FTL-Pad16)*%
X163329999Y-82329999D03*
%TD*%
D16*
%TO.P,D5,1,K*%
%TO.N,Net-(D5-K)*%
X131620000Y-79380000D03*
%TO.P,D5,2,A*%
%TO.N,GPIO 14*%
X128820000Y-79380000D03*
%TD*%
D17*
%TO.P,C1,1*%
%TO.N,VIN M*%
X154800000Y-88860000D03*
%TO.P,C1,2*%
%TO.N,GND*%
X149200000Y-88860000D03*
%TD*%
D18*
%TO.P,J3,1,Pin_1*%
%TO.N,GND*%
X208139999Y-55569999D03*
D19*
%TO.P,J3,2,Pin_2*%
%TO.N,+5V*%
X205599999Y-55569999D03*
%TO.P,J3,3,Pin_3*%
%TO.N,GPIO 5*%
X203059999Y-55569999D03*
%TD*%
D16*
%TO.P,D4,1,K*%
%TO.N,Net-(D4-K)*%
X161730000Y-59500000D03*
%TO.P,D4,2,A*%
%TO.N,GPIO 19*%
X158930000Y-59500000D03*
%TD*%
D18*
%TO.P,J6,1,Pin_1*%
%TO.N,GND*%
X162619999Y-56069999D03*
D19*
%TO.P,J6,2,Pin_2*%
%TO.N,+5V*%
X160079999Y-56069999D03*
%TO.P,J6,3,Pin_3*%
%TO.N,GPIO 19*%
X157539999Y-56069999D03*
%TD*%
D18*
%TO.P,SW1,1,A*%
%TO.N,Net-(J1-Pin_1)*%
X159549999Y-92314999D03*
D19*
%TO.P,SW1,2,B*%
%TO.N,Net-(D7-K)*%
X159549999Y-89774999D03*
%TO.P,SW1,3,C*%
%TO.N,unconnected-(SW1-C-Pad3)*%
X159549999Y-87234999D03*
%TD*%
D20*
%TO.P,H1,1*%
%TO.N,N/C*%
X125027056Y-55687056D03*
X125730000Y-53990000D03*
X125730000Y-57384112D03*
X127427056Y-53287056D03*
D21*
X127427056Y-55687056D03*
D20*
X127427056Y-58087056D03*
X129124112Y-53990000D03*
X129124112Y-57384112D03*
X129827056Y-55687056D03*
%TD*%
D22*
%TO.P,D7,1,K*%
%TO.N,Net-(D7-K)*%
X164049999Y-85689999D03*
D23*
%TO.P,D7,2,A*%
%TO.N,VCC*%
X164049999Y-93309999D03*
%TD*%
D16*
%TO.P,D9,1,K*%
%TO.N,Net-(D9-K)*%
X173600000Y-59440000D03*
%TO.P,D9,2,A*%
%TO.N,GPIO 13*%
X170800000Y-59440000D03*
%TD*%
D24*
%TO.P,J12,1,Pin_1*%
%TO.N,OUT B1*%
X135524999Y-97449999D03*
D25*
%TO.P,J12,2,Pin_2*%
%TO.N,OUT B2*%
X139025000Y-97450000D03*
%TD*%
D16*
%TO.P,D6,1,K*%
%TO.N,Net-(D6-K)*%
X196140000Y-59260000D03*
%TO.P,D6,2,A*%
%TO.N,GPIO 23*%
X193340000Y-59260000D03*
%TD*%
D18*
%TO.P,J10,1,Pin_1*%
%TO.N,SDA*%
X129189999Y-63909999D03*
D19*
%TO.P,J10,2,Pin_2*%
X131729999Y-63909999D03*
%TO.P,J10,3,Pin_3*%
%TO.N,SCL*%
X129189999Y-66449999D03*
%TO.P,J10,4,Pin_4*%
X131729999Y-66449999D03*
%TO.P,J10,5,Pin_5*%
%TO.N,+5V*%
X129189999Y-68989999D03*
%TO.P,J10,6,Pin_6*%
X131729999Y-68989999D03*
%TO.P,J10,7,Pin_7*%
%TO.N,GND*%
X129189999Y-71529999D03*
%TO.P,J10,8,Pin_8*%
X131729999Y-71529999D03*
%TD*%
D18*
%TO.P,J5,1,Pin_1*%
%TO.N,GND*%
X151499999Y-56069999D03*
D19*
%TO.P,J5,2,Pin_2*%
%TO.N,+5V*%
X148959999Y-56069999D03*
%TO.P,J5,3,Pin_3*%
%TO.N,GPIO 18*%
X146419999Y-56069999D03*
%TD*%
D26*
%TO.P,U3,1,VI*%
%TO.N,VCC*%
X177679999Y-93479999D03*
D27*
%TO.P,U3,2,GND*%
%TO.N,GND*%
X183979999Y-95759999D03*
D26*
%TO.P,U3,3,VO*%
%TO.N,+5V*%
X177679999Y-98039999D03*
%TD*%
D22*
%TO.P,D2,1,K*%
%TO.N,Net-(D1-K)*%
X137514999Y-91024999D03*
D23*
%TO.P,D2,2,A*%
%TO.N,GND*%
X145134999Y-91024999D03*
%TD*%
D15*
%TO.P,DRV 8833,1,GND*%
%TO.N,GND*%
X138839999Y-64549999D03*
%TO.P,DRV 8833,2,VIN*%
%TO.N,VIN M*%
X138839999Y-67089999D03*
%TO.P,DRV 8833,3,OUT_B1*%
%TO.N,OUT B1*%
X138839999Y-69629999D03*
%TO.P,DRV 8833,4,OUT_B2*%
%TO.N,OUT B2*%
X138839999Y-72169999D03*
%TO.P,DRV 8833,5,OUT_A2*%
%TO.N,unconnected-(DM_1-OUT_A2-Pad5)*%
X138839999Y-74709999D03*
%TO.P,DRV 8833,6,OUT_A1*%
%TO.N,unconnected-(DM_1-OUT_A1-Pad6)*%
X138839999Y-77249999D03*
%TO.P,DRV 8833,7,AISEN*%
%TO.N,unconnected-(DM_1-AISEN-Pad7)*%
X138839999Y-79789999D03*
%TO.P,DRV 8833,8,BISEN*%
%TO.N,unconnected-(DM_1-BISEN-Pad8)*%
X138839999Y-82329999D03*
%TO.P,DRV 8833,9,GND*%
%TO.N,GND*%
X148999999Y-64549999D03*
%TO.P,DRV 8833,10,VMM*%
%TO.N,unconnected-(DM_1-VMM-Pad10)*%
X148999999Y-67089999D03*
%TO.P,DRV 8833,11,IN_B1*%
%TO.N,MOTOR B1*%
X148999999Y-69629999D03*
%TO.P,DRV 8833,12,IN_B2*%
%TO.N,MOTOR B2*%
X148999999Y-72169999D03*
%TO.P,DRV 8833,13,IN_A2*%
%TO.N,unconnected-(DM_1-IN_A2-Pad13)*%
X148999999Y-74709999D03*
%TO.P,DRV 8833,14,IN_A1*%
%TO.N,unconnected-(DM_1-IN_A1-Pad14)*%
X148999999Y-77249999D03*
%TO.P,DRV 8833,15,SPL*%
%TO.N,unconnected-(DM_1-SPL-Pad15)*%
X148999999Y-79789999D03*
%TO.P,DRV 8833,16,FTL*%
%TO.N,unconnected-(DM_1-FTL-Pad16)*%
X148999999Y-82329999D03*
%TD*%
D20*
%TO.P,H4,1*%
%TO.N,N/C*%
X213022944Y-98882944D03*
X213725888Y-97185888D03*
X213725888Y-100580000D03*
X215422944Y-96482944D03*
D21*
X215422944Y-98882944D03*
D20*
X215422944Y-101282944D03*
X217120000Y-97185888D03*
X217120000Y-100580000D03*
X217822944Y-98882944D03*
%TD*%
D28*
%TO.P,J1,1,Pin_2*%
%TO.N,GND*%
X162374999Y-98524999D03*
D29*
%TO.P,J1,2,Pin_1*%
%TO.N,Net-(J1-Pin_1)*%
X157375000Y-98525000D03*
%TD*%
D18*
%TO.P,J4,1,Pin_1*%
%TO.N,GND*%
X174179999Y-55899999D03*
D19*
%TO.P,J4,2,Pin_2*%
%TO.N,+5V*%
X171639999Y-55899999D03*
%TO.P,J4,3,Pin_3*%
%TO.N,GPIO 13*%
X169099999Y-55899999D03*
%TD*%
D16*
%TO.P,D3,1,K*%
%TO.N,Net-(D3-K)*%
X139370000Y-59480000D03*
%TO.P,D3,2,A*%
%TO.N,GPIO 4*%
X136570000Y-59480000D03*
%TD*%
D30*
%TO.P,U1,1,3V3*%
%TO.N,+3V3*%
X208714999Y-64382499D03*
D31*
%TO.P,U1,2,GND*%
%TO.N,GND*%
X206175000Y-64382500D03*
%TO.P,U1,3,D15*%
%TO.N,unconnected-(U1-D15-Pad3)*%
X203635000Y-64382500D03*
%TO.P,U1,4,D2*%
%TO.N,unconnected-(U1-D2-Pad4)*%
X201095000Y-64382500D03*
%TO.P,U1,5,D4*%
%TO.N,GPIO 4*%
X198555000Y-64382500D03*
%TO.P,U1,6,RX2*%
%TO.N,unconnected-(U1-RX2-Pad6)*%
X196015000Y-64382500D03*
%TO.P,U1,7,TX2*%
%TO.N,unconnected-(U1-TX2-Pad7)*%
X193475000Y-64382500D03*
%TO.P,U1,8,D5*%
%TO.N,GPIO 5*%
X190935000Y-64382500D03*
%TO.P,U1,9,D18*%
%TO.N,GPIO 18*%
X188395000Y-64382500D03*
%TO.P,U1,10,D19*%
%TO.N,GPIO 19*%
X185855000Y-64382500D03*
%TO.P,U1,11,D21*%
%TO.N,SDA*%
X183315000Y-64382500D03*
%TO.P,U1,12,RX0*%
%TO.N,unconnected-(U1-RX0-Pad12)*%
X180775000Y-64382500D03*
%TO.P,U1,13,TX0*%
%TO.N,unconnected-(U1-TX0-Pad13)*%
X178235000Y-64382500D03*
%TO.P,U1,14,D22*%
%TO.N,SCL*%
X175695000Y-64382500D03*
%TO.P,U1,15,D23*%
%TO.N,GPIO 23*%
X173155000Y-64382500D03*
%TO.P,U1,16,EN*%
%TO.N,unconnected-(U1-EN-Pad16)*%
X173155000Y-89782500D03*
%TO.P,U1,17,VP*%
%TO.N,unconnected-(U1-VP-Pad17)*%
X175695000Y-89782500D03*
%TO.P,U1,18,VN*%
%TO.N,unconnected-(U1-VN-Pad18)*%
X178235000Y-89782500D03*
%TO.P,U1,19,D34*%
%TO.N,unconnected-(U1-D34-Pad19)*%
X180775000Y-89782500D03*
%TO.P,U1,20,D35*%
%TO.N,unconnected-(U1-D35-Pad20)*%
X183315000Y-89782500D03*
%TO.P,U1,21,D32*%
%TO.N,MOTOR B2*%
X185855000Y-89782500D03*
%TO.P,U1,22,D33*%
%TO.N,MOTOR B1*%
X188395000Y-89782500D03*
%TO.P,U1,23,D25*%
%TO.N,GPIO 25*%
X190935000Y-89782500D03*
%TO.P,U1,24,D26*%
%TO.N,MOTOR A2*%
X193475000Y-89782500D03*
%TO.P,U1,25,D27*%
%TO.N,MOTOR A1*%
X196015000Y-89782500D03*
%TO.P,U1,26,D14*%
%TO.N,GPIO 14*%
X198555000Y-89782500D03*
%TO.P,U1,27,D12*%
%TO.N,GPIO 12*%
X201095000Y-89782500D03*
%TO.P,U1,28,D13*%
%TO.N,GPIO 13*%
X203635000Y-89782500D03*
%TO.P,U1,29,GND*%
%TO.N,GND*%
X206175000Y-89782500D03*
%TO.P,U1,30,VIN*%
%TO.N,+5V*%
X208715000Y-89782500D03*
%TD*%
D32*
%TO.P,C3,1*%
%TO.N,VCC*%
X171175000Y-93925000D03*
%TO.P,C3,2*%
%TO.N,GND*%
X171175000Y-99525000D03*
%TD*%
D18*
%TO.P,J2,1,Pin_1*%
%TO.N,GND*%
X140429999Y-55919999D03*
D19*
%TO.P,J2,2,Pin_2*%
%TO.N,+5V*%
X137889999Y-55919999D03*
%TO.P,J2,3,Pin_3*%
%TO.N,GPIO 4*%
X135349999Y-55919999D03*
%TD*%
D18*
%TO.P,J8,1,Pin_1*%
%TO.N,GND*%
X185854999Y-55959999D03*
D19*
%TO.P,J8,2,Pin_2*%
%TO.N,+5V*%
X183314999Y-55959999D03*
%TO.P,J8,3,Pin_3*%
%TO.N,GPIO 25*%
X180774999Y-55959999D03*
%TD*%
D20*
%TO.P,H3,1*%
%TO.N,N/C*%
X213397056Y-55497056D03*
X214100000Y-53800000D03*
X214100000Y-57194112D03*
X215797056Y-53097056D03*
D21*
X215797056Y-55497056D03*
D20*
X215797056Y-57897056D03*
X217494112Y-53800000D03*
X217494112Y-57194112D03*
X218197056Y-55497056D03*
%TD*%
D22*
%TO.P,D1,1,K*%
%TO.N,Net-(D1-K)*%
X137614999Y-86424999D03*
D23*
%TO.P,D1,2,A*%
%TO.N,VIN M*%
X145234999Y-86424999D03*
%TD*%
D18*
%TO.P,J9,1,Pin_1*%
%TO.N,GPIO 14*%
X126419999Y-75909999D03*
D19*
%TO.P,J9,2,Pin_2*%
%TO.N,unconnected-(J9-Pin_2-Pad2)*%
X128959999Y-75909999D03*
%TO.P,J9,3,Pin_3*%
%TO.N,GND*%
X131499999Y-75909999D03*
%TO.P,J9,4,Pin_4*%
%TO.N,+5V*%
X134039999Y-75909999D03*
%TD*%
D20*
%TO.P,H2,1*%
%TO.N,N/C*%
X125197056Y-97952944D03*
X125900000Y-96255888D03*
X125900000Y-99650000D03*
X127597056Y-95552944D03*
D21*
X127597056Y-97952944D03*
D20*
X127597056Y-100352944D03*
X129294112Y-96255888D03*
X129294112Y-99650000D03*
X129997056Y-97952944D03*
%TD*%
D31*
%TO.P,J13,1,Pin_1*%
%TO.N,GPIO 12*%
X199380000Y-93550000D03*
X205880000Y-93550000D03*
%TO.P,J13,2,Pin_2*%
%TO.N,GND*%
X199380000Y-98050000D03*
X205880000Y-98050000D03*
%TD*%
D24*
%TO.P,J11,1,Pin_1*%
%TO.N,OUT A1*%
X145224999Y-97574999D03*
D25*
%TO.P,J11,2,Pin_2*%
%TO.N,OUT A2*%
X148725000Y-97575000D03*
%TD*%
D33*
%TO.P,C4,1*%
%TO.N,+5V*%
X193220000Y-99610000D03*
%TO.P,C4,2*%
%TO.N,GND*%
X193220000Y-94010000D03*
%TD*%
D18*
%TO.P,J7,1,Pin_1*%
%TO.N,GND*%
X197039999Y-55599999D03*
D19*
%TO.P,J7,2,Pin_2*%
%TO.N,+5V*%
X194499999Y-55599999D03*
%TO.P,J7,3,Pin_3*%
%TO.N,GPIO 23*%
X191959999Y-55599999D03*
%TD*%
D16*
%TO.P,D8,1,K*%
%TO.N,Net-(D8-K)*%
X207120000Y-59330000D03*
%TO.P,D8,2,A*%
%TO.N,GPIO 5*%
X204320000Y-59330000D03*
%TD*%
%TO.P,D11,1,K*%
%TO.N,Net-(D11-K)*%
X185600000Y-59450000D03*
%TO.P,D11,2,A*%
%TO.N,GPIO 25*%
X182800000Y-59450000D03*
%TD*%
%TO.P,D10,1,K*%
%TO.N,Net-(D10-K)*%
X150160000Y-59500000D03*
%TO.P,D10,2,A*%
%TO.N,GPIO 18*%
X147360000Y-59500000D03*
%TD*%
D34*
%TO.P,U2,1,VOUT_+*%
%TO.N,VIN M*%
X176639999Y-73219999D03*
%TO.P,U2,2,VOUT_-*%
%TO.N,GND*%
X176639999Y-79669999D03*
%TO.P,U2,3,VIN_-*%
X207639999Y-79669999D03*
%TO.P,U2,4,VIN_+*%
%TO.N,VCC*%
X207639999Y-73169999D03*
%TD*%
D35*
%TO.N,GND*%
X147360000Y-88860000D03*
X194600000Y-94010000D03*
X169770000Y-99540000D03*
D36*
X187600000Y-95700000D03*
X184140000Y-92330000D03*
X187000000Y-92690000D03*
X187620000Y-97900000D03*
%TO.N,Net-(D3-K)*%
X141000000Y-59470000D03*
%TO.N,GPIO 4*%
X198480000Y-61550000D03*
%TO.N,Net-(D4-K)*%
X163400000Y-59580000D03*
%TO.N,Net-(D6-K)*%
X197960000Y-59240000D03*
%TO.N,Net-(D8-K)*%
X208700000Y-59350000D03*
%TO.N,Net-(D9-K)*%
X175070000Y-59450000D03*
%TO.N,GPIO 13*%
X198660000Y-83340000D03*
%TO.N,Net-(D10-K)*%
X151800000Y-59520000D03*
%TO.N,GPIO 18*%
X188950000Y-57660000D03*
%TO.N,Net-(D11-K)*%
X187410000Y-59440000D03*
%TO.N,GPIO 25*%
X191800000Y-81930000D03*
%TO.N,GPIO 12*%
X201040000Y-93030000D03*
%TO.N,Net-(D5-K)*%
X134720000Y-59580000D03*
%TD*%
D37*
%TO.N,VIN M*%
X154775000Y-86305000D02*
X154775000Y-88825000D01*
X154655000Y-86425000D02*
X145235000Y-86425000D01*
X140200000Y-67090000D02*
X138840000Y-67090000D01*
X141770000Y-83930000D02*
X141770000Y-68660000D01*
X159120000Y-62820000D02*
X159100000Y-62820000D01*
X165860000Y-68750000D02*
X170330000Y-73220000D01*
X170330000Y-73220000D02*
X176640000Y-73220000D01*
X159120000Y-62820000D02*
X159910000Y-62030000D01*
X165860000Y-64100000D02*
X165860000Y-68750000D01*
X154830000Y-67090000D02*
X153170000Y-67090000D01*
X159120000Y-81960000D02*
X154775000Y-86305000D01*
X145235000Y-86425000D02*
X144265000Y-86425000D01*
X154775000Y-86305000D02*
X154655000Y-86425000D01*
X141770000Y-68660000D02*
X140200000Y-67090000D01*
X159100000Y-62820000D02*
X154830000Y-67090000D01*
X163790000Y-62030000D02*
X165860000Y-64100000D01*
X159120000Y-62820000D02*
X159120000Y-81960000D01*
X144265000Y-86425000D02*
X141770000Y-83930000D01*
X159910000Y-62030000D02*
X163790000Y-62030000D01*
%TO.N,GND*%
X187610000Y-93240000D02*
X187610000Y-94840000D01*
D38*
X194600000Y-94010000D02*
X193220000Y-94010000D01*
D37*
X187570000Y-96260000D02*
X186860000Y-96970000D01*
X183975000Y-92465000D02*
X184040000Y-92400000D01*
D38*
X171175000Y-99525000D02*
X169785000Y-99525000D01*
D37*
X187600000Y-97900000D02*
X187540000Y-97960000D01*
D38*
X169785000Y-99525000D02*
X169770000Y-99540000D01*
D37*
X185340000Y-95760000D02*
X187540000Y-97960000D01*
X186890000Y-96650000D02*
X183975000Y-96650000D01*
X187000000Y-92630000D02*
X186770000Y-92400000D01*
X186690000Y-95760000D02*
X183980000Y-95760000D01*
X187060000Y-92690000D02*
X187000000Y-92690000D01*
X183975000Y-96650000D02*
X183975000Y-92465000D01*
X185090000Y-95760000D02*
X183980000Y-95760000D01*
D38*
X149175000Y-88825000D02*
X147395000Y-88825000D01*
D37*
X187610000Y-93240000D02*
X185090000Y-95760000D01*
X183980000Y-95760000D02*
X185340000Y-95760000D01*
X187600000Y-95700000D02*
X187600000Y-94850000D01*
X187610000Y-94840000D02*
X187600000Y-94850000D01*
X187600000Y-94850000D02*
X186690000Y-95760000D01*
X187600000Y-95700000D02*
X187620000Y-95720000D01*
X184070000Y-92400000D02*
X184040000Y-92400000D01*
X184210000Y-92400000D02*
X184140000Y-92330000D01*
D38*
X147395000Y-88825000D02*
X147360000Y-88860000D01*
D37*
X184140000Y-92330000D02*
X184070000Y-92400000D01*
X187620000Y-95720000D02*
X187620000Y-97900000D01*
X186770000Y-92400000D02*
X184210000Y-92400000D01*
X187000000Y-92690000D02*
X187000000Y-92630000D01*
X187610000Y-93240000D02*
X187060000Y-92690000D01*
X187620000Y-97900000D02*
X187600000Y-97900000D01*
D38*
%TO.N,VCC*%
X164050000Y-93310000D02*
X164050000Y-91075785D01*
X201720000Y-82970000D02*
X201720000Y-76040000D01*
X204590000Y-73170000D02*
X207640000Y-73170000D01*
X164050000Y-91075785D02*
X169245785Y-85880000D01*
X198810000Y-85880000D02*
X201720000Y-82970000D01*
X169245785Y-85880000D02*
X198810000Y-85880000D01*
X201720000Y-76040000D02*
X204590000Y-73170000D01*
D39*
%TO.N,+5V*%
X210260000Y-61950000D02*
X213510000Y-65200000D01*
X180230000Y-100590000D02*
X207230000Y-100590000D01*
X202970000Y-61950000D02*
X210260000Y-61950000D01*
D40*
X127410000Y-68990000D02*
X126850000Y-68430000D01*
D39*
X201420000Y-58160000D02*
X201420000Y-60400000D01*
D40*
X131730000Y-68990000D02*
X134040000Y-71300000D01*
X131730000Y-68990000D02*
X129190000Y-68990000D01*
D39*
X213510000Y-88105000D02*
X210170000Y-91445000D01*
D40*
X129190000Y-68990000D02*
X127410000Y-68990000D01*
X131420000Y-57900000D02*
X133140000Y-57900000D01*
X126850000Y-62470000D02*
X131420000Y-57900000D01*
D39*
X213510000Y-65200000D02*
X213510000Y-88105000D01*
D37*
X193170000Y-98660000D02*
X193170000Y-100250000D01*
D40*
X126850000Y-68430000D02*
X126850000Y-62470000D01*
D39*
X201420000Y-60400000D02*
X202970000Y-61950000D01*
X207230000Y-100590000D02*
X210170000Y-97650000D01*
X210170000Y-97650000D02*
X210170000Y-91445000D01*
X210170000Y-91445000D02*
X208675000Y-89950000D01*
D40*
X134040000Y-71300000D02*
X134040000Y-75910000D01*
D39*
X177680000Y-98040000D02*
X180230000Y-100590000D01*
D41*
%TO.N,Net-(D3-K)*%
X139370000Y-59480000D02*
X140990000Y-59480000D01*
X140990000Y-59480000D02*
X141000000Y-59470000D01*
%TO.N,GPIO 4*%
X198515000Y-61585000D02*
X198515000Y-64550000D01*
X198480000Y-61550000D02*
X198515000Y-61585000D01*
X135350000Y-57040000D02*
X136570000Y-58260000D01*
X135350000Y-55920000D02*
X135350000Y-57040000D01*
X136570000Y-58260000D02*
X136570000Y-59480000D01*
%TO.N,Net-(D4-K)*%
X163320000Y-59500000D02*
X163400000Y-59580000D01*
X161730000Y-59500000D02*
X163320000Y-59500000D01*
%TO.N,GPIO 19*%
X157540000Y-58760000D02*
X158280000Y-59500000D01*
X158280000Y-59500000D02*
X158930000Y-59500000D01*
X157540000Y-56070000D02*
X157540000Y-58760000D01*
%TO.N,GPIO 14*%
X126420000Y-75910000D02*
X126420000Y-77700000D01*
X126420000Y-77700000D02*
X128100000Y-79380000D01*
X128100000Y-79380000D02*
X128820000Y-79380000D01*
%TO.N,Net-(D6-K)*%
X197940000Y-59260000D02*
X197960000Y-59240000D01*
X196140000Y-59260000D02*
X197940000Y-59260000D01*
D42*
%TO.N,GPIO 23*%
X193340000Y-60960000D02*
X193340000Y-59260000D01*
D41*
X191960000Y-58660000D02*
X192560000Y-59260000D01*
X192560000Y-59260000D02*
X193340000Y-59260000D01*
D42*
X174270000Y-62250000D02*
X173115000Y-63405000D01*
X192050000Y-62250000D02*
X193340000Y-60960000D01*
D41*
X191960000Y-55600000D02*
X191960000Y-58660000D01*
D42*
X192050000Y-62250000D02*
X174270000Y-62250000D01*
X173115000Y-63405000D02*
X173115000Y-64550000D01*
D38*
%TO.N,Net-(D7-K)*%
X161305000Y-89775000D02*
X164050000Y-87030000D01*
X164050000Y-87030000D02*
X164050000Y-85690000D01*
X159550000Y-89775000D02*
X161305000Y-89775000D01*
D41*
%TO.N,Net-(D8-K)*%
X208680000Y-59330000D02*
X208700000Y-59350000D01*
X207120000Y-59330000D02*
X208680000Y-59330000D01*
%TO.N,GPIO 5*%
X204320000Y-58030000D02*
X204320000Y-59330000D01*
X203060000Y-56770000D02*
X204320000Y-58030000D01*
X203060000Y-55570000D02*
X203060000Y-56770000D01*
%TO.N,Net-(D9-K)*%
X175060000Y-59440000D02*
X175070000Y-59450000D01*
X173600000Y-59440000D02*
X175060000Y-59440000D01*
D42*
%TO.N,GPIO 13*%
X177930000Y-69560000D02*
X171070000Y-69560000D01*
X171070000Y-69560000D02*
X167810000Y-66300000D01*
D41*
X169100000Y-55900000D02*
X169100000Y-59420000D01*
D42*
X170640000Y-59490000D02*
X169170000Y-59490000D01*
X167810000Y-60850000D02*
X169170000Y-59490000D01*
D41*
X169100000Y-59420000D02*
X169170000Y-59490000D01*
D42*
X198640000Y-83320000D02*
X191690000Y-83320000D01*
X191690000Y-83320000D02*
X177930000Y-69560000D01*
X198660000Y-83340000D02*
X198640000Y-83320000D01*
X167810000Y-66300000D02*
X167810000Y-60850000D01*
D41*
%TO.N,Net-(D10-K)*%
X151780000Y-59500000D02*
X151800000Y-59520000D01*
X150160000Y-59500000D02*
X151780000Y-59500000D01*
%TO.N,GPIO 18*%
X146420000Y-57240000D02*
X147360000Y-58180000D01*
X147360000Y-58180000D02*
X147360000Y-59500000D01*
D42*
X188960000Y-55860000D02*
X186510000Y-53410000D01*
X188950000Y-57660000D02*
X188960000Y-57650000D01*
X188960000Y-57650000D02*
X188960000Y-55860000D01*
D41*
X186290000Y-53190000D02*
X186510000Y-53410000D01*
X146420000Y-56070000D02*
X146420000Y-57240000D01*
X148080000Y-53190000D02*
X186290000Y-53190000D01*
X146420000Y-54850000D02*
X148080000Y-53190000D01*
X146420000Y-56070000D02*
X146420000Y-54850000D01*
D42*
%TO.N,Net-(D11-K)*%
X187400000Y-59450000D02*
X187410000Y-59440000D01*
X185600000Y-59450000D02*
X187400000Y-59450000D01*
%TO.N,GPIO 25*%
X173640000Y-61030000D02*
X182030000Y-61030000D01*
X184490000Y-73460000D02*
X184490000Y-73400000D01*
X171620000Y-63050000D02*
X173640000Y-61030000D01*
X174490000Y-68770000D02*
X171620000Y-65900000D01*
X184490000Y-73400000D02*
X179860000Y-68770000D01*
X191800000Y-80770000D02*
X184490000Y-73460000D01*
D41*
X181500000Y-59450000D02*
X182800000Y-59450000D01*
D42*
X171620000Y-65900000D02*
X171620000Y-63050000D01*
D41*
X180775000Y-58725000D02*
X181500000Y-59450000D01*
D42*
X182030000Y-61030000D02*
X182800000Y-60260000D01*
X179860000Y-68770000D02*
X174490000Y-68770000D01*
D41*
X180775000Y-55960000D02*
X180775000Y-58725000D01*
D42*
X182800000Y-60260000D02*
X182800000Y-59450000D01*
X191800000Y-81930000D02*
X191800000Y-80770000D01*
D41*
%TO.N,SDA*%
X129190000Y-63910000D02*
X131730000Y-63910000D01*
%TO.N,SCL*%
X129190000Y-66450000D02*
X131730000Y-66450000D01*
D38*
%TO.N,Net-(J1-Pin_1)*%
X157375000Y-96235000D02*
X157375000Y-98525000D01*
X159550000Y-94060000D02*
X157375000Y-96235000D01*
X159550000Y-92315000D02*
X159550000Y-94060000D01*
D42*
%TO.N,GPIO 12*%
X201560000Y-93550000D02*
X201040000Y-93030000D01*
X205880000Y-93550000D02*
X201560000Y-93550000D01*
D41*
%TO.N,Net-(D5-K)*%
X134700000Y-59600000D02*
X134720000Y-59580000D01*
X136010000Y-62930000D02*
X134700000Y-61620000D01*
X136010000Y-73890000D02*
X136010000Y-62930000D01*
X136010000Y-77560000D02*
X136010000Y-73890000D01*
X134150000Y-79380000D02*
X134170000Y-79400000D01*
X134170000Y-79400000D02*
X136010000Y-77560000D01*
X131620000Y-79380000D02*
X134150000Y-79380000D01*
X134700000Y-61620000D02*
X134700000Y-59600000D01*
%TD*%
%TA.AperFunction,Conductor*%
%TO.N,VCC*%
G36*
X166660360Y-91496962D02*
G01*
X166706225Y-91540454D01*
X166724695Y-91600903D01*
X166760000Y-92510000D01*
X179015759Y-92381304D01*
X179078000Y-92397305D01*
X179123873Y-92442315D01*
X179141055Y-92504243D01*
X179168941Y-95785416D01*
X179152759Y-95847725D01*
X179107518Y-95893524D01*
X179045412Y-95910469D01*
X165926210Y-95959901D01*
X165875992Y-95949484D01*
X163487002Y-94903067D01*
X163480000Y-94900000D01*
X163352694Y-94878620D01*
X162274793Y-94697598D01*
X162221404Y-94674864D01*
X162184204Y-94630329D01*
X162171340Y-94573748D01*
X162208308Y-91644062D01*
X162227386Y-91579528D01*
X162277365Y-91534461D01*
X162343522Y-91522138D01*
X162537283Y-91539753D01*
X166599018Y-91481728D01*
X166660360Y-91496962D01*
G37*
%TD.AperFunction*%
%TD*%
%TA.AperFunction,Conductor*%
%TO.N,+5V*%
G36*
X211675959Y-52096314D02*
G01*
X211721257Y-52140043D01*
X211739241Y-52200382D01*
X211725272Y-52261774D01*
X211665754Y-52375985D01*
X211450000Y-52790000D01*
X211450000Y-52804966D01*
X211450000Y-57906195D01*
X211433420Y-57968139D01*
X211388113Y-58013517D01*
X211326195Y-58030195D01*
X204784218Y-58040498D01*
X204726625Y-58026414D01*
X204682154Y-57987200D01*
X204667143Y-57947953D01*
X204664778Y-57948658D01*
X204661844Y-57938805D01*
X204660573Y-57928607D01*
X204657313Y-57921939D01*
X204656092Y-57914619D01*
X204632924Y-57871810D01*
X204630579Y-57867254D01*
X204609198Y-57823516D01*
X204603949Y-57818267D01*
X204600418Y-57811742D01*
X204564612Y-57778780D01*
X204560914Y-57775232D01*
X203495479Y-56709797D01*
X203465418Y-56661012D01*
X203460502Y-56603921D01*
X203481780Y-56550716D01*
X203524705Y-56512759D01*
X203646450Y-56447685D01*
X203656121Y-56439748D01*
X207089500Y-56439748D01*
X207090688Y-56445723D01*
X207090689Y-56445728D01*
X207096304Y-56473954D01*
X207101133Y-56498231D01*
X207107916Y-56508383D01*
X207107917Y-56508384D01*
X207136497Y-56551157D01*
X207145448Y-56564552D01*
X207211769Y-56608867D01*
X207270252Y-56620500D01*
X209003652Y-56620500D01*
X209009748Y-56620500D01*
X209068231Y-56608867D01*
X209134552Y-56564552D01*
X209178867Y-56498231D01*
X209190500Y-56439748D01*
X209190500Y-54700252D01*
X209178867Y-54641769D01*
X209134552Y-54575448D01*
X209123281Y-54567917D01*
X209078384Y-54537917D01*
X209078383Y-54537916D01*
X209068231Y-54531133D01*
X209056253Y-54528750D01*
X209056252Y-54528750D01*
X209015728Y-54520689D01*
X209015723Y-54520688D01*
X209009748Y-54519500D01*
X207270252Y-54519500D01*
X207264277Y-54520688D01*
X207264271Y-54520689D01*
X207223747Y-54528750D01*
X207223745Y-54528750D01*
X207211769Y-54531133D01*
X207201618Y-54537915D01*
X207201615Y-54537917D01*
X207155601Y-54568663D01*
X207155598Y-54568665D01*
X207145448Y-54575448D01*
X207138665Y-54585598D01*
X207138663Y-54585601D01*
X207107917Y-54631615D01*
X207107915Y-54631618D01*
X207101133Y-54641769D01*
X207098750Y-54653745D01*
X207098750Y-54653747D01*
X207090689Y-54694271D01*
X207090688Y-54694277D01*
X207089500Y-54700252D01*
X207089500Y-56439748D01*
X203656121Y-56439748D01*
X203806410Y-56316410D01*
X203937685Y-56156450D01*
X204035232Y-55973954D01*
X204095300Y-55775934D01*
X204115583Y-55570000D01*
X204095300Y-55364066D01*
X204035232Y-55166046D01*
X203937685Y-54983550D01*
X203806410Y-54823590D01*
X203785032Y-54806046D01*
X203656121Y-54700252D01*
X203646450Y-54692315D01*
X203619753Y-54678045D01*
X203469328Y-54597640D01*
X203469323Y-54597638D01*
X203463954Y-54594768D01*
X203400264Y-54575448D01*
X203271764Y-54536468D01*
X203271759Y-54536467D01*
X203265934Y-54534700D01*
X203259875Y-54534103D01*
X203259869Y-54534102D01*
X203066061Y-54515014D01*
X203060000Y-54514417D01*
X203053939Y-54515014D01*
X202860130Y-54534102D01*
X202860122Y-54534103D01*
X202854066Y-54534700D01*
X202848242Y-54536466D01*
X202848235Y-54536468D01*
X202661877Y-54592999D01*
X202661875Y-54592999D01*
X202656046Y-54594768D01*
X202650679Y-54597636D01*
X202650671Y-54597640D01*
X202478920Y-54689444D01*
X202478915Y-54689447D01*
X202473550Y-54692315D01*
X202468846Y-54696174D01*
X202468842Y-54696178D01*
X202318296Y-54819727D01*
X202318290Y-54819732D01*
X202313590Y-54823590D01*
X202309732Y-54828290D01*
X202309727Y-54828296D01*
X202186178Y-54978842D01*
X202186174Y-54978846D01*
X202182315Y-54983550D01*
X202179447Y-54988915D01*
X202179444Y-54988920D01*
X202087640Y-55160671D01*
X202087636Y-55160679D01*
X202084768Y-55166046D01*
X202082999Y-55171875D01*
X202082999Y-55171877D01*
X202026468Y-55358235D01*
X202026466Y-55358242D01*
X202024700Y-55364066D01*
X202024103Y-55370122D01*
X202024102Y-55370130D01*
X202010260Y-55510671D01*
X202004417Y-55570000D01*
X202005014Y-55576061D01*
X202024102Y-55769869D01*
X202024103Y-55769875D01*
X202024700Y-55775934D01*
X202026467Y-55781759D01*
X202026468Y-55781764D01*
X202064173Y-55906061D01*
X202084768Y-55973954D01*
X202087638Y-55979323D01*
X202087640Y-55979328D01*
X202162762Y-56119869D01*
X202182315Y-56156450D01*
X202186178Y-56161157D01*
X202298581Y-56298122D01*
X202313590Y-56316410D01*
X202473550Y-56447685D01*
X202535045Y-56480555D01*
X202643954Y-56538769D01*
X202691859Y-56584379D01*
X202709500Y-56648127D01*
X202709500Y-56720788D01*
X202707133Y-56743605D01*
X202707064Y-56745264D01*
X202704957Y-56755315D01*
X202706227Y-56765504D01*
X202706227Y-56765509D01*
X202708652Y-56784956D01*
X202709180Y-56790055D01*
X202709500Y-56793917D01*
X202709500Y-56799040D01*
X202710343Y-56804091D01*
X202712666Y-56818016D01*
X202713403Y-56823077D01*
X202715311Y-56838384D01*
X202719427Y-56871393D01*
X202722686Y-56878060D01*
X202723908Y-56885381D01*
X202728796Y-56894413D01*
X202728797Y-56894416D01*
X202747081Y-56928202D01*
X202749421Y-56932747D01*
X202770802Y-56976484D01*
X202776050Y-56981732D01*
X202779582Y-56988258D01*
X202787138Y-56995214D01*
X202787139Y-56995215D01*
X202815399Y-57021230D01*
X202819097Y-57024779D01*
X203625099Y-57830781D01*
X203655337Y-57880107D01*
X203659904Y-57937783D01*
X203637805Y-57991253D01*
X203593852Y-58028876D01*
X203537613Y-58042462D01*
X192434695Y-58059950D01*
X192372613Y-58043402D01*
X192327145Y-57998006D01*
X192310500Y-57935950D01*
X192310500Y-56678127D01*
X192328141Y-56614379D01*
X192376046Y-56568769D01*
X192451886Y-56528231D01*
X192546450Y-56477685D01*
X192556121Y-56469748D01*
X195989500Y-56469748D01*
X195990688Y-56475723D01*
X195990689Y-56475728D01*
X195995732Y-56501079D01*
X196001133Y-56528231D01*
X196007916Y-56538383D01*
X196007917Y-56538384D01*
X196038650Y-56584379D01*
X196045448Y-56594552D01*
X196111769Y-56638867D01*
X196170252Y-56650500D01*
X197903652Y-56650500D01*
X197909748Y-56650500D01*
X197968231Y-56638867D01*
X198034552Y-56594552D01*
X198078867Y-56528231D01*
X198090500Y-56469748D01*
X198090500Y-54730252D01*
X198078867Y-54671769D01*
X198034552Y-54605448D01*
X198004849Y-54585601D01*
X197978384Y-54567917D01*
X197978383Y-54567916D01*
X197968231Y-54561133D01*
X197956253Y-54558750D01*
X197956252Y-54558750D01*
X197915728Y-54550689D01*
X197915723Y-54550688D01*
X197909748Y-54549500D01*
X196170252Y-54549500D01*
X196164277Y-54550688D01*
X196164271Y-54550689D01*
X196123747Y-54558750D01*
X196123745Y-54558750D01*
X196111769Y-54561133D01*
X196101618Y-54567915D01*
X196101615Y-54567917D01*
X196055601Y-54598663D01*
X196055598Y-54598665D01*
X196045448Y-54605448D01*
X196038665Y-54615598D01*
X196038663Y-54615601D01*
X196007917Y-54661615D01*
X196007915Y-54661618D01*
X196001133Y-54671769D01*
X195998750Y-54683745D01*
X195998750Y-54683747D01*
X195990689Y-54724271D01*
X195990688Y-54724277D01*
X195989500Y-54730252D01*
X195989500Y-56469748D01*
X192556121Y-56469748D01*
X192706410Y-56346410D01*
X192837685Y-56186450D01*
X192935232Y-56003954D01*
X192995300Y-55805934D01*
X193015583Y-55600000D01*
X192995300Y-55394066D01*
X192935232Y-55196046D01*
X192837685Y-55013550D01*
X192706410Y-54853590D01*
X192546450Y-54722315D01*
X192511761Y-54703773D01*
X192369328Y-54627640D01*
X192369323Y-54627638D01*
X192363954Y-54624768D01*
X192300264Y-54605448D01*
X192171764Y-54566468D01*
X192171759Y-54566467D01*
X192165934Y-54564700D01*
X192159875Y-54564103D01*
X192159869Y-54564102D01*
X191966061Y-54545014D01*
X191960000Y-54544417D01*
X191953939Y-54545014D01*
X191760130Y-54564102D01*
X191760122Y-54564103D01*
X191754066Y-54564700D01*
X191748242Y-54566466D01*
X191748235Y-54566468D01*
X191561877Y-54622999D01*
X191561875Y-54622999D01*
X191556046Y-54624768D01*
X191550679Y-54627636D01*
X191550671Y-54627640D01*
X191378920Y-54719444D01*
X191378915Y-54719447D01*
X191373550Y-54722315D01*
X191368846Y-54726174D01*
X191368842Y-54726178D01*
X191218296Y-54849727D01*
X191218290Y-54849732D01*
X191213590Y-54853590D01*
X191209732Y-54858290D01*
X191209727Y-54858296D01*
X191086178Y-55008842D01*
X191086174Y-55008846D01*
X191082315Y-55013550D01*
X191079447Y-55018915D01*
X191079444Y-55018920D01*
X190987640Y-55190671D01*
X190987636Y-55190679D01*
X190984768Y-55196046D01*
X190982999Y-55201875D01*
X190982999Y-55201877D01*
X190926468Y-55388235D01*
X190926466Y-55388242D01*
X190924700Y-55394066D01*
X190924103Y-55400122D01*
X190924102Y-55400130D01*
X190908746Y-55556046D01*
X190904417Y-55600000D01*
X190905014Y-55606061D01*
X190924102Y-55799869D01*
X190924103Y-55799875D01*
X190924700Y-55805934D01*
X190926467Y-55811759D01*
X190926468Y-55811764D01*
X190959301Y-55920000D01*
X190984768Y-56003954D01*
X190987638Y-56009323D01*
X190987640Y-56009328D01*
X191068107Y-56159869D01*
X191082315Y-56186450D01*
X191213590Y-56346410D01*
X191373550Y-56477685D01*
X191445703Y-56516252D01*
X191543954Y-56568769D01*
X191591859Y-56614379D01*
X191609500Y-56678127D01*
X191609500Y-57937445D01*
X191592920Y-57999389D01*
X191547613Y-58044767D01*
X191485695Y-58061445D01*
X189618248Y-58064386D01*
X189559729Y-58049813D01*
X189515005Y-58009357D01*
X189494655Y-57952588D01*
X189503491Y-57892936D01*
X189535044Y-57816762D01*
X189555682Y-57660000D01*
X189535044Y-57503238D01*
X189474536Y-57357159D01*
X189378282Y-57231718D01*
X189334014Y-57197750D01*
X189298288Y-57154218D01*
X189285500Y-57099374D01*
X189285500Y-55879619D01*
X189285972Y-55868812D01*
X189286897Y-55858235D01*
X189289263Y-55831193D01*
X189279486Y-55794704D01*
X189277148Y-55784163D01*
X189270588Y-55746955D01*
X189265162Y-55737557D01*
X189263912Y-55734123D01*
X189262362Y-55730800D01*
X189259554Y-55720316D01*
X189237889Y-55689376D01*
X189232085Y-55680266D01*
X189213194Y-55647545D01*
X189204881Y-55640570D01*
X189204880Y-55640568D01*
X189184261Y-55623267D01*
X189176286Y-55615959D01*
X186847646Y-53287320D01*
X186823926Y-53254098D01*
X186803711Y-53212747D01*
X186803709Y-53212745D01*
X186799198Y-53203516D01*
X186572638Y-52976956D01*
X186558193Y-52959167D01*
X186557056Y-52957932D01*
X186551437Y-52949331D01*
X186527865Y-52930984D01*
X186523901Y-52927766D01*
X186520941Y-52925259D01*
X186517307Y-52921625D01*
X186505871Y-52913460D01*
X186501653Y-52910448D01*
X186497544Y-52907385D01*
X186467233Y-52883793D01*
X186459126Y-52877483D01*
X186452107Y-52875073D01*
X186446066Y-52870760D01*
X186436223Y-52867829D01*
X186436218Y-52867827D01*
X186399409Y-52856868D01*
X186394532Y-52855306D01*
X186358206Y-52842835D01*
X186358199Y-52842833D01*
X186348488Y-52839500D01*
X186341065Y-52839500D01*
X186333954Y-52837383D01*
X186323689Y-52837807D01*
X186323685Y-52837807D01*
X186285332Y-52839394D01*
X186280208Y-52839500D01*
X148129213Y-52839500D01*
X148106395Y-52837133D01*
X148104736Y-52837064D01*
X148094686Y-52834957D01*
X148084495Y-52836227D01*
X148084487Y-52836227D01*
X148065042Y-52838651D01*
X148059952Y-52839179D01*
X148056080Y-52839500D01*
X148050960Y-52839500D01*
X148045904Y-52840343D01*
X148045899Y-52840344D01*
X148031994Y-52842664D01*
X148026928Y-52843402D01*
X147988805Y-52848154D01*
X147988794Y-52848157D01*
X147978608Y-52849427D01*
X147971941Y-52852686D01*
X147964619Y-52853908D01*
X147955595Y-52858791D01*
X147955587Y-52858794D01*
X147921805Y-52877076D01*
X147917253Y-52879419D01*
X147882743Y-52896290D01*
X147882739Y-52896292D01*
X147873517Y-52900801D01*
X147868267Y-52906050D01*
X147861742Y-52909582D01*
X147854785Y-52917138D01*
X147854785Y-52917139D01*
X147828780Y-52945387D01*
X147825234Y-52949082D01*
X146206956Y-54567360D01*
X146189150Y-54581821D01*
X146187927Y-54582945D01*
X146179331Y-54588563D01*
X146173023Y-54596667D01*
X146173020Y-54596670D01*
X146161003Y-54612109D01*
X146157785Y-54616072D01*
X146155240Y-54619076D01*
X146151625Y-54622693D01*
X146148650Y-54626858D01*
X146148647Y-54626863D01*
X146140440Y-54638358D01*
X146137378Y-54642464D01*
X146113790Y-54672769D01*
X146113787Y-54672774D01*
X146107483Y-54680874D01*
X146105073Y-54687892D01*
X146100760Y-54693934D01*
X146097831Y-54703769D01*
X146097830Y-54703773D01*
X146086871Y-54740582D01*
X146085309Y-54745457D01*
X146072836Y-54781790D01*
X146072834Y-54781798D01*
X146069500Y-54791512D01*
X146069500Y-54798935D01*
X146067383Y-54806046D01*
X146067807Y-54816309D01*
X146067807Y-54816314D01*
X146069394Y-54854668D01*
X146069500Y-54859792D01*
X146069500Y-54991873D01*
X146051859Y-55055621D01*
X146003954Y-55101231D01*
X145838920Y-55189444D01*
X145838915Y-55189447D01*
X145833550Y-55192315D01*
X145828846Y-55196174D01*
X145828842Y-55196178D01*
X145678296Y-55319727D01*
X145678290Y-55319732D01*
X145673590Y-55323590D01*
X145669732Y-55328290D01*
X145669727Y-55328296D01*
X145546178Y-55478842D01*
X145546174Y-55478846D01*
X145542315Y-55483550D01*
X145539447Y-55488915D01*
X145539444Y-55488920D01*
X145447640Y-55660671D01*
X145447636Y-55660679D01*
X145444768Y-55666046D01*
X145442999Y-55671875D01*
X145442999Y-55671877D01*
X145386468Y-55858235D01*
X145386466Y-55858242D01*
X145384700Y-55864066D01*
X145384103Y-55870122D01*
X145384102Y-55870130D01*
X145371821Y-55994827D01*
X145364417Y-56070000D01*
X145365014Y-56076061D01*
X145384102Y-56269869D01*
X145384103Y-56269875D01*
X145384700Y-56275934D01*
X145386467Y-56281759D01*
X145386468Y-56281764D01*
X145406078Y-56346410D01*
X145444768Y-56473954D01*
X145447638Y-56479323D01*
X145447640Y-56479328D01*
X145539013Y-56650272D01*
X145542315Y-56656450D01*
X145586485Y-56710272D01*
X145647776Y-56784956D01*
X145673590Y-56816410D01*
X145833550Y-56947685D01*
X145892948Y-56979434D01*
X146003954Y-57038769D01*
X146051859Y-57084379D01*
X146069500Y-57148127D01*
X146069500Y-57190788D01*
X146067133Y-57213605D01*
X146067064Y-57215264D01*
X146064957Y-57225315D01*
X146066227Y-57235504D01*
X146066227Y-57235509D01*
X146068652Y-57254956D01*
X146069180Y-57260055D01*
X146069500Y-57263917D01*
X146069500Y-57269040D01*
X146070343Y-57274091D01*
X146072666Y-57288016D01*
X146073403Y-57293077D01*
X146079427Y-57341393D01*
X146082686Y-57348060D01*
X146083908Y-57355381D01*
X146088796Y-57364413D01*
X146088797Y-57364416D01*
X146107081Y-57398202D01*
X146109421Y-57402747D01*
X146130802Y-57446484D01*
X146136050Y-57451732D01*
X146139582Y-57458258D01*
X146147138Y-57465214D01*
X146147139Y-57465215D01*
X146175399Y-57491230D01*
X146179097Y-57494779D01*
X146590513Y-57906195D01*
X146917338Y-58233019D01*
X146948811Y-58286372D01*
X146950548Y-58348292D01*
X146922117Y-58403326D01*
X146870612Y-58437741D01*
X146780890Y-58469136D01*
X146780881Y-58469140D01*
X146772118Y-58472207D01*
X146764646Y-58477720D01*
X146764641Y-58477724D01*
X146670327Y-58547331D01*
X146670324Y-58547333D01*
X146662850Y-58552850D01*
X146657333Y-58560324D01*
X146657331Y-58560327D01*
X146587724Y-58654641D01*
X146587720Y-58654646D01*
X146582207Y-58662118D01*
X146579140Y-58670880D01*
X146579138Y-58670886D01*
X146539844Y-58783182D01*
X146539842Y-58783189D01*
X146537354Y-58790301D01*
X146536650Y-58797807D01*
X146536649Y-58797812D01*
X146534770Y-58817850D01*
X146534500Y-58820734D01*
X146534500Y-60179266D01*
X146534769Y-60182141D01*
X146534770Y-60182149D01*
X146536649Y-60202187D01*
X146536649Y-60202191D01*
X146537354Y-60209699D01*
X146539842Y-60216811D01*
X146539844Y-60216817D01*
X146579138Y-60329113D01*
X146579139Y-60329116D01*
X146582207Y-60337882D01*
X146587722Y-60345355D01*
X146587724Y-60345358D01*
X146630005Y-60402646D01*
X146662850Y-60447150D01*
X146772118Y-60527793D01*
X146900301Y-60572646D01*
X146930734Y-60575500D01*
X147786373Y-60575500D01*
X147789266Y-60575500D01*
X147819699Y-60572646D01*
X147947882Y-60527793D01*
X148057150Y-60447150D01*
X148137793Y-60337882D01*
X148182646Y-60209699D01*
X148185500Y-60179266D01*
X149334500Y-60179266D01*
X149334769Y-60182141D01*
X149334770Y-60182149D01*
X149336649Y-60202187D01*
X149336649Y-60202191D01*
X149337354Y-60209699D01*
X149339842Y-60216811D01*
X149339844Y-60216817D01*
X149379138Y-60329113D01*
X149379139Y-60329116D01*
X149382207Y-60337882D01*
X149387722Y-60345355D01*
X149387724Y-60345358D01*
X149430005Y-60402646D01*
X149462850Y-60447150D01*
X149572118Y-60527793D01*
X149700301Y-60572646D01*
X149730734Y-60575500D01*
X150586373Y-60575500D01*
X150589266Y-60575500D01*
X150619699Y-60572646D01*
X150747882Y-60527793D01*
X150857150Y-60447150D01*
X150937793Y-60337882D01*
X150982646Y-60209699D01*
X150985500Y-60179266D01*
X150985500Y-59974500D01*
X151002113Y-59912500D01*
X151047500Y-59867113D01*
X151109500Y-59850500D01*
X151235536Y-59850500D01*
X151290379Y-59863288D01*
X151333911Y-59899013D01*
X151366769Y-59941833D01*
X151371718Y-59948282D01*
X151497159Y-60044536D01*
X151643238Y-60105044D01*
X151800000Y-60125682D01*
X151956762Y-60105044D01*
X152102841Y-60044536D01*
X152228282Y-59948282D01*
X152324536Y-59822841D01*
X152385044Y-59676762D01*
X152405682Y-59520000D01*
X152390584Y-59405315D01*
X152386105Y-59371297D01*
X152386104Y-59371296D01*
X152385044Y-59363238D01*
X152324536Y-59217159D01*
X152228282Y-59091718D01*
X152102841Y-58995464D01*
X152061302Y-58978258D01*
X151964271Y-58938066D01*
X151964268Y-58938065D01*
X151956762Y-58934956D01*
X151948708Y-58933895D01*
X151948702Y-58933894D01*
X151808059Y-58915379D01*
X151800000Y-58914318D01*
X151791941Y-58915379D01*
X151651297Y-58933894D01*
X151651289Y-58933896D01*
X151643238Y-58934956D01*
X151635733Y-58938064D01*
X151635728Y-58938066D01*
X151504666Y-58992354D01*
X151504662Y-58992355D01*
X151497159Y-58995464D01*
X151490714Y-59000408D01*
X151490711Y-59000411D01*
X151378163Y-59086772D01*
X151378160Y-59086774D01*
X151371718Y-59091718D01*
X151366777Y-59098156D01*
X151366773Y-59098161D01*
X151364608Y-59100984D01*
X151321075Y-59136712D01*
X151266230Y-59149500D01*
X151109500Y-59149500D01*
X151047500Y-59132887D01*
X151002113Y-59087500D01*
X150985500Y-59025500D01*
X150985500Y-58823627D01*
X150985500Y-58820734D01*
X150982646Y-58790301D01*
X150937793Y-58662118D01*
X150923032Y-58642118D01*
X150862668Y-58560327D01*
X150857150Y-58552850D01*
X150830051Y-58532850D01*
X150755358Y-58477724D01*
X150755355Y-58477722D01*
X150747882Y-58472207D01*
X150739116Y-58469139D01*
X150739113Y-58469138D01*
X150626817Y-58429844D01*
X150626811Y-58429842D01*
X150619699Y-58427354D01*
X150612191Y-58426649D01*
X150612187Y-58426649D01*
X150592149Y-58424770D01*
X150592141Y-58424769D01*
X150589266Y-58424500D01*
X149730734Y-58424500D01*
X149727859Y-58424769D01*
X149727850Y-58424770D01*
X149707812Y-58426649D01*
X149707807Y-58426650D01*
X149700301Y-58427354D01*
X149693189Y-58429842D01*
X149693182Y-58429844D01*
X149580886Y-58469138D01*
X149580880Y-58469140D01*
X149572118Y-58472207D01*
X149564646Y-58477720D01*
X149564641Y-58477724D01*
X149470327Y-58547331D01*
X149470324Y-58547333D01*
X149462850Y-58552850D01*
X149457333Y-58560324D01*
X149457331Y-58560327D01*
X149387724Y-58654641D01*
X149387720Y-58654646D01*
X149382207Y-58662118D01*
X149379140Y-58670880D01*
X149379138Y-58670886D01*
X149339844Y-58783182D01*
X149339842Y-58783189D01*
X149337354Y-58790301D01*
X149336650Y-58797807D01*
X149336649Y-58797812D01*
X149334770Y-58817850D01*
X149334500Y-58820734D01*
X149334500Y-60179266D01*
X148185500Y-60179266D01*
X148185500Y-58820734D01*
X148182646Y-58790301D01*
X148137793Y-58662118D01*
X148123032Y-58642118D01*
X148062668Y-58560327D01*
X148057150Y-58552850D01*
X148030051Y-58532850D01*
X147955358Y-58477724D01*
X147955355Y-58477722D01*
X147947882Y-58472207D01*
X147939116Y-58469139D01*
X147939113Y-58469138D01*
X147849383Y-58437741D01*
X147819699Y-58427354D01*
X147812186Y-58426649D01*
X147808041Y-58425744D01*
X147757794Y-58402028D01*
X147722948Y-58358750D01*
X147710500Y-58304600D01*
X147710500Y-58229212D01*
X147712866Y-58206394D01*
X147712934Y-58204741D01*
X147715043Y-58194685D01*
X147711346Y-58165032D01*
X147710818Y-58159936D01*
X147710500Y-58156097D01*
X147710500Y-58150960D01*
X147707842Y-58135030D01*
X147707335Y-58131993D01*
X147706595Y-58126918D01*
X147705729Y-58119973D01*
X147700573Y-58078607D01*
X147697313Y-58071939D01*
X147696092Y-58064619D01*
X147672924Y-58021808D01*
X147670579Y-58017253D01*
X147653711Y-57982748D01*
X147653710Y-57982746D01*
X147649198Y-57973517D01*
X147643950Y-57968269D01*
X147640418Y-57961742D01*
X147632855Y-57954780D01*
X147632853Y-57954777D01*
X147604587Y-57928756D01*
X147600889Y-57925208D01*
X146875029Y-57199347D01*
X146844968Y-57150562D01*
X146840052Y-57093471D01*
X146861330Y-57040265D01*
X146904251Y-57002311D01*
X147006450Y-56947685D01*
X147016121Y-56939748D01*
X150449500Y-56939748D01*
X150450688Y-56945723D01*
X150450689Y-56945728D01*
X150458750Y-56986252D01*
X150461133Y-56998231D01*
X150467916Y-57008383D01*
X150467917Y-57008384D01*
X150492538Y-57045232D01*
X150505448Y-57064552D01*
X150571769Y-57108867D01*
X150630252Y-57120500D01*
X152363652Y-57120500D01*
X152369748Y-57120500D01*
X152428231Y-57108867D01*
X152494552Y-57064552D01*
X152538867Y-56998231D01*
X152550500Y-56939748D01*
X152550500Y-55200252D01*
X152538867Y-55141769D01*
X152494552Y-55075448D01*
X152465967Y-55056348D01*
X152438384Y-55037917D01*
X152438383Y-55037916D01*
X152428231Y-55031133D01*
X152416253Y-55028750D01*
X152416252Y-55028750D01*
X152375728Y-55020689D01*
X152375723Y-55020688D01*
X152369748Y-55019500D01*
X150630252Y-55019500D01*
X150624277Y-55020688D01*
X150624271Y-55020689D01*
X150583747Y-55028750D01*
X150583745Y-55028750D01*
X150571769Y-55031133D01*
X150561618Y-55037915D01*
X150561615Y-55037917D01*
X150515601Y-55068663D01*
X150515598Y-55068665D01*
X150505448Y-55075448D01*
X150498665Y-55085598D01*
X150498663Y-55085601D01*
X150467917Y-55131615D01*
X150467915Y-55131618D01*
X150461133Y-55141769D01*
X150458750Y-55153745D01*
X150458750Y-55153747D01*
X150450689Y-55194271D01*
X150450688Y-55194277D01*
X150449500Y-55200252D01*
X150449500Y-56939748D01*
X147016121Y-56939748D01*
X147166410Y-56816410D01*
X147297685Y-56656450D01*
X147395232Y-56473954D01*
X147455300Y-56275934D01*
X147475583Y-56070000D01*
X147455300Y-55864066D01*
X147395232Y-55666046D01*
X147297685Y-55483550D01*
X147166410Y-55323590D01*
X147006450Y-55192315D01*
X146980223Y-55178296D01*
X146871673Y-55120274D01*
X146828746Y-55082316D01*
X146807469Y-55029110D01*
X146812386Y-54972019D01*
X146842444Y-54923237D01*
X148188863Y-53576818D01*
X148229091Y-53549939D01*
X148276544Y-53540500D01*
X186093456Y-53540500D01*
X186140909Y-53549939D01*
X186181137Y-53576819D01*
X186282693Y-53678375D01*
X186353934Y-53729240D01*
X186362261Y-53731719D01*
X186394189Y-53754515D01*
X188598181Y-55958508D01*
X188625061Y-55998736D01*
X188634500Y-56046189D01*
X188634500Y-57084028D01*
X188621712Y-57138872D01*
X188585986Y-57182404D01*
X188528164Y-57226771D01*
X188528160Y-57226774D01*
X188521718Y-57231718D01*
X188516774Y-57238160D01*
X188516771Y-57238164D01*
X188430411Y-57350711D01*
X188430408Y-57350714D01*
X188425464Y-57357159D01*
X188422355Y-57364662D01*
X188422354Y-57364666D01*
X188368066Y-57495728D01*
X188368064Y-57495733D01*
X188364956Y-57503238D01*
X188363896Y-57511289D01*
X188363894Y-57511297D01*
X188345702Y-57649482D01*
X188344318Y-57660000D01*
X188345379Y-57668059D01*
X188363894Y-57808702D01*
X188363895Y-57808708D01*
X188364956Y-57816762D01*
X188368065Y-57824267D01*
X188368066Y-57824271D01*
X188397378Y-57895036D01*
X188406225Y-57954595D01*
X188385973Y-58011299D01*
X188341399Y-58051778D01*
X188283012Y-58066489D01*
X181249695Y-58077567D01*
X181187613Y-58061019D01*
X181142145Y-58015623D01*
X181125500Y-57953567D01*
X181125500Y-57038127D01*
X181143141Y-56974379D01*
X181191046Y-56928769D01*
X181255060Y-56894552D01*
X181361450Y-56837685D01*
X181371121Y-56829748D01*
X184804500Y-56829748D01*
X184805688Y-56835723D01*
X184805689Y-56835728D01*
X184813547Y-56875232D01*
X184816133Y-56888231D01*
X184822916Y-56898383D01*
X184822917Y-56898384D01*
X184853277Y-56943821D01*
X184860448Y-56954552D01*
X184926769Y-56998867D01*
X184985252Y-57010500D01*
X186718652Y-57010500D01*
X186724748Y-57010500D01*
X186783231Y-56998867D01*
X186849552Y-56954552D01*
X186893867Y-56888231D01*
X186905500Y-56829748D01*
X186905500Y-55090252D01*
X186893867Y-55031769D01*
X186849552Y-54965448D01*
X186783231Y-54921133D01*
X186771253Y-54918750D01*
X186771252Y-54918750D01*
X186730728Y-54910689D01*
X186730723Y-54910688D01*
X186724748Y-54909500D01*
X184985252Y-54909500D01*
X184979277Y-54910688D01*
X184979271Y-54910689D01*
X184938747Y-54918750D01*
X184938745Y-54918750D01*
X184926769Y-54921133D01*
X184916618Y-54927915D01*
X184916615Y-54927917D01*
X184870601Y-54958663D01*
X184870598Y-54958665D01*
X184860448Y-54965448D01*
X184853665Y-54975598D01*
X184853663Y-54975601D01*
X184822917Y-55021615D01*
X184822915Y-55021618D01*
X184816133Y-55031769D01*
X184813750Y-55043745D01*
X184813750Y-55043747D01*
X184805689Y-55084271D01*
X184805688Y-55084277D01*
X184804500Y-55090252D01*
X184804500Y-56829748D01*
X181371121Y-56829748D01*
X181521410Y-56706410D01*
X181652685Y-56546450D01*
X181750232Y-56363954D01*
X181810300Y-56165934D01*
X181830583Y-55960000D01*
X181810300Y-55754066D01*
X181750232Y-55556046D01*
X181652685Y-55373550D01*
X181521410Y-55213590D01*
X181500032Y-55196046D01*
X181376624Y-55094768D01*
X181361450Y-55082315D01*
X181312870Y-55056348D01*
X181184328Y-54987640D01*
X181184323Y-54987638D01*
X181178954Y-54984768D01*
X181102628Y-54961615D01*
X180986764Y-54926468D01*
X180986759Y-54926467D01*
X180980934Y-54924700D01*
X180974875Y-54924103D01*
X180974869Y-54924102D01*
X180781061Y-54905014D01*
X180775000Y-54904417D01*
X180768939Y-54905014D01*
X180575130Y-54924102D01*
X180575122Y-54924103D01*
X180569066Y-54924700D01*
X180563242Y-54926466D01*
X180563235Y-54926468D01*
X180376877Y-54982999D01*
X180376875Y-54982999D01*
X180371046Y-54984768D01*
X180365679Y-54987636D01*
X180365671Y-54987640D01*
X180193920Y-55079444D01*
X180193915Y-55079447D01*
X180188550Y-55082315D01*
X180183846Y-55086174D01*
X180183842Y-55086178D01*
X180033296Y-55209727D01*
X180033290Y-55209732D01*
X180028590Y-55213590D01*
X180024732Y-55218290D01*
X180024727Y-55218296D01*
X179901178Y-55368842D01*
X179901174Y-55368846D01*
X179897315Y-55373550D01*
X179894447Y-55378915D01*
X179894444Y-55378920D01*
X179802640Y-55550671D01*
X179802636Y-55550679D01*
X179799768Y-55556046D01*
X179797999Y-55561875D01*
X179797999Y-55561877D01*
X179741468Y-55748235D01*
X179741466Y-55748242D01*
X179739700Y-55754066D01*
X179739103Y-55760122D01*
X179739102Y-55760130D01*
X179723954Y-55913939D01*
X179719417Y-55960000D01*
X179720014Y-55966061D01*
X179739102Y-56159869D01*
X179739103Y-56159875D01*
X179739700Y-56165934D01*
X179799768Y-56363954D01*
X179802638Y-56369323D01*
X179802640Y-56369328D01*
X179893209Y-56538769D01*
X179897315Y-56546450D01*
X179901178Y-56551157D01*
X179981729Y-56649310D01*
X180028590Y-56706410D01*
X180188550Y-56837685D01*
X180227275Y-56858384D01*
X180358954Y-56928769D01*
X180406859Y-56974379D01*
X180424500Y-57038127D01*
X180424500Y-57955063D01*
X180407920Y-58017007D01*
X180362613Y-58062385D01*
X180300696Y-58079062D01*
X169574694Y-58095956D01*
X169512613Y-58079409D01*
X169467145Y-58034013D01*
X169450500Y-57971957D01*
X169450500Y-56978127D01*
X169468141Y-56914379D01*
X169516046Y-56868769D01*
X169564288Y-56842982D01*
X169686450Y-56777685D01*
X169696121Y-56769748D01*
X173129500Y-56769748D01*
X173130688Y-56775723D01*
X173130689Y-56775728D01*
X173135628Y-56800557D01*
X173141133Y-56828231D01*
X173147916Y-56838383D01*
X173147917Y-56838384D01*
X173172538Y-56875232D01*
X173185448Y-56894552D01*
X173251769Y-56938867D01*
X173310252Y-56950500D01*
X175043652Y-56950500D01*
X175049748Y-56950500D01*
X175108231Y-56938867D01*
X175174552Y-56894552D01*
X175218867Y-56828231D01*
X175230500Y-56769748D01*
X175230500Y-55030252D01*
X175218867Y-54971769D01*
X175174552Y-54905448D01*
X175148315Y-54887917D01*
X175118384Y-54867917D01*
X175118383Y-54867916D01*
X175108231Y-54861133D01*
X175096253Y-54858750D01*
X175096252Y-54858750D01*
X175055728Y-54850689D01*
X175055723Y-54850688D01*
X175049748Y-54849500D01*
X173310252Y-54849500D01*
X173304277Y-54850688D01*
X173304271Y-54850689D01*
X173263747Y-54858750D01*
X173263745Y-54858750D01*
X173251769Y-54861133D01*
X173241618Y-54867915D01*
X173241615Y-54867917D01*
X173195601Y-54898663D01*
X173195598Y-54898665D01*
X173185448Y-54905448D01*
X173178665Y-54915598D01*
X173178663Y-54915601D01*
X173147917Y-54961615D01*
X173147915Y-54961618D01*
X173141133Y-54971769D01*
X173138750Y-54983745D01*
X173138750Y-54983747D01*
X173130689Y-55024271D01*
X173130688Y-55024277D01*
X173129500Y-55030252D01*
X173129500Y-56769748D01*
X169696121Y-56769748D01*
X169846410Y-56646410D01*
X169977685Y-56486450D01*
X170075232Y-56303954D01*
X170135300Y-56105934D01*
X170155583Y-55900000D01*
X170135300Y-55694066D01*
X170075232Y-55496046D01*
X169977685Y-55313550D01*
X169846410Y-55153590D01*
X169686450Y-55022315D01*
X169681079Y-55019444D01*
X169509328Y-54927640D01*
X169509323Y-54927638D01*
X169503954Y-54924768D01*
X169436865Y-54904417D01*
X169311764Y-54866468D01*
X169311759Y-54866467D01*
X169305934Y-54864700D01*
X169299875Y-54864103D01*
X169299869Y-54864102D01*
X169106061Y-54845014D01*
X169100000Y-54844417D01*
X169093939Y-54845014D01*
X168900130Y-54864102D01*
X168900122Y-54864103D01*
X168894066Y-54864700D01*
X168888242Y-54866466D01*
X168888235Y-54866468D01*
X168701877Y-54922999D01*
X168701875Y-54922999D01*
X168696046Y-54924768D01*
X168690679Y-54927636D01*
X168690671Y-54927640D01*
X168518920Y-55019444D01*
X168518915Y-55019447D01*
X168513550Y-55022315D01*
X168508846Y-55026174D01*
X168508842Y-55026178D01*
X168358296Y-55149727D01*
X168358290Y-55149732D01*
X168353590Y-55153590D01*
X168349732Y-55158290D01*
X168349727Y-55158296D01*
X168226178Y-55308842D01*
X168226174Y-55308846D01*
X168222315Y-55313550D01*
X168219447Y-55318915D01*
X168219444Y-55318920D01*
X168127640Y-55490671D01*
X168127636Y-55490679D01*
X168124768Y-55496046D01*
X168122999Y-55501875D01*
X168122999Y-55501877D01*
X168066468Y-55688235D01*
X168066466Y-55688242D01*
X168064700Y-55694066D01*
X168064103Y-55700122D01*
X168064102Y-55700130D01*
X168047956Y-55864066D01*
X168044417Y-55900000D01*
X168045014Y-55906061D01*
X168064102Y-56099869D01*
X168064103Y-56099875D01*
X168064700Y-56105934D01*
X168066467Y-56111759D01*
X168066468Y-56111764D01*
X168089124Y-56186450D01*
X168124768Y-56303954D01*
X168127638Y-56309323D01*
X168127640Y-56309328D01*
X168215636Y-56473954D01*
X168222315Y-56486450D01*
X168240316Y-56508384D01*
X168349354Y-56641249D01*
X168353590Y-56646410D01*
X168513550Y-56777685D01*
X168547306Y-56795728D01*
X168683954Y-56868769D01*
X168731859Y-56914379D01*
X168749500Y-56978127D01*
X168749500Y-57973452D01*
X168732920Y-58035396D01*
X168687613Y-58080774D01*
X168625696Y-58097451D01*
X165452954Y-58102448D01*
X158014695Y-58114164D01*
X157952613Y-58097616D01*
X157907145Y-58052220D01*
X157890500Y-57990164D01*
X157890500Y-57148127D01*
X157908141Y-57084379D01*
X157956046Y-57038769D01*
X158019402Y-57004904D01*
X158126450Y-56947685D01*
X158136121Y-56939748D01*
X161569500Y-56939748D01*
X161570688Y-56945723D01*
X161570689Y-56945728D01*
X161578750Y-56986252D01*
X161581133Y-56998231D01*
X161587916Y-57008383D01*
X161587917Y-57008384D01*
X161612538Y-57045232D01*
X161625448Y-57064552D01*
X161691769Y-57108867D01*
X161750252Y-57120500D01*
X163483652Y-57120500D01*
X163489748Y-57120500D01*
X163548231Y-57108867D01*
X163614552Y-57064552D01*
X163658867Y-56998231D01*
X163670500Y-56939748D01*
X163670500Y-55200252D01*
X163658867Y-55141769D01*
X163614552Y-55075448D01*
X163585967Y-55056348D01*
X163558384Y-55037917D01*
X163558383Y-55037916D01*
X163548231Y-55031133D01*
X163536253Y-55028750D01*
X163536252Y-55028750D01*
X163495728Y-55020689D01*
X163495723Y-55020688D01*
X163489748Y-55019500D01*
X161750252Y-55019500D01*
X161744277Y-55020688D01*
X161744271Y-55020689D01*
X161703747Y-55028750D01*
X161703745Y-55028750D01*
X161691769Y-55031133D01*
X161681618Y-55037915D01*
X161681615Y-55037917D01*
X161635601Y-55068663D01*
X161635598Y-55068665D01*
X161625448Y-55075448D01*
X161618665Y-55085598D01*
X161618663Y-55085601D01*
X161587917Y-55131615D01*
X161587915Y-55131618D01*
X161581133Y-55141769D01*
X161578750Y-55153745D01*
X161578750Y-55153747D01*
X161570689Y-55194271D01*
X161570688Y-55194277D01*
X161569500Y-55200252D01*
X161569500Y-56939748D01*
X158136121Y-56939748D01*
X158286410Y-56816410D01*
X158417685Y-56656450D01*
X158515232Y-56473954D01*
X158575300Y-56275934D01*
X158595583Y-56070000D01*
X158575300Y-55864066D01*
X158515232Y-55666046D01*
X158417685Y-55483550D01*
X158286410Y-55323590D01*
X158126450Y-55192315D01*
X158100223Y-55178296D01*
X157949328Y-55097640D01*
X157949323Y-55097638D01*
X157943954Y-55094768D01*
X157902905Y-55082316D01*
X157751764Y-55036468D01*
X157751759Y-55036467D01*
X157745934Y-55034700D01*
X157739875Y-55034103D01*
X157739869Y-55034102D01*
X157546061Y-55015014D01*
X157540000Y-55014417D01*
X157533939Y-55015014D01*
X157340130Y-55034102D01*
X157340122Y-55034103D01*
X157334066Y-55034700D01*
X157328242Y-55036466D01*
X157328235Y-55036468D01*
X157141877Y-55092999D01*
X157141875Y-55092999D01*
X157136046Y-55094768D01*
X157130679Y-55097636D01*
X157130671Y-55097640D01*
X156958920Y-55189444D01*
X156958915Y-55189447D01*
X156953550Y-55192315D01*
X156948846Y-55196174D01*
X156948842Y-55196178D01*
X156798296Y-55319727D01*
X156798290Y-55319732D01*
X156793590Y-55323590D01*
X156789732Y-55328290D01*
X156789727Y-55328296D01*
X156666178Y-55478842D01*
X156666174Y-55478846D01*
X156662315Y-55483550D01*
X156659447Y-55488915D01*
X156659444Y-55488920D01*
X156567640Y-55660671D01*
X156567636Y-55660679D01*
X156564768Y-55666046D01*
X156562999Y-55671875D01*
X156562999Y-55671877D01*
X156506468Y-55858235D01*
X156506466Y-55858242D01*
X156504700Y-55864066D01*
X156504103Y-55870122D01*
X156504102Y-55870130D01*
X156491821Y-55994827D01*
X156484417Y-56070000D01*
X156485014Y-56076061D01*
X156504102Y-56269869D01*
X156504103Y-56269875D01*
X156504700Y-56275934D01*
X156506467Y-56281759D01*
X156506468Y-56281764D01*
X156526078Y-56346410D01*
X156564768Y-56473954D01*
X156567638Y-56479323D01*
X156567640Y-56479328D01*
X156659013Y-56650272D01*
X156662315Y-56656450D01*
X156706485Y-56710272D01*
X156767776Y-56784956D01*
X156793590Y-56816410D01*
X156953550Y-56947685D01*
X157012948Y-56979434D01*
X157123954Y-57038769D01*
X157171859Y-57084379D01*
X157189500Y-57148127D01*
X157189500Y-57991660D01*
X157172920Y-58053604D01*
X157127613Y-58098982D01*
X157065696Y-58115659D01*
X155408774Y-58118269D01*
X154326961Y-58119973D01*
X154326959Y-58119973D01*
X154310000Y-58120000D01*
X154302142Y-58135029D01*
X154302142Y-58135030D01*
X152624968Y-61343113D01*
X152579077Y-61391872D01*
X152514525Y-61409662D01*
X145947605Y-61380302D01*
X145888315Y-61364907D01*
X145843631Y-61323010D01*
X144027890Y-58477724D01*
X143948397Y-58353158D01*
X143948396Y-58353157D01*
X143940000Y-58340000D01*
X143924390Y-58339985D01*
X143924387Y-58339985D01*
X137042568Y-58333780D01*
X136986626Y-58320387D01*
X136942746Y-58283192D01*
X136920373Y-58230198D01*
X136919672Y-58226003D01*
X136917330Y-58211971D01*
X136916597Y-58206941D01*
X136910573Y-58158608D01*
X136907313Y-58151941D01*
X136906092Y-58144619D01*
X136882918Y-58101798D01*
X136880576Y-58097247D01*
X136876448Y-58088803D01*
X136859199Y-58053517D01*
X136853949Y-58048267D01*
X136850418Y-58041742D01*
X136814612Y-58008780D01*
X136810914Y-58005232D01*
X135837613Y-57031931D01*
X135807552Y-56983146D01*
X135802636Y-56926055D01*
X135823914Y-56872850D01*
X135866841Y-56834892D01*
X135879303Y-56828231D01*
X135936450Y-56797685D01*
X135946121Y-56789748D01*
X139379500Y-56789748D01*
X139380688Y-56795723D01*
X139380689Y-56795728D01*
X139388646Y-56835728D01*
X139391133Y-56848231D01*
X139397916Y-56858383D01*
X139397917Y-56858384D01*
X139422538Y-56895232D01*
X139435448Y-56914552D01*
X139501769Y-56958867D01*
X139560252Y-56970500D01*
X141293652Y-56970500D01*
X141299748Y-56970500D01*
X141358231Y-56958867D01*
X141424552Y-56914552D01*
X141468867Y-56848231D01*
X141480500Y-56789748D01*
X141480500Y-55050252D01*
X141468867Y-54991769D01*
X141424552Y-54925448D01*
X141394620Y-54905448D01*
X141368384Y-54887917D01*
X141368383Y-54887916D01*
X141358231Y-54881133D01*
X141346253Y-54878750D01*
X141346252Y-54878750D01*
X141305728Y-54870689D01*
X141305723Y-54870688D01*
X141299748Y-54869500D01*
X139560252Y-54869500D01*
X139554277Y-54870688D01*
X139554271Y-54870689D01*
X139513747Y-54878750D01*
X139513745Y-54878750D01*
X139501769Y-54881133D01*
X139491618Y-54887915D01*
X139491615Y-54887917D01*
X139445601Y-54918663D01*
X139445598Y-54918665D01*
X139435448Y-54925448D01*
X139428665Y-54935598D01*
X139428663Y-54935601D01*
X139397917Y-54981615D01*
X139397915Y-54981618D01*
X139391133Y-54991769D01*
X139388750Y-55003745D01*
X139388750Y-55003747D01*
X139380689Y-55044271D01*
X139380688Y-55044277D01*
X139379500Y-55050252D01*
X139379500Y-56789748D01*
X135946121Y-56789748D01*
X136096410Y-56666410D01*
X136227685Y-56506450D01*
X136325232Y-56323954D01*
X136385300Y-56125934D01*
X136405583Y-55920000D01*
X136385300Y-55714066D01*
X136325232Y-55516046D01*
X136227685Y-55333550D01*
X136096410Y-55173590D01*
X135936450Y-55042315D01*
X135925287Y-55036348D01*
X135759328Y-54947640D01*
X135759323Y-54947638D01*
X135753954Y-54944768D01*
X135697490Y-54927640D01*
X135561764Y-54886468D01*
X135561759Y-54886467D01*
X135555934Y-54884700D01*
X135549875Y-54884103D01*
X135549869Y-54884102D01*
X135356061Y-54865014D01*
X135350000Y-54864417D01*
X135343939Y-54865014D01*
X135150130Y-54884102D01*
X135150122Y-54884103D01*
X135144066Y-54884700D01*
X135138242Y-54886466D01*
X135138235Y-54886468D01*
X134951877Y-54942999D01*
X134951875Y-54942999D01*
X134946046Y-54944768D01*
X134940679Y-54947636D01*
X134940671Y-54947640D01*
X134768920Y-55039444D01*
X134768915Y-55039447D01*
X134763550Y-55042315D01*
X134758846Y-55046174D01*
X134758842Y-55046178D01*
X134608296Y-55169727D01*
X134608290Y-55169732D01*
X134603590Y-55173590D01*
X134599732Y-55178290D01*
X134599727Y-55178296D01*
X134476178Y-55328842D01*
X134476174Y-55328846D01*
X134472315Y-55333550D01*
X134469447Y-55338915D01*
X134469444Y-55338920D01*
X134377640Y-55510671D01*
X134377636Y-55510679D01*
X134374768Y-55516046D01*
X134372999Y-55521875D01*
X134372999Y-55521877D01*
X134316468Y-55708235D01*
X134316466Y-55708242D01*
X134314700Y-55714066D01*
X134314103Y-55720122D01*
X134314102Y-55720130D01*
X134300500Y-55858235D01*
X134294417Y-55920000D01*
X134295014Y-55926061D01*
X134314102Y-56119869D01*
X134314103Y-56119875D01*
X134314700Y-56125934D01*
X134316467Y-56131759D01*
X134316468Y-56131764D01*
X134328602Y-56171764D01*
X134374768Y-56323954D01*
X134377638Y-56329323D01*
X134377640Y-56329328D01*
X134457818Y-56479328D01*
X134472315Y-56506450D01*
X134476178Y-56511157D01*
X134587176Y-56646410D01*
X134603590Y-56666410D01*
X134763550Y-56797685D01*
X134768920Y-56800555D01*
X134768924Y-56800558D01*
X134835703Y-56836252D01*
X134932570Y-56888028D01*
X134972747Y-56922234D01*
X134995065Y-56970048D01*
X134995339Y-57004904D01*
X134997490Y-57004993D01*
X134997064Y-57015261D01*
X134994957Y-57025315D01*
X134996227Y-57035504D01*
X134996227Y-57035509D01*
X134998652Y-57054956D01*
X134999180Y-57060055D01*
X134999500Y-57063917D01*
X134999500Y-57069040D01*
X135000343Y-57074091D01*
X135002666Y-57088016D01*
X135003403Y-57093077D01*
X135006673Y-57119310D01*
X135009427Y-57141393D01*
X135012686Y-57148060D01*
X135013908Y-57155381D01*
X135018796Y-57164413D01*
X135018797Y-57164416D01*
X135037081Y-57198202D01*
X135039421Y-57202747D01*
X135060802Y-57246484D01*
X135066050Y-57251732D01*
X135069582Y-57258258D01*
X135077138Y-57265214D01*
X135077139Y-57265215D01*
X135105399Y-57291230D01*
X135109097Y-57294779D01*
X135935339Y-58121021D01*
X135965596Y-58170405D01*
X135970124Y-58228144D01*
X135947937Y-58281642D01*
X135903873Y-58319227D01*
X135847546Y-58332702D01*
X132981886Y-58330118D01*
X132917710Y-58312151D01*
X132872103Y-58263556D01*
X132858240Y-58198370D01*
X132860091Y-58168806D01*
X133222739Y-52375981D01*
X133241735Y-52317392D01*
X133286581Y-52275169D01*
X133346208Y-52259733D01*
X211615025Y-52080469D01*
X211675959Y-52096314D01*
G37*
%TD.AperFunction*%
%TD*%
M02*
