%TF.GenerationSoftware,KiCad,Pcbnew,(7.0.0)*%
%TF.CreationDate,2023-04-21T00:05:07-05:00*%
%TF.ProjectId,OMICRON oO,4f4d4943-524f-44e2-906f-4f2e6b696361,rev?*%
%TF.SameCoordinates,Original*%
%TF.FileFunction,Legend,Bot*%
%TF.FilePolarity,Positive*%
%FSLAX46Y46*%
G04 Gerber Fmt 4.6, Leading zero omitted, Abs format (unit mm)*
G04 Created by KiCad (PCBNEW (7.0.0)) date 2023-04-21 00:05:07*
%MOMM*%
%LPD*%
G01*
G04 APERTURE LIST*
%ADD10C,0.100000*%
%ADD11C,0.150000*%
%ADD12C,0.300000*%
%ADD13C,0.400000*%
%ADD14C,0.120000*%
%ADD15R,5.000000X3.500000*%
G04 APERTURE END LIST*
D10*
D11*
X177002200Y-166007200D02*
X285002200Y-166007200D01*
X285002200Y-198007200D01*
X177002200Y-198007200D01*
X177002200Y-166007200D01*
D10*
D11*
X10000000Y-10000000D02*
X287002200Y-10000000D01*
X287002200Y-200007200D01*
X10000000Y-200007200D01*
X10000000Y-10000000D01*
D10*
D11*
X12000000Y-12000000D02*
X285002200Y-12000000D01*
X285002200Y-198007200D01*
X12000000Y-198007200D01*
X12000000Y-12000000D01*
D10*
D11*
X60000000Y-12000000D02*
X60000000Y-10000000D01*
D10*
D11*
X110000000Y-12000000D02*
X110000000Y-10000000D01*
D10*
D11*
X160000000Y-12000000D02*
X160000000Y-10000000D01*
D10*
D11*
X210000000Y-12000000D02*
X210000000Y-10000000D01*
D10*
D11*
X260000000Y-12000000D02*
X260000000Y-10000000D01*
D10*
D11*
X35990476Y-11477595D02*
X35247619Y-11477595D01*
X35619047Y-11477595D02*
X35619047Y-10177595D01*
X35619047Y-10177595D02*
X35495238Y-10363309D01*
X35495238Y-10363309D02*
X35371428Y-10487119D01*
X35371428Y-10487119D02*
X35247619Y-10549023D01*
D10*
D11*
X85247619Y-10301404D02*
X85309523Y-10239500D01*
X85309523Y-10239500D02*
X85433333Y-10177595D01*
X85433333Y-10177595D02*
X85742857Y-10177595D01*
X85742857Y-10177595D02*
X85866666Y-10239500D01*
X85866666Y-10239500D02*
X85928571Y-10301404D01*
X85928571Y-10301404D02*
X85990476Y-10425214D01*
X85990476Y-10425214D02*
X85990476Y-10549023D01*
X85990476Y-10549023D02*
X85928571Y-10734738D01*
X85928571Y-10734738D02*
X85185714Y-11477595D01*
X85185714Y-11477595D02*
X85990476Y-11477595D01*
D10*
D11*
X135185714Y-10177595D02*
X135990476Y-10177595D01*
X135990476Y-10177595D02*
X135557142Y-10672833D01*
X135557142Y-10672833D02*
X135742857Y-10672833D01*
X135742857Y-10672833D02*
X135866666Y-10734738D01*
X135866666Y-10734738D02*
X135928571Y-10796642D01*
X135928571Y-10796642D02*
X135990476Y-10920452D01*
X135990476Y-10920452D02*
X135990476Y-11229976D01*
X135990476Y-11229976D02*
X135928571Y-11353785D01*
X135928571Y-11353785D02*
X135866666Y-11415690D01*
X135866666Y-11415690D02*
X135742857Y-11477595D01*
X135742857Y-11477595D02*
X135371428Y-11477595D01*
X135371428Y-11477595D02*
X135247619Y-11415690D01*
X135247619Y-11415690D02*
X135185714Y-11353785D01*
D10*
D11*
X185866666Y-10610928D02*
X185866666Y-11477595D01*
X185557142Y-10115690D02*
X185247619Y-11044261D01*
X185247619Y-11044261D02*
X186052380Y-11044261D01*
D10*
D11*
X235928571Y-10177595D02*
X235309523Y-10177595D01*
X235309523Y-10177595D02*
X235247619Y-10796642D01*
X235247619Y-10796642D02*
X235309523Y-10734738D01*
X235309523Y-10734738D02*
X235433333Y-10672833D01*
X235433333Y-10672833D02*
X235742857Y-10672833D01*
X235742857Y-10672833D02*
X235866666Y-10734738D01*
X235866666Y-10734738D02*
X235928571Y-10796642D01*
X235928571Y-10796642D02*
X235990476Y-10920452D01*
X235990476Y-10920452D02*
X235990476Y-11229976D01*
X235990476Y-11229976D02*
X235928571Y-11353785D01*
X235928571Y-11353785D02*
X235866666Y-11415690D01*
X235866666Y-11415690D02*
X235742857Y-11477595D01*
X235742857Y-11477595D02*
X235433333Y-11477595D01*
X235433333Y-11477595D02*
X235309523Y-11415690D01*
X235309523Y-11415690D02*
X235247619Y-11353785D01*
D10*
D11*
X285866666Y-10177595D02*
X285619047Y-10177595D01*
X285619047Y-10177595D02*
X285495238Y-10239500D01*
X285495238Y-10239500D02*
X285433333Y-10301404D01*
X285433333Y-10301404D02*
X285309523Y-10487119D01*
X285309523Y-10487119D02*
X285247619Y-10734738D01*
X285247619Y-10734738D02*
X285247619Y-11229976D01*
X285247619Y-11229976D02*
X285309523Y-11353785D01*
X285309523Y-11353785D02*
X285371428Y-11415690D01*
X285371428Y-11415690D02*
X285495238Y-11477595D01*
X285495238Y-11477595D02*
X285742857Y-11477595D01*
X285742857Y-11477595D02*
X285866666Y-11415690D01*
X285866666Y-11415690D02*
X285928571Y-11353785D01*
X285928571Y-11353785D02*
X285990476Y-11229976D01*
X285990476Y-11229976D02*
X285990476Y-10920452D01*
X285990476Y-10920452D02*
X285928571Y-10796642D01*
X285928571Y-10796642D02*
X285866666Y-10734738D01*
X285866666Y-10734738D02*
X285742857Y-10672833D01*
X285742857Y-10672833D02*
X285495238Y-10672833D01*
X285495238Y-10672833D02*
X285371428Y-10734738D01*
X285371428Y-10734738D02*
X285309523Y-10796642D01*
X285309523Y-10796642D02*
X285247619Y-10920452D01*
D10*
D11*
X60000000Y-198007200D02*
X60000000Y-200007200D01*
D10*
D11*
X110000000Y-198007200D02*
X110000000Y-200007200D01*
D10*
D11*
X160000000Y-198007200D02*
X160000000Y-200007200D01*
D10*
D11*
X210000000Y-198007200D02*
X210000000Y-200007200D01*
D10*
D11*
X260000000Y-198007200D02*
X260000000Y-200007200D01*
D10*
D11*
X35990476Y-199484795D02*
X35247619Y-199484795D01*
X35619047Y-199484795D02*
X35619047Y-198184795D01*
X35619047Y-198184795D02*
X35495238Y-198370509D01*
X35495238Y-198370509D02*
X35371428Y-198494319D01*
X35371428Y-198494319D02*
X35247619Y-198556223D01*
D10*
D11*
X85247619Y-198308604D02*
X85309523Y-198246700D01*
X85309523Y-198246700D02*
X85433333Y-198184795D01*
X85433333Y-198184795D02*
X85742857Y-198184795D01*
X85742857Y-198184795D02*
X85866666Y-198246700D01*
X85866666Y-198246700D02*
X85928571Y-198308604D01*
X85928571Y-198308604D02*
X85990476Y-198432414D01*
X85990476Y-198432414D02*
X85990476Y-198556223D01*
X85990476Y-198556223D02*
X85928571Y-198741938D01*
X85928571Y-198741938D02*
X85185714Y-199484795D01*
X85185714Y-199484795D02*
X85990476Y-199484795D01*
D10*
D11*
X135185714Y-198184795D02*
X135990476Y-198184795D01*
X135990476Y-198184795D02*
X135557142Y-198680033D01*
X135557142Y-198680033D02*
X135742857Y-198680033D01*
X135742857Y-198680033D02*
X135866666Y-198741938D01*
X135866666Y-198741938D02*
X135928571Y-198803842D01*
X135928571Y-198803842D02*
X135990476Y-198927652D01*
X135990476Y-198927652D02*
X135990476Y-199237176D01*
X135990476Y-199237176D02*
X135928571Y-199360985D01*
X135928571Y-199360985D02*
X135866666Y-199422890D01*
X135866666Y-199422890D02*
X135742857Y-199484795D01*
X135742857Y-199484795D02*
X135371428Y-199484795D01*
X135371428Y-199484795D02*
X135247619Y-199422890D01*
X135247619Y-199422890D02*
X135185714Y-199360985D01*
D10*
D11*
X185866666Y-198618128D02*
X185866666Y-199484795D01*
X185557142Y-198122890D02*
X185247619Y-199051461D01*
X185247619Y-199051461D02*
X186052380Y-199051461D01*
D10*
D11*
X235928571Y-198184795D02*
X235309523Y-198184795D01*
X235309523Y-198184795D02*
X235247619Y-198803842D01*
X235247619Y-198803842D02*
X235309523Y-198741938D01*
X235309523Y-198741938D02*
X235433333Y-198680033D01*
X235433333Y-198680033D02*
X235742857Y-198680033D01*
X235742857Y-198680033D02*
X235866666Y-198741938D01*
X235866666Y-198741938D02*
X235928571Y-198803842D01*
X235928571Y-198803842D02*
X235990476Y-198927652D01*
X235990476Y-198927652D02*
X235990476Y-199237176D01*
X235990476Y-199237176D02*
X235928571Y-199360985D01*
X235928571Y-199360985D02*
X235866666Y-199422890D01*
X235866666Y-199422890D02*
X235742857Y-199484795D01*
X235742857Y-199484795D02*
X235433333Y-199484795D01*
X235433333Y-199484795D02*
X235309523Y-199422890D01*
X235309523Y-199422890D02*
X235247619Y-199360985D01*
D10*
D11*
X285866666Y-198184795D02*
X285619047Y-198184795D01*
X285619047Y-198184795D02*
X285495238Y-198246700D01*
X285495238Y-198246700D02*
X285433333Y-198308604D01*
X285433333Y-198308604D02*
X285309523Y-198494319D01*
X285309523Y-198494319D02*
X285247619Y-198741938D01*
X285247619Y-198741938D02*
X285247619Y-199237176D01*
X285247619Y-199237176D02*
X285309523Y-199360985D01*
X285309523Y-199360985D02*
X285371428Y-199422890D01*
X285371428Y-199422890D02*
X285495238Y-199484795D01*
X285495238Y-199484795D02*
X285742857Y-199484795D01*
X285742857Y-199484795D02*
X285866666Y-199422890D01*
X285866666Y-199422890D02*
X285928571Y-199360985D01*
X285928571Y-199360985D02*
X285990476Y-199237176D01*
X285990476Y-199237176D02*
X285990476Y-198927652D01*
X285990476Y-198927652D02*
X285928571Y-198803842D01*
X285928571Y-198803842D02*
X285866666Y-198741938D01*
X285866666Y-198741938D02*
X285742857Y-198680033D01*
X285742857Y-198680033D02*
X285495238Y-198680033D01*
X285495238Y-198680033D02*
X285371428Y-198741938D01*
X285371428Y-198741938D02*
X285309523Y-198803842D01*
X285309523Y-198803842D02*
X285247619Y-198927652D01*
D10*
D11*
X10000000Y-60000000D02*
X12000000Y-60000000D01*
D10*
D11*
X10000000Y-110000000D02*
X12000000Y-110000000D01*
D10*
D11*
X10000000Y-160000000D02*
X12000000Y-160000000D01*
D10*
D11*
X10690476Y-35106166D02*
X11309523Y-35106166D01*
X10566666Y-35477595D02*
X10999999Y-34177595D01*
X10999999Y-34177595D02*
X11433333Y-35477595D01*
D10*
D11*
X11092857Y-84796642D02*
X11278571Y-84858547D01*
X11278571Y-84858547D02*
X11340476Y-84920452D01*
X11340476Y-84920452D02*
X11402380Y-85044261D01*
X11402380Y-85044261D02*
X11402380Y-85229976D01*
X11402380Y-85229976D02*
X11340476Y-85353785D01*
X11340476Y-85353785D02*
X11278571Y-85415690D01*
X11278571Y-85415690D02*
X11154761Y-85477595D01*
X11154761Y-85477595D02*
X10659523Y-85477595D01*
X10659523Y-85477595D02*
X10659523Y-84177595D01*
X10659523Y-84177595D02*
X11092857Y-84177595D01*
X11092857Y-84177595D02*
X11216666Y-84239500D01*
X11216666Y-84239500D02*
X11278571Y-84301404D01*
X11278571Y-84301404D02*
X11340476Y-84425214D01*
X11340476Y-84425214D02*
X11340476Y-84549023D01*
X11340476Y-84549023D02*
X11278571Y-84672833D01*
X11278571Y-84672833D02*
X11216666Y-84734738D01*
X11216666Y-84734738D02*
X11092857Y-84796642D01*
X11092857Y-84796642D02*
X10659523Y-84796642D01*
D10*
D11*
X11402380Y-135353785D02*
X11340476Y-135415690D01*
X11340476Y-135415690D02*
X11154761Y-135477595D01*
X11154761Y-135477595D02*
X11030952Y-135477595D01*
X11030952Y-135477595D02*
X10845238Y-135415690D01*
X10845238Y-135415690D02*
X10721428Y-135291880D01*
X10721428Y-135291880D02*
X10659523Y-135168071D01*
X10659523Y-135168071D02*
X10597619Y-134920452D01*
X10597619Y-134920452D02*
X10597619Y-134734738D01*
X10597619Y-134734738D02*
X10659523Y-134487119D01*
X10659523Y-134487119D02*
X10721428Y-134363309D01*
X10721428Y-134363309D02*
X10845238Y-134239500D01*
X10845238Y-134239500D02*
X11030952Y-134177595D01*
X11030952Y-134177595D02*
X11154761Y-134177595D01*
X11154761Y-134177595D02*
X11340476Y-134239500D01*
X11340476Y-134239500D02*
X11402380Y-134301404D01*
D10*
D11*
X10659523Y-185477595D02*
X10659523Y-184177595D01*
X10659523Y-184177595D02*
X10969047Y-184177595D01*
X10969047Y-184177595D02*
X11154761Y-184239500D01*
X11154761Y-184239500D02*
X11278571Y-184363309D01*
X11278571Y-184363309D02*
X11340476Y-184487119D01*
X11340476Y-184487119D02*
X11402380Y-184734738D01*
X11402380Y-184734738D02*
X11402380Y-184920452D01*
X11402380Y-184920452D02*
X11340476Y-185168071D01*
X11340476Y-185168071D02*
X11278571Y-185291880D01*
X11278571Y-185291880D02*
X11154761Y-185415690D01*
X11154761Y-185415690D02*
X10969047Y-185477595D01*
X10969047Y-185477595D02*
X10659523Y-185477595D01*
D10*
D11*
X287002200Y-60000000D02*
X285002200Y-60000000D01*
D10*
D11*
X287002200Y-110000000D02*
X285002200Y-110000000D01*
D10*
D11*
X287002200Y-160000000D02*
X285002200Y-160000000D01*
D10*
D11*
X285692676Y-35106166D02*
X286311723Y-35106166D01*
X285568866Y-35477595D02*
X286002199Y-34177595D01*
X286002199Y-34177595D02*
X286435533Y-35477595D01*
D10*
D11*
X286095057Y-84796642D02*
X286280771Y-84858547D01*
X286280771Y-84858547D02*
X286342676Y-84920452D01*
X286342676Y-84920452D02*
X286404580Y-85044261D01*
X286404580Y-85044261D02*
X286404580Y-85229976D01*
X286404580Y-85229976D02*
X286342676Y-85353785D01*
X286342676Y-85353785D02*
X286280771Y-85415690D01*
X286280771Y-85415690D02*
X286156961Y-85477595D01*
X286156961Y-85477595D02*
X285661723Y-85477595D01*
X285661723Y-85477595D02*
X285661723Y-84177595D01*
X285661723Y-84177595D02*
X286095057Y-84177595D01*
X286095057Y-84177595D02*
X286218866Y-84239500D01*
X286218866Y-84239500D02*
X286280771Y-84301404D01*
X286280771Y-84301404D02*
X286342676Y-84425214D01*
X286342676Y-84425214D02*
X286342676Y-84549023D01*
X286342676Y-84549023D02*
X286280771Y-84672833D01*
X286280771Y-84672833D02*
X286218866Y-84734738D01*
X286218866Y-84734738D02*
X286095057Y-84796642D01*
X286095057Y-84796642D02*
X285661723Y-84796642D01*
D10*
D11*
X286404580Y-135353785D02*
X286342676Y-135415690D01*
X286342676Y-135415690D02*
X286156961Y-135477595D01*
X286156961Y-135477595D02*
X286033152Y-135477595D01*
X286033152Y-135477595D02*
X285847438Y-135415690D01*
X285847438Y-135415690D02*
X285723628Y-135291880D01*
X285723628Y-135291880D02*
X285661723Y-135168071D01*
X285661723Y-135168071D02*
X285599819Y-134920452D01*
X285599819Y-134920452D02*
X285599819Y-134734738D01*
X285599819Y-134734738D02*
X285661723Y-134487119D01*
X285661723Y-134487119D02*
X285723628Y-134363309D01*
X285723628Y-134363309D02*
X285847438Y-134239500D01*
X285847438Y-134239500D02*
X286033152Y-134177595D01*
X286033152Y-134177595D02*
X286156961Y-134177595D01*
X286156961Y-134177595D02*
X286342676Y-134239500D01*
X286342676Y-134239500D02*
X286404580Y-134301404D01*
D10*
D11*
X285661723Y-185477595D02*
X285661723Y-184177595D01*
X285661723Y-184177595D02*
X285971247Y-184177595D01*
X285971247Y-184177595D02*
X286156961Y-184239500D01*
X286156961Y-184239500D02*
X286280771Y-184363309D01*
X286280771Y-184363309D02*
X286342676Y-184487119D01*
X286342676Y-184487119D02*
X286404580Y-184734738D01*
X286404580Y-184734738D02*
X286404580Y-184920452D01*
X286404580Y-184920452D02*
X286342676Y-185168071D01*
X286342676Y-185168071D02*
X286280771Y-185291880D01*
X286280771Y-185291880D02*
X286156961Y-185415690D01*
X286156961Y-185415690D02*
X285971247Y-185477595D01*
X285971247Y-185477595D02*
X285661723Y-185477595D01*
D10*
D11*
X200359342Y-193658271D02*
X200359342Y-192158271D01*
X200359342Y-192158271D02*
X200716485Y-192158271D01*
X200716485Y-192158271D02*
X200930771Y-192229700D01*
X200930771Y-192229700D02*
X201073628Y-192372557D01*
X201073628Y-192372557D02*
X201145057Y-192515414D01*
X201145057Y-192515414D02*
X201216485Y-192801128D01*
X201216485Y-192801128D02*
X201216485Y-193015414D01*
X201216485Y-193015414D02*
X201145057Y-193301128D01*
X201145057Y-193301128D02*
X201073628Y-193443985D01*
X201073628Y-193443985D02*
X200930771Y-193586842D01*
X200930771Y-193586842D02*
X200716485Y-193658271D01*
X200716485Y-193658271D02*
X200359342Y-193658271D01*
X202502200Y-193658271D02*
X202502200Y-192872557D01*
X202502200Y-192872557D02*
X202430771Y-192729700D01*
X202430771Y-192729700D02*
X202287914Y-192658271D01*
X202287914Y-192658271D02*
X202002200Y-192658271D01*
X202002200Y-192658271D02*
X201859342Y-192729700D01*
X202502200Y-193586842D02*
X202359342Y-193658271D01*
X202359342Y-193658271D02*
X202002200Y-193658271D01*
X202002200Y-193658271D02*
X201859342Y-193586842D01*
X201859342Y-193586842D02*
X201787914Y-193443985D01*
X201787914Y-193443985D02*
X201787914Y-193301128D01*
X201787914Y-193301128D02*
X201859342Y-193158271D01*
X201859342Y-193158271D02*
X202002200Y-193086842D01*
X202002200Y-193086842D02*
X202359342Y-193086842D01*
X202359342Y-193086842D02*
X202502200Y-193015414D01*
X203002200Y-192658271D02*
X203573628Y-192658271D01*
X203216485Y-192158271D02*
X203216485Y-193443985D01*
X203216485Y-193443985D02*
X203287914Y-193586842D01*
X203287914Y-193586842D02*
X203430771Y-193658271D01*
X203430771Y-193658271D02*
X203573628Y-193658271D01*
X204645057Y-193586842D02*
X204502200Y-193658271D01*
X204502200Y-193658271D02*
X204216486Y-193658271D01*
X204216486Y-193658271D02*
X204073628Y-193586842D01*
X204073628Y-193586842D02*
X204002200Y-193443985D01*
X204002200Y-193443985D02*
X204002200Y-192872557D01*
X204002200Y-192872557D02*
X204073628Y-192729700D01*
X204073628Y-192729700D02*
X204216486Y-192658271D01*
X204216486Y-192658271D02*
X204502200Y-192658271D01*
X204502200Y-192658271D02*
X204645057Y-192729700D01*
X204645057Y-192729700D02*
X204716486Y-192872557D01*
X204716486Y-192872557D02*
X204716486Y-193015414D01*
X204716486Y-193015414D02*
X204002200Y-193158271D01*
X205359342Y-193515414D02*
X205430771Y-193586842D01*
X205430771Y-193586842D02*
X205359342Y-193658271D01*
X205359342Y-193658271D02*
X205287914Y-193586842D01*
X205287914Y-193586842D02*
X205359342Y-193515414D01*
X205359342Y-193515414D02*
X205359342Y-193658271D01*
X205359342Y-192729700D02*
X205430771Y-192801128D01*
X205430771Y-192801128D02*
X205359342Y-192872557D01*
X205359342Y-192872557D02*
X205287914Y-192801128D01*
X205287914Y-192801128D02*
X205359342Y-192729700D01*
X205359342Y-192729700D02*
X205359342Y-192872557D01*
D10*
D11*
X177002200Y-194507200D02*
X285002200Y-194507200D01*
D10*
D11*
X178359342Y-196458271D02*
X178359342Y-194958271D01*
X179216485Y-196458271D02*
X178573628Y-195601128D01*
X179216485Y-194958271D02*
X178359342Y-195815414D01*
X179859342Y-196458271D02*
X179859342Y-195458271D01*
X179859342Y-194958271D02*
X179787914Y-195029700D01*
X179787914Y-195029700D02*
X179859342Y-195101128D01*
X179859342Y-195101128D02*
X179930771Y-195029700D01*
X179930771Y-195029700D02*
X179859342Y-194958271D01*
X179859342Y-194958271D02*
X179859342Y-195101128D01*
X181430771Y-196315414D02*
X181359343Y-196386842D01*
X181359343Y-196386842D02*
X181145057Y-196458271D01*
X181145057Y-196458271D02*
X181002200Y-196458271D01*
X181002200Y-196458271D02*
X180787914Y-196386842D01*
X180787914Y-196386842D02*
X180645057Y-196243985D01*
X180645057Y-196243985D02*
X180573628Y-196101128D01*
X180573628Y-196101128D02*
X180502200Y-195815414D01*
X180502200Y-195815414D02*
X180502200Y-195601128D01*
X180502200Y-195601128D02*
X180573628Y-195315414D01*
X180573628Y-195315414D02*
X180645057Y-195172557D01*
X180645057Y-195172557D02*
X180787914Y-195029700D01*
X180787914Y-195029700D02*
X181002200Y-194958271D01*
X181002200Y-194958271D02*
X181145057Y-194958271D01*
X181145057Y-194958271D02*
X181359343Y-195029700D01*
X181359343Y-195029700D02*
X181430771Y-195101128D01*
X182716486Y-196458271D02*
X182716486Y-195672557D01*
X182716486Y-195672557D02*
X182645057Y-195529700D01*
X182645057Y-195529700D02*
X182502200Y-195458271D01*
X182502200Y-195458271D02*
X182216486Y-195458271D01*
X182216486Y-195458271D02*
X182073628Y-195529700D01*
X182716486Y-196386842D02*
X182573628Y-196458271D01*
X182573628Y-196458271D02*
X182216486Y-196458271D01*
X182216486Y-196458271D02*
X182073628Y-196386842D01*
X182073628Y-196386842D02*
X182002200Y-196243985D01*
X182002200Y-196243985D02*
X182002200Y-196101128D01*
X182002200Y-196101128D02*
X182073628Y-195958271D01*
X182073628Y-195958271D02*
X182216486Y-195886842D01*
X182216486Y-195886842D02*
X182573628Y-195886842D01*
X182573628Y-195886842D02*
X182716486Y-195815414D01*
X184073629Y-196458271D02*
X184073629Y-194958271D01*
X184073629Y-196386842D02*
X183930771Y-196458271D01*
X183930771Y-196458271D02*
X183645057Y-196458271D01*
X183645057Y-196458271D02*
X183502200Y-196386842D01*
X183502200Y-196386842D02*
X183430771Y-196315414D01*
X183430771Y-196315414D02*
X183359343Y-196172557D01*
X183359343Y-196172557D02*
X183359343Y-195743985D01*
X183359343Y-195743985D02*
X183430771Y-195601128D01*
X183430771Y-195601128D02*
X183502200Y-195529700D01*
X183502200Y-195529700D02*
X183645057Y-195458271D01*
X183645057Y-195458271D02*
X183930771Y-195458271D01*
X183930771Y-195458271D02*
X184073629Y-195529700D01*
X185687914Y-195672557D02*
X186187914Y-195672557D01*
X186402200Y-196458271D02*
X185687914Y-196458271D01*
X185687914Y-196458271D02*
X185687914Y-194958271D01*
X185687914Y-194958271D02*
X186402200Y-194958271D01*
X187045057Y-196315414D02*
X187116486Y-196386842D01*
X187116486Y-196386842D02*
X187045057Y-196458271D01*
X187045057Y-196458271D02*
X186973629Y-196386842D01*
X186973629Y-196386842D02*
X187045057Y-196315414D01*
X187045057Y-196315414D02*
X187045057Y-196458271D01*
X187759343Y-196458271D02*
X187759343Y-194958271D01*
X187759343Y-194958271D02*
X188116486Y-194958271D01*
X188116486Y-194958271D02*
X188330772Y-195029700D01*
X188330772Y-195029700D02*
X188473629Y-195172557D01*
X188473629Y-195172557D02*
X188545058Y-195315414D01*
X188545058Y-195315414D02*
X188616486Y-195601128D01*
X188616486Y-195601128D02*
X188616486Y-195815414D01*
X188616486Y-195815414D02*
X188545058Y-196101128D01*
X188545058Y-196101128D02*
X188473629Y-196243985D01*
X188473629Y-196243985D02*
X188330772Y-196386842D01*
X188330772Y-196386842D02*
X188116486Y-196458271D01*
X188116486Y-196458271D02*
X187759343Y-196458271D01*
X189259343Y-196315414D02*
X189330772Y-196386842D01*
X189330772Y-196386842D02*
X189259343Y-196458271D01*
X189259343Y-196458271D02*
X189187915Y-196386842D01*
X189187915Y-196386842D02*
X189259343Y-196315414D01*
X189259343Y-196315414D02*
X189259343Y-196458271D01*
X189902201Y-196029700D02*
X190616487Y-196029700D01*
X189759344Y-196458271D02*
X190259344Y-194958271D01*
X190259344Y-194958271D02*
X190759344Y-196458271D01*
X191259343Y-196315414D02*
X191330772Y-196386842D01*
X191330772Y-196386842D02*
X191259343Y-196458271D01*
X191259343Y-196458271D02*
X191187915Y-196386842D01*
X191187915Y-196386842D02*
X191259343Y-196315414D01*
X191259343Y-196315414D02*
X191259343Y-196458271D01*
X193773629Y-196458271D02*
X193773629Y-194958271D01*
X193916487Y-195886842D02*
X194345058Y-196458271D01*
X194345058Y-195458271D02*
X193773629Y-196029700D01*
X194987915Y-196458271D02*
X194987915Y-195458271D01*
X194987915Y-194958271D02*
X194916487Y-195029700D01*
X194916487Y-195029700D02*
X194987915Y-195101128D01*
X194987915Y-195101128D02*
X195059344Y-195029700D01*
X195059344Y-195029700D02*
X194987915Y-194958271D01*
X194987915Y-194958271D02*
X194987915Y-195101128D01*
X196345059Y-196386842D02*
X196202201Y-196458271D01*
X196202201Y-196458271D02*
X195916487Y-196458271D01*
X195916487Y-196458271D02*
X195773630Y-196386842D01*
X195773630Y-196386842D02*
X195702201Y-196315414D01*
X195702201Y-196315414D02*
X195630773Y-196172557D01*
X195630773Y-196172557D02*
X195630773Y-195743985D01*
X195630773Y-195743985D02*
X195702201Y-195601128D01*
X195702201Y-195601128D02*
X195773630Y-195529700D01*
X195773630Y-195529700D02*
X195916487Y-195458271D01*
X195916487Y-195458271D02*
X196202201Y-195458271D01*
X196202201Y-195458271D02*
X196345059Y-195529700D01*
X197630773Y-196458271D02*
X197630773Y-195672557D01*
X197630773Y-195672557D02*
X197559344Y-195529700D01*
X197559344Y-195529700D02*
X197416487Y-195458271D01*
X197416487Y-195458271D02*
X197130773Y-195458271D01*
X197130773Y-195458271D02*
X196987915Y-195529700D01*
X197630773Y-196386842D02*
X197487915Y-196458271D01*
X197487915Y-196458271D02*
X197130773Y-196458271D01*
X197130773Y-196458271D02*
X196987915Y-196386842D01*
X196987915Y-196386842D02*
X196916487Y-196243985D01*
X196916487Y-196243985D02*
X196916487Y-196101128D01*
X196916487Y-196101128D02*
X196987915Y-195958271D01*
X196987915Y-195958271D02*
X197130773Y-195886842D01*
X197130773Y-195886842D02*
X197487915Y-195886842D01*
X197487915Y-195886842D02*
X197630773Y-195815414D01*
X198987916Y-196458271D02*
X198987916Y-194958271D01*
X198987916Y-196386842D02*
X198845058Y-196458271D01*
X198845058Y-196458271D02*
X198559344Y-196458271D01*
X198559344Y-196458271D02*
X198416487Y-196386842D01*
X198416487Y-196386842D02*
X198345058Y-196315414D01*
X198345058Y-196315414D02*
X198273630Y-196172557D01*
X198273630Y-196172557D02*
X198273630Y-195743985D01*
X198273630Y-195743985D02*
X198345058Y-195601128D01*
X198345058Y-195601128D02*
X198416487Y-195529700D01*
X198416487Y-195529700D02*
X198559344Y-195458271D01*
X198559344Y-195458271D02*
X198845058Y-195458271D01*
X198845058Y-195458271D02*
X198987916Y-195529700D01*
X201030773Y-197029700D02*
X200959344Y-196958271D01*
X200959344Y-196958271D02*
X200816487Y-196743985D01*
X200816487Y-196743985D02*
X200745059Y-196601128D01*
X200745059Y-196601128D02*
X200673630Y-196386842D01*
X200673630Y-196386842D02*
X200602201Y-196029700D01*
X200602201Y-196029700D02*
X200602201Y-195743985D01*
X200602201Y-195743985D02*
X200673630Y-195386842D01*
X200673630Y-195386842D02*
X200745059Y-195172557D01*
X200745059Y-195172557D02*
X200816487Y-195029700D01*
X200816487Y-195029700D02*
X200959344Y-194815414D01*
X200959344Y-194815414D02*
X201030773Y-194743985D01*
X201459344Y-194958271D02*
X202459344Y-194958271D01*
X202459344Y-194958271D02*
X201816487Y-196458271D01*
X203030772Y-196315414D02*
X203102201Y-196386842D01*
X203102201Y-196386842D02*
X203030772Y-196458271D01*
X203030772Y-196458271D02*
X202959344Y-196386842D01*
X202959344Y-196386842D02*
X203030772Y-196315414D01*
X203030772Y-196315414D02*
X203030772Y-196458271D01*
X204030773Y-194958271D02*
X204173630Y-194958271D01*
X204173630Y-194958271D02*
X204316487Y-195029700D01*
X204316487Y-195029700D02*
X204387916Y-195101128D01*
X204387916Y-195101128D02*
X204459344Y-195243985D01*
X204459344Y-195243985D02*
X204530773Y-195529700D01*
X204530773Y-195529700D02*
X204530773Y-195886842D01*
X204530773Y-195886842D02*
X204459344Y-196172557D01*
X204459344Y-196172557D02*
X204387916Y-196315414D01*
X204387916Y-196315414D02*
X204316487Y-196386842D01*
X204316487Y-196386842D02*
X204173630Y-196458271D01*
X204173630Y-196458271D02*
X204030773Y-196458271D01*
X204030773Y-196458271D02*
X203887916Y-196386842D01*
X203887916Y-196386842D02*
X203816487Y-196315414D01*
X203816487Y-196315414D02*
X203745058Y-196172557D01*
X203745058Y-196172557D02*
X203673630Y-195886842D01*
X203673630Y-195886842D02*
X203673630Y-195529700D01*
X203673630Y-195529700D02*
X203745058Y-195243985D01*
X203745058Y-195243985D02*
X203816487Y-195101128D01*
X203816487Y-195101128D02*
X203887916Y-195029700D01*
X203887916Y-195029700D02*
X204030773Y-194958271D01*
X205173629Y-196315414D02*
X205245058Y-196386842D01*
X205245058Y-196386842D02*
X205173629Y-196458271D01*
X205173629Y-196458271D02*
X205102201Y-196386842D01*
X205102201Y-196386842D02*
X205173629Y-196315414D01*
X205173629Y-196315414D02*
X205173629Y-196458271D01*
X206173630Y-194958271D02*
X206316487Y-194958271D01*
X206316487Y-194958271D02*
X206459344Y-195029700D01*
X206459344Y-195029700D02*
X206530773Y-195101128D01*
X206530773Y-195101128D02*
X206602201Y-195243985D01*
X206602201Y-195243985D02*
X206673630Y-195529700D01*
X206673630Y-195529700D02*
X206673630Y-195886842D01*
X206673630Y-195886842D02*
X206602201Y-196172557D01*
X206602201Y-196172557D02*
X206530773Y-196315414D01*
X206530773Y-196315414D02*
X206459344Y-196386842D01*
X206459344Y-196386842D02*
X206316487Y-196458271D01*
X206316487Y-196458271D02*
X206173630Y-196458271D01*
X206173630Y-196458271D02*
X206030773Y-196386842D01*
X206030773Y-196386842D02*
X205959344Y-196315414D01*
X205959344Y-196315414D02*
X205887915Y-196172557D01*
X205887915Y-196172557D02*
X205816487Y-195886842D01*
X205816487Y-195886842D02*
X205816487Y-195529700D01*
X205816487Y-195529700D02*
X205887915Y-195243985D01*
X205887915Y-195243985D02*
X205959344Y-195101128D01*
X205959344Y-195101128D02*
X206030773Y-195029700D01*
X206030773Y-195029700D02*
X206173630Y-194958271D01*
X207173629Y-197029700D02*
X207245058Y-196958271D01*
X207245058Y-196958271D02*
X207387915Y-196743985D01*
X207387915Y-196743985D02*
X207459344Y-196601128D01*
X207459344Y-196601128D02*
X207530772Y-196386842D01*
X207530772Y-196386842D02*
X207602201Y-196029700D01*
X207602201Y-196029700D02*
X207602201Y-195743985D01*
X207602201Y-195743985D02*
X207530772Y-195386842D01*
X207530772Y-195386842D02*
X207459344Y-195172557D01*
X207459344Y-195172557D02*
X207387915Y-195029700D01*
X207387915Y-195029700D02*
X207245058Y-194815414D01*
X207245058Y-194815414D02*
X207173629Y-194743985D01*
D10*
D11*
X177002200Y-191507200D02*
X285002200Y-191507200D01*
D10*
D12*
X264216485Y-193658271D02*
X263716485Y-192943985D01*
X263359342Y-193658271D02*
X263359342Y-192158271D01*
X263359342Y-192158271D02*
X263930771Y-192158271D01*
X263930771Y-192158271D02*
X264073628Y-192229700D01*
X264073628Y-192229700D02*
X264145057Y-192301128D01*
X264145057Y-192301128D02*
X264216485Y-192443985D01*
X264216485Y-192443985D02*
X264216485Y-192658271D01*
X264216485Y-192658271D02*
X264145057Y-192801128D01*
X264145057Y-192801128D02*
X264073628Y-192872557D01*
X264073628Y-192872557D02*
X263930771Y-192943985D01*
X263930771Y-192943985D02*
X263359342Y-192943985D01*
X265430771Y-193586842D02*
X265287914Y-193658271D01*
X265287914Y-193658271D02*
X265002200Y-193658271D01*
X265002200Y-193658271D02*
X264859342Y-193586842D01*
X264859342Y-193586842D02*
X264787914Y-193443985D01*
X264787914Y-193443985D02*
X264787914Y-192872557D01*
X264787914Y-192872557D02*
X264859342Y-192729700D01*
X264859342Y-192729700D02*
X265002200Y-192658271D01*
X265002200Y-192658271D02*
X265287914Y-192658271D01*
X265287914Y-192658271D02*
X265430771Y-192729700D01*
X265430771Y-192729700D02*
X265502200Y-192872557D01*
X265502200Y-192872557D02*
X265502200Y-193015414D01*
X265502200Y-193015414D02*
X264787914Y-193158271D01*
X266002199Y-192658271D02*
X266359342Y-193658271D01*
X266359342Y-193658271D02*
X266716485Y-192658271D01*
X267287913Y-193515414D02*
X267359342Y-193586842D01*
X267359342Y-193586842D02*
X267287913Y-193658271D01*
X267287913Y-193658271D02*
X267216485Y-193586842D01*
X267216485Y-193586842D02*
X267287913Y-193515414D01*
X267287913Y-193515414D02*
X267287913Y-193658271D01*
X267287913Y-192729700D02*
X267359342Y-192801128D01*
X267359342Y-192801128D02*
X267287913Y-192872557D01*
X267287913Y-192872557D02*
X267216485Y-192801128D01*
X267216485Y-192801128D02*
X267287913Y-192729700D01*
X267287913Y-192729700D02*
X267287913Y-192872557D01*
D10*
D11*
X178287914Y-193586842D02*
X178502200Y-193658271D01*
X178502200Y-193658271D02*
X178859342Y-193658271D01*
X178859342Y-193658271D02*
X179002200Y-193586842D01*
X179002200Y-193586842D02*
X179073628Y-193515414D01*
X179073628Y-193515414D02*
X179145057Y-193372557D01*
X179145057Y-193372557D02*
X179145057Y-193229700D01*
X179145057Y-193229700D02*
X179073628Y-193086842D01*
X179073628Y-193086842D02*
X179002200Y-193015414D01*
X179002200Y-193015414D02*
X178859342Y-192943985D01*
X178859342Y-192943985D02*
X178573628Y-192872557D01*
X178573628Y-192872557D02*
X178430771Y-192801128D01*
X178430771Y-192801128D02*
X178359342Y-192729700D01*
X178359342Y-192729700D02*
X178287914Y-192586842D01*
X178287914Y-192586842D02*
X178287914Y-192443985D01*
X178287914Y-192443985D02*
X178359342Y-192301128D01*
X178359342Y-192301128D02*
X178430771Y-192229700D01*
X178430771Y-192229700D02*
X178573628Y-192158271D01*
X178573628Y-192158271D02*
X178930771Y-192158271D01*
X178930771Y-192158271D02*
X179145057Y-192229700D01*
X179787913Y-193658271D02*
X179787913Y-192658271D01*
X179787913Y-192158271D02*
X179716485Y-192229700D01*
X179716485Y-192229700D02*
X179787913Y-192301128D01*
X179787913Y-192301128D02*
X179859342Y-192229700D01*
X179859342Y-192229700D02*
X179787913Y-192158271D01*
X179787913Y-192158271D02*
X179787913Y-192301128D01*
X180359342Y-192658271D02*
X181145057Y-192658271D01*
X181145057Y-192658271D02*
X180359342Y-193658271D01*
X180359342Y-193658271D02*
X181145057Y-193658271D01*
X182287914Y-193586842D02*
X182145057Y-193658271D01*
X182145057Y-193658271D02*
X181859343Y-193658271D01*
X181859343Y-193658271D02*
X181716485Y-193586842D01*
X181716485Y-193586842D02*
X181645057Y-193443985D01*
X181645057Y-193443985D02*
X181645057Y-192872557D01*
X181645057Y-192872557D02*
X181716485Y-192729700D01*
X181716485Y-192729700D02*
X181859343Y-192658271D01*
X181859343Y-192658271D02*
X182145057Y-192658271D01*
X182145057Y-192658271D02*
X182287914Y-192729700D01*
X182287914Y-192729700D02*
X182359343Y-192872557D01*
X182359343Y-192872557D02*
X182359343Y-193015414D01*
X182359343Y-193015414D02*
X181645057Y-193158271D01*
X183002199Y-193515414D02*
X183073628Y-193586842D01*
X183073628Y-193586842D02*
X183002199Y-193658271D01*
X183002199Y-193658271D02*
X182930771Y-193586842D01*
X182930771Y-193586842D02*
X183002199Y-193515414D01*
X183002199Y-193515414D02*
X183002199Y-193658271D01*
X183002199Y-192729700D02*
X183073628Y-192801128D01*
X183073628Y-192801128D02*
X183002199Y-192872557D01*
X183002199Y-192872557D02*
X182930771Y-192801128D01*
X182930771Y-192801128D02*
X183002199Y-192729700D01*
X183002199Y-192729700D02*
X183002199Y-192872557D01*
X184545057Y-193229700D02*
X185259343Y-193229700D01*
X184402200Y-193658271D02*
X184902200Y-192158271D01*
X184902200Y-192158271D02*
X185402200Y-193658271D01*
X186545057Y-192658271D02*
X186545057Y-193658271D01*
X186187914Y-192086842D02*
X185830771Y-193158271D01*
X185830771Y-193158271D02*
X186759342Y-193158271D01*
D10*
D11*
X263359342Y-196458271D02*
X263359342Y-194958271D01*
X264716486Y-196458271D02*
X264716486Y-194958271D01*
X264716486Y-196386842D02*
X264573628Y-196458271D01*
X264573628Y-196458271D02*
X264287914Y-196458271D01*
X264287914Y-196458271D02*
X264145057Y-196386842D01*
X264145057Y-196386842D02*
X264073628Y-196315414D01*
X264073628Y-196315414D02*
X264002200Y-196172557D01*
X264002200Y-196172557D02*
X264002200Y-195743985D01*
X264002200Y-195743985D02*
X264073628Y-195601128D01*
X264073628Y-195601128D02*
X264145057Y-195529700D01*
X264145057Y-195529700D02*
X264287914Y-195458271D01*
X264287914Y-195458271D02*
X264573628Y-195458271D01*
X264573628Y-195458271D02*
X264716486Y-195529700D01*
X265430771Y-196315414D02*
X265502200Y-196386842D01*
X265502200Y-196386842D02*
X265430771Y-196458271D01*
X265430771Y-196458271D02*
X265359343Y-196386842D01*
X265359343Y-196386842D02*
X265430771Y-196315414D01*
X265430771Y-196315414D02*
X265430771Y-196458271D01*
X265430771Y-195529700D02*
X265502200Y-195601128D01*
X265502200Y-195601128D02*
X265430771Y-195672557D01*
X265430771Y-195672557D02*
X265359343Y-195601128D01*
X265359343Y-195601128D02*
X265430771Y-195529700D01*
X265430771Y-195529700D02*
X265430771Y-195672557D01*
X267830772Y-196458271D02*
X266973629Y-196458271D01*
X267402200Y-196458271D02*
X267402200Y-194958271D01*
X267402200Y-194958271D02*
X267259343Y-195172557D01*
X267259343Y-195172557D02*
X267116486Y-195315414D01*
X267116486Y-195315414D02*
X266973629Y-195386842D01*
X269545057Y-194886842D02*
X268259343Y-196815414D01*
X270830772Y-196458271D02*
X269973629Y-196458271D01*
X270402200Y-196458271D02*
X270402200Y-194958271D01*
X270402200Y-194958271D02*
X270259343Y-195172557D01*
X270259343Y-195172557D02*
X270116486Y-195315414D01*
X270116486Y-195315414D02*
X269973629Y-195386842D01*
D10*
D11*
X177002200Y-187507200D02*
X285002200Y-187507200D01*
D10*
D13*
X178454580Y-188041961D02*
X179597438Y-188041961D01*
X178776009Y-190041961D02*
X179026009Y-188041961D01*
X180014105Y-190041961D02*
X180180771Y-188708628D01*
X180264105Y-188041961D02*
X180156962Y-188137200D01*
X180156962Y-188137200D02*
X180240295Y-188232438D01*
X180240295Y-188232438D02*
X180347438Y-188137200D01*
X180347438Y-188137200D02*
X180264105Y-188041961D01*
X180264105Y-188041961D02*
X180240295Y-188232438D01*
X180847438Y-188708628D02*
X181609343Y-188708628D01*
X181216486Y-188041961D02*
X181002200Y-189756247D01*
X181002200Y-189756247D02*
X181073629Y-189946723D01*
X181073629Y-189946723D02*
X181252200Y-190041961D01*
X181252200Y-190041961D02*
X181442676Y-190041961D01*
X182395057Y-190041961D02*
X182216486Y-189946723D01*
X182216486Y-189946723D02*
X182145057Y-189756247D01*
X182145057Y-189756247D02*
X182359343Y-188041961D01*
X183930771Y-189946723D02*
X183728390Y-190041961D01*
X183728390Y-190041961D02*
X183347438Y-190041961D01*
X183347438Y-190041961D02*
X183168867Y-189946723D01*
X183168867Y-189946723D02*
X183097438Y-189756247D01*
X183097438Y-189756247D02*
X183192676Y-188994342D01*
X183192676Y-188994342D02*
X183311724Y-188803866D01*
X183311724Y-188803866D02*
X183514105Y-188708628D01*
X183514105Y-188708628D02*
X183895057Y-188708628D01*
X183895057Y-188708628D02*
X184073628Y-188803866D01*
X184073628Y-188803866D02*
X184145057Y-188994342D01*
X184145057Y-188994342D02*
X184121247Y-189184819D01*
X184121247Y-189184819D02*
X183145057Y-189375295D01*
X184895057Y-189851485D02*
X184978391Y-189946723D01*
X184978391Y-189946723D02*
X184871248Y-190041961D01*
X184871248Y-190041961D02*
X184787914Y-189946723D01*
X184787914Y-189946723D02*
X184895057Y-189851485D01*
X184895057Y-189851485D02*
X184871248Y-190041961D01*
X185026010Y-188803866D02*
X185109343Y-188899104D01*
X185109343Y-188899104D02*
X185002200Y-188994342D01*
X185002200Y-188994342D02*
X184918867Y-188899104D01*
X184918867Y-188899104D02*
X185026010Y-188803866D01*
X185026010Y-188803866D02*
X185002200Y-188994342D01*
D10*
D11*
X178859342Y-185472557D02*
X178359342Y-185472557D01*
X178359342Y-186258271D02*
X178359342Y-184758271D01*
X178359342Y-184758271D02*
X179073628Y-184758271D01*
X179645056Y-186258271D02*
X179645056Y-185258271D01*
X179645056Y-184758271D02*
X179573628Y-184829700D01*
X179573628Y-184829700D02*
X179645056Y-184901128D01*
X179645056Y-184901128D02*
X179716485Y-184829700D01*
X179716485Y-184829700D02*
X179645056Y-184758271D01*
X179645056Y-184758271D02*
X179645056Y-184901128D01*
X180573628Y-186258271D02*
X180430771Y-186186842D01*
X180430771Y-186186842D02*
X180359342Y-186043985D01*
X180359342Y-186043985D02*
X180359342Y-184758271D01*
X181716485Y-186186842D02*
X181573628Y-186258271D01*
X181573628Y-186258271D02*
X181287914Y-186258271D01*
X181287914Y-186258271D02*
X181145056Y-186186842D01*
X181145056Y-186186842D02*
X181073628Y-186043985D01*
X181073628Y-186043985D02*
X181073628Y-185472557D01*
X181073628Y-185472557D02*
X181145056Y-185329700D01*
X181145056Y-185329700D02*
X181287914Y-185258271D01*
X181287914Y-185258271D02*
X181573628Y-185258271D01*
X181573628Y-185258271D02*
X181716485Y-185329700D01*
X181716485Y-185329700D02*
X181787914Y-185472557D01*
X181787914Y-185472557D02*
X181787914Y-185615414D01*
X181787914Y-185615414D02*
X181073628Y-185758271D01*
X182430770Y-186115414D02*
X182502199Y-186186842D01*
X182502199Y-186186842D02*
X182430770Y-186258271D01*
X182430770Y-186258271D02*
X182359342Y-186186842D01*
X182359342Y-186186842D02*
X182430770Y-186115414D01*
X182430770Y-186115414D02*
X182430770Y-186258271D01*
X182430770Y-185329700D02*
X182502199Y-185401128D01*
X182502199Y-185401128D02*
X182430770Y-185472557D01*
X182430770Y-185472557D02*
X182359342Y-185401128D01*
X182359342Y-185401128D02*
X182430770Y-185329700D01*
X182430770Y-185329700D02*
X182430770Y-185472557D01*
X184330771Y-184758271D02*
X184616485Y-184758271D01*
X184616485Y-184758271D02*
X184759342Y-184829700D01*
X184759342Y-184829700D02*
X184902199Y-184972557D01*
X184902199Y-184972557D02*
X184973628Y-185258271D01*
X184973628Y-185258271D02*
X184973628Y-185758271D01*
X184973628Y-185758271D02*
X184902199Y-186043985D01*
X184902199Y-186043985D02*
X184759342Y-186186842D01*
X184759342Y-186186842D02*
X184616485Y-186258271D01*
X184616485Y-186258271D02*
X184330771Y-186258271D01*
X184330771Y-186258271D02*
X184187914Y-186186842D01*
X184187914Y-186186842D02*
X184045056Y-186043985D01*
X184045056Y-186043985D02*
X183973628Y-185758271D01*
X183973628Y-185758271D02*
X183973628Y-185258271D01*
X183973628Y-185258271D02*
X184045056Y-184972557D01*
X184045056Y-184972557D02*
X184187914Y-184829700D01*
X184187914Y-184829700D02*
X184330771Y-184758271D01*
X185616485Y-186258271D02*
X185616485Y-184758271D01*
X185616485Y-184758271D02*
X186116485Y-185829700D01*
X186116485Y-185829700D02*
X186616485Y-184758271D01*
X186616485Y-184758271D02*
X186616485Y-186258271D01*
X187330771Y-186258271D02*
X187330771Y-184758271D01*
X188902200Y-186115414D02*
X188830772Y-186186842D01*
X188830772Y-186186842D02*
X188616486Y-186258271D01*
X188616486Y-186258271D02*
X188473629Y-186258271D01*
X188473629Y-186258271D02*
X188259343Y-186186842D01*
X188259343Y-186186842D02*
X188116486Y-186043985D01*
X188116486Y-186043985D02*
X188045057Y-185901128D01*
X188045057Y-185901128D02*
X187973629Y-185615414D01*
X187973629Y-185615414D02*
X187973629Y-185401128D01*
X187973629Y-185401128D02*
X188045057Y-185115414D01*
X188045057Y-185115414D02*
X188116486Y-184972557D01*
X188116486Y-184972557D02*
X188259343Y-184829700D01*
X188259343Y-184829700D02*
X188473629Y-184758271D01*
X188473629Y-184758271D02*
X188616486Y-184758271D01*
X188616486Y-184758271D02*
X188830772Y-184829700D01*
X188830772Y-184829700D02*
X188902200Y-184901128D01*
X190402200Y-186258271D02*
X189902200Y-185543985D01*
X189545057Y-186258271D02*
X189545057Y-184758271D01*
X189545057Y-184758271D02*
X190116486Y-184758271D01*
X190116486Y-184758271D02*
X190259343Y-184829700D01*
X190259343Y-184829700D02*
X190330772Y-184901128D01*
X190330772Y-184901128D02*
X190402200Y-185043985D01*
X190402200Y-185043985D02*
X190402200Y-185258271D01*
X190402200Y-185258271D02*
X190330772Y-185401128D01*
X190330772Y-185401128D02*
X190259343Y-185472557D01*
X190259343Y-185472557D02*
X190116486Y-185543985D01*
X190116486Y-185543985D02*
X189545057Y-185543985D01*
X191330772Y-184758271D02*
X191616486Y-184758271D01*
X191616486Y-184758271D02*
X191759343Y-184829700D01*
X191759343Y-184829700D02*
X191902200Y-184972557D01*
X191902200Y-184972557D02*
X191973629Y-185258271D01*
X191973629Y-185258271D02*
X191973629Y-185758271D01*
X191973629Y-185758271D02*
X191902200Y-186043985D01*
X191902200Y-186043985D02*
X191759343Y-186186842D01*
X191759343Y-186186842D02*
X191616486Y-186258271D01*
X191616486Y-186258271D02*
X191330772Y-186258271D01*
X191330772Y-186258271D02*
X191187915Y-186186842D01*
X191187915Y-186186842D02*
X191045057Y-186043985D01*
X191045057Y-186043985D02*
X190973629Y-185758271D01*
X190973629Y-185758271D02*
X190973629Y-185258271D01*
X190973629Y-185258271D02*
X191045057Y-184972557D01*
X191045057Y-184972557D02*
X191187915Y-184829700D01*
X191187915Y-184829700D02*
X191330772Y-184758271D01*
X192616486Y-186258271D02*
X192616486Y-184758271D01*
X192616486Y-184758271D02*
X193473629Y-186258271D01*
X193473629Y-186258271D02*
X193473629Y-184758271D01*
X195302201Y-186258271D02*
X195159344Y-186186842D01*
X195159344Y-186186842D02*
X195087915Y-186115414D01*
X195087915Y-186115414D02*
X195016487Y-185972557D01*
X195016487Y-185972557D02*
X195016487Y-185543985D01*
X195016487Y-185543985D02*
X195087915Y-185401128D01*
X195087915Y-185401128D02*
X195159344Y-185329700D01*
X195159344Y-185329700D02*
X195302201Y-185258271D01*
X195302201Y-185258271D02*
X195516487Y-185258271D01*
X195516487Y-185258271D02*
X195659344Y-185329700D01*
X195659344Y-185329700D02*
X195730773Y-185401128D01*
X195730773Y-185401128D02*
X195802201Y-185543985D01*
X195802201Y-185543985D02*
X195802201Y-185972557D01*
X195802201Y-185972557D02*
X195730773Y-186115414D01*
X195730773Y-186115414D02*
X195659344Y-186186842D01*
X195659344Y-186186842D02*
X195516487Y-186258271D01*
X195516487Y-186258271D02*
X195302201Y-186258271D01*
X196730773Y-184758271D02*
X197016487Y-184758271D01*
X197016487Y-184758271D02*
X197159344Y-184829700D01*
X197159344Y-184829700D02*
X197302201Y-184972557D01*
X197302201Y-184972557D02*
X197373630Y-185258271D01*
X197373630Y-185258271D02*
X197373630Y-185758271D01*
X197373630Y-185758271D02*
X197302201Y-186043985D01*
X197302201Y-186043985D02*
X197159344Y-186186842D01*
X197159344Y-186186842D02*
X197016487Y-186258271D01*
X197016487Y-186258271D02*
X196730773Y-186258271D01*
X196730773Y-186258271D02*
X196587916Y-186186842D01*
X196587916Y-186186842D02*
X196445058Y-186043985D01*
X196445058Y-186043985D02*
X196373630Y-185758271D01*
X196373630Y-185758271D02*
X196373630Y-185258271D01*
X196373630Y-185258271D02*
X196445058Y-184972557D01*
X196445058Y-184972557D02*
X196587916Y-184829700D01*
X196587916Y-184829700D02*
X196730773Y-184758271D01*
X198016487Y-186115414D02*
X198087916Y-186186842D01*
X198087916Y-186186842D02*
X198016487Y-186258271D01*
X198016487Y-186258271D02*
X197945059Y-186186842D01*
X197945059Y-186186842D02*
X198016487Y-186115414D01*
X198016487Y-186115414D02*
X198016487Y-186258271D01*
X198730773Y-186258271D02*
X198730773Y-184758271D01*
X198873631Y-185686842D02*
X199302202Y-186258271D01*
X199302202Y-185258271D02*
X198730773Y-185829700D01*
X199945059Y-186258271D02*
X199945059Y-185258271D01*
X199945059Y-184758271D02*
X199873631Y-184829700D01*
X199873631Y-184829700D02*
X199945059Y-184901128D01*
X199945059Y-184901128D02*
X200016488Y-184829700D01*
X200016488Y-184829700D02*
X199945059Y-184758271D01*
X199945059Y-184758271D02*
X199945059Y-184901128D01*
X201302203Y-186186842D02*
X201159345Y-186258271D01*
X201159345Y-186258271D02*
X200873631Y-186258271D01*
X200873631Y-186258271D02*
X200730774Y-186186842D01*
X200730774Y-186186842D02*
X200659345Y-186115414D01*
X200659345Y-186115414D02*
X200587917Y-185972557D01*
X200587917Y-185972557D02*
X200587917Y-185543985D01*
X200587917Y-185543985D02*
X200659345Y-185401128D01*
X200659345Y-185401128D02*
X200730774Y-185329700D01*
X200730774Y-185329700D02*
X200873631Y-185258271D01*
X200873631Y-185258271D02*
X201159345Y-185258271D01*
X201159345Y-185258271D02*
X201302203Y-185329700D01*
X202587917Y-186258271D02*
X202587917Y-185472557D01*
X202587917Y-185472557D02*
X202516488Y-185329700D01*
X202516488Y-185329700D02*
X202373631Y-185258271D01*
X202373631Y-185258271D02*
X202087917Y-185258271D01*
X202087917Y-185258271D02*
X201945059Y-185329700D01*
X202587917Y-186186842D02*
X202445059Y-186258271D01*
X202445059Y-186258271D02*
X202087917Y-186258271D01*
X202087917Y-186258271D02*
X201945059Y-186186842D01*
X201945059Y-186186842D02*
X201873631Y-186043985D01*
X201873631Y-186043985D02*
X201873631Y-185901128D01*
X201873631Y-185901128D02*
X201945059Y-185758271D01*
X201945059Y-185758271D02*
X202087917Y-185686842D01*
X202087917Y-185686842D02*
X202445059Y-185686842D01*
X202445059Y-185686842D02*
X202587917Y-185615414D01*
X203945060Y-186258271D02*
X203945060Y-184758271D01*
X203945060Y-186186842D02*
X203802202Y-186258271D01*
X203802202Y-186258271D02*
X203516488Y-186258271D01*
X203516488Y-186258271D02*
X203373631Y-186186842D01*
X203373631Y-186186842D02*
X203302202Y-186115414D01*
X203302202Y-186115414D02*
X203230774Y-185972557D01*
X203230774Y-185972557D02*
X203230774Y-185543985D01*
X203230774Y-185543985D02*
X203302202Y-185401128D01*
X203302202Y-185401128D02*
X203373631Y-185329700D01*
X203373631Y-185329700D02*
X203516488Y-185258271D01*
X203516488Y-185258271D02*
X203802202Y-185258271D01*
X203802202Y-185258271D02*
X203945060Y-185329700D01*
X204302203Y-186401128D02*
X205445060Y-186401128D01*
X205802202Y-185258271D02*
X205802202Y-186758271D01*
X205802202Y-185329700D02*
X205945060Y-185258271D01*
X205945060Y-185258271D02*
X206230774Y-185258271D01*
X206230774Y-185258271D02*
X206373631Y-185329700D01*
X206373631Y-185329700D02*
X206445060Y-185401128D01*
X206445060Y-185401128D02*
X206516488Y-185543985D01*
X206516488Y-185543985D02*
X206516488Y-185972557D01*
X206516488Y-185972557D02*
X206445060Y-186115414D01*
X206445060Y-186115414D02*
X206373631Y-186186842D01*
X206373631Y-186186842D02*
X206230774Y-186258271D01*
X206230774Y-186258271D02*
X205945060Y-186258271D01*
X205945060Y-186258271D02*
X205802202Y-186186842D01*
X207802203Y-186186842D02*
X207659345Y-186258271D01*
X207659345Y-186258271D02*
X207373631Y-186258271D01*
X207373631Y-186258271D02*
X207230774Y-186186842D01*
X207230774Y-186186842D02*
X207159345Y-186115414D01*
X207159345Y-186115414D02*
X207087917Y-185972557D01*
X207087917Y-185972557D02*
X207087917Y-185543985D01*
X207087917Y-185543985D02*
X207159345Y-185401128D01*
X207159345Y-185401128D02*
X207230774Y-185329700D01*
X207230774Y-185329700D02*
X207373631Y-185258271D01*
X207373631Y-185258271D02*
X207659345Y-185258271D01*
X207659345Y-185258271D02*
X207802203Y-185329700D01*
X208445059Y-186258271D02*
X208445059Y-184758271D01*
X208445059Y-185329700D02*
X208587917Y-185258271D01*
X208587917Y-185258271D02*
X208873631Y-185258271D01*
X208873631Y-185258271D02*
X209016488Y-185329700D01*
X209016488Y-185329700D02*
X209087917Y-185401128D01*
X209087917Y-185401128D02*
X209159345Y-185543985D01*
X209159345Y-185543985D02*
X209159345Y-185972557D01*
X209159345Y-185972557D02*
X209087917Y-186115414D01*
X209087917Y-186115414D02*
X209016488Y-186186842D01*
X209016488Y-186186842D02*
X208873631Y-186258271D01*
X208873631Y-186258271D02*
X208587917Y-186258271D01*
X208587917Y-186258271D02*
X208445059Y-186186842D01*
D10*
D11*
X177002200Y-181507200D02*
X285002200Y-181507200D01*
D10*
D11*
X178287914Y-183486842D02*
X178502200Y-183558271D01*
X178502200Y-183558271D02*
X178859342Y-183558271D01*
X178859342Y-183558271D02*
X179002200Y-183486842D01*
X179002200Y-183486842D02*
X179073628Y-183415414D01*
X179073628Y-183415414D02*
X179145057Y-183272557D01*
X179145057Y-183272557D02*
X179145057Y-183129700D01*
X179145057Y-183129700D02*
X179073628Y-182986842D01*
X179073628Y-182986842D02*
X179002200Y-182915414D01*
X179002200Y-182915414D02*
X178859342Y-182843985D01*
X178859342Y-182843985D02*
X178573628Y-182772557D01*
X178573628Y-182772557D02*
X178430771Y-182701128D01*
X178430771Y-182701128D02*
X178359342Y-182629700D01*
X178359342Y-182629700D02*
X178287914Y-182486842D01*
X178287914Y-182486842D02*
X178287914Y-182343985D01*
X178287914Y-182343985D02*
X178359342Y-182201128D01*
X178359342Y-182201128D02*
X178430771Y-182129700D01*
X178430771Y-182129700D02*
X178573628Y-182058271D01*
X178573628Y-182058271D02*
X178930771Y-182058271D01*
X178930771Y-182058271D02*
X179145057Y-182129700D01*
X179787913Y-183558271D02*
X179787913Y-182058271D01*
X180430771Y-183558271D02*
X180430771Y-182772557D01*
X180430771Y-182772557D02*
X180359342Y-182629700D01*
X180359342Y-182629700D02*
X180216485Y-182558271D01*
X180216485Y-182558271D02*
X180002199Y-182558271D01*
X180002199Y-182558271D02*
X179859342Y-182629700D01*
X179859342Y-182629700D02*
X179787913Y-182701128D01*
X181716485Y-183486842D02*
X181573628Y-183558271D01*
X181573628Y-183558271D02*
X181287914Y-183558271D01*
X181287914Y-183558271D02*
X181145056Y-183486842D01*
X181145056Y-183486842D02*
X181073628Y-183343985D01*
X181073628Y-183343985D02*
X181073628Y-182772557D01*
X181073628Y-182772557D02*
X181145056Y-182629700D01*
X181145056Y-182629700D02*
X181287914Y-182558271D01*
X181287914Y-182558271D02*
X181573628Y-182558271D01*
X181573628Y-182558271D02*
X181716485Y-182629700D01*
X181716485Y-182629700D02*
X181787914Y-182772557D01*
X181787914Y-182772557D02*
X181787914Y-182915414D01*
X181787914Y-182915414D02*
X181073628Y-183058271D01*
X183002199Y-183486842D02*
X182859342Y-183558271D01*
X182859342Y-183558271D02*
X182573628Y-183558271D01*
X182573628Y-183558271D02*
X182430770Y-183486842D01*
X182430770Y-183486842D02*
X182359342Y-183343985D01*
X182359342Y-183343985D02*
X182359342Y-182772557D01*
X182359342Y-182772557D02*
X182430770Y-182629700D01*
X182430770Y-182629700D02*
X182573628Y-182558271D01*
X182573628Y-182558271D02*
X182859342Y-182558271D01*
X182859342Y-182558271D02*
X183002199Y-182629700D01*
X183002199Y-182629700D02*
X183073628Y-182772557D01*
X183073628Y-182772557D02*
X183073628Y-182915414D01*
X183073628Y-182915414D02*
X182359342Y-183058271D01*
X183502199Y-182558271D02*
X184073627Y-182558271D01*
X183716484Y-182058271D02*
X183716484Y-183343985D01*
X183716484Y-183343985D02*
X183787913Y-183486842D01*
X183787913Y-183486842D02*
X183930770Y-183558271D01*
X183930770Y-183558271D02*
X184073627Y-183558271D01*
X184573627Y-183415414D02*
X184645056Y-183486842D01*
X184645056Y-183486842D02*
X184573627Y-183558271D01*
X184573627Y-183558271D02*
X184502199Y-183486842D01*
X184502199Y-183486842D02*
X184573627Y-183415414D01*
X184573627Y-183415414D02*
X184573627Y-183558271D01*
X184573627Y-182629700D02*
X184645056Y-182701128D01*
X184645056Y-182701128D02*
X184573627Y-182772557D01*
X184573627Y-182772557D02*
X184502199Y-182701128D01*
X184502199Y-182701128D02*
X184573627Y-182629700D01*
X184573627Y-182629700D02*
X184573627Y-182772557D01*
D10*
D12*
D10*
D11*
D10*
D11*
D10*
D11*
D10*
D11*
D10*
D11*
X197002200Y-191507200D02*
X197002200Y-194507200D01*
D10*
D11*
X261002200Y-191507200D02*
X261002200Y-198007200D01*
X174610476Y-61192619D02*
X174658095Y-61145000D01*
X174658095Y-61145000D02*
X174753333Y-61097380D01*
X174753333Y-61097380D02*
X174991428Y-61097380D01*
X174991428Y-61097380D02*
X175086666Y-61145000D01*
X175086666Y-61145000D02*
X175134285Y-61192619D01*
X175134285Y-61192619D02*
X175181904Y-61287857D01*
X175181904Y-61287857D02*
X175181904Y-61383095D01*
X175181904Y-61383095D02*
X175134285Y-61525952D01*
X175134285Y-61525952D02*
X174562857Y-62097380D01*
X174562857Y-62097380D02*
X175181904Y-62097380D01*
X175562857Y-61192619D02*
X175610476Y-61145000D01*
X175610476Y-61145000D02*
X175705714Y-61097380D01*
X175705714Y-61097380D02*
X175943809Y-61097380D01*
X175943809Y-61097380D02*
X176039047Y-61145000D01*
X176039047Y-61145000D02*
X176086666Y-61192619D01*
X176086666Y-61192619D02*
X176134285Y-61287857D01*
X176134285Y-61287857D02*
X176134285Y-61383095D01*
X176134285Y-61383095D02*
X176086666Y-61525952D01*
X176086666Y-61525952D02*
X175515238Y-62097380D01*
X175515238Y-62097380D02*
X176134285Y-62097380D01*
X176753333Y-61097380D02*
X176848571Y-61097380D01*
X176848571Y-61097380D02*
X176943809Y-61145000D01*
X176943809Y-61145000D02*
X176991428Y-61192619D01*
X176991428Y-61192619D02*
X177039047Y-61287857D01*
X177039047Y-61287857D02*
X177086666Y-61478333D01*
X177086666Y-61478333D02*
X177086666Y-61716428D01*
X177086666Y-61716428D02*
X177039047Y-61906904D01*
X177039047Y-61906904D02*
X176991428Y-62002142D01*
X176991428Y-62002142D02*
X176943809Y-62049761D01*
X176943809Y-62049761D02*
X176848571Y-62097380D01*
X176848571Y-62097380D02*
X176753333Y-62097380D01*
X176753333Y-62097380D02*
X176658095Y-62049761D01*
X176658095Y-62049761D02*
X176610476Y-62002142D01*
X176610476Y-62002142D02*
X176562857Y-61906904D01*
X176562857Y-61906904D02*
X176515238Y-61716428D01*
X176515238Y-61716428D02*
X176515238Y-61478333D01*
X176515238Y-61478333D02*
X176562857Y-61287857D01*
X176562857Y-61287857D02*
X176610476Y-61192619D01*
X176610476Y-61192619D02*
X176658095Y-61145000D01*
X176658095Y-61145000D02*
X176753333Y-61097380D01*
X178067619Y-62097380D02*
X178305714Y-62097380D01*
X178305714Y-62097380D02*
X178305714Y-61906904D01*
X178305714Y-61906904D02*
X178210476Y-61859285D01*
X178210476Y-61859285D02*
X178115238Y-61764047D01*
X178115238Y-61764047D02*
X178067619Y-61621190D01*
X178067619Y-61621190D02*
X178067619Y-61383095D01*
X178067619Y-61383095D02*
X178115238Y-61240238D01*
X178115238Y-61240238D02*
X178210476Y-61145000D01*
X178210476Y-61145000D02*
X178353333Y-61097380D01*
X178353333Y-61097380D02*
X178543809Y-61097380D01*
X178543809Y-61097380D02*
X178686666Y-61145000D01*
X178686666Y-61145000D02*
X178781904Y-61240238D01*
X178781904Y-61240238D02*
X178829523Y-61383095D01*
X178829523Y-61383095D02*
X178829523Y-61621190D01*
X178829523Y-61621190D02*
X178781904Y-61764047D01*
X178781904Y-61764047D02*
X178686666Y-61859285D01*
X178686666Y-61859285D02*
X178591428Y-61906904D01*
X178591428Y-61906904D02*
X178591428Y-62097380D01*
X178591428Y-62097380D02*
X178829523Y-62097380D01*
X162950476Y-61182619D02*
X162998095Y-61135000D01*
X162998095Y-61135000D02*
X163093333Y-61087380D01*
X163093333Y-61087380D02*
X163331428Y-61087380D01*
X163331428Y-61087380D02*
X163426666Y-61135000D01*
X163426666Y-61135000D02*
X163474285Y-61182619D01*
X163474285Y-61182619D02*
X163521904Y-61277857D01*
X163521904Y-61277857D02*
X163521904Y-61373095D01*
X163521904Y-61373095D02*
X163474285Y-61515952D01*
X163474285Y-61515952D02*
X162902857Y-62087380D01*
X162902857Y-62087380D02*
X163521904Y-62087380D01*
X163902857Y-61182619D02*
X163950476Y-61135000D01*
X163950476Y-61135000D02*
X164045714Y-61087380D01*
X164045714Y-61087380D02*
X164283809Y-61087380D01*
X164283809Y-61087380D02*
X164379047Y-61135000D01*
X164379047Y-61135000D02*
X164426666Y-61182619D01*
X164426666Y-61182619D02*
X164474285Y-61277857D01*
X164474285Y-61277857D02*
X164474285Y-61373095D01*
X164474285Y-61373095D02*
X164426666Y-61515952D01*
X164426666Y-61515952D02*
X163855238Y-62087380D01*
X163855238Y-62087380D02*
X164474285Y-62087380D01*
X165093333Y-61087380D02*
X165188571Y-61087380D01*
X165188571Y-61087380D02*
X165283809Y-61135000D01*
X165283809Y-61135000D02*
X165331428Y-61182619D01*
X165331428Y-61182619D02*
X165379047Y-61277857D01*
X165379047Y-61277857D02*
X165426666Y-61468333D01*
X165426666Y-61468333D02*
X165426666Y-61706428D01*
X165426666Y-61706428D02*
X165379047Y-61896904D01*
X165379047Y-61896904D02*
X165331428Y-61992142D01*
X165331428Y-61992142D02*
X165283809Y-62039761D01*
X165283809Y-62039761D02*
X165188571Y-62087380D01*
X165188571Y-62087380D02*
X165093333Y-62087380D01*
X165093333Y-62087380D02*
X164998095Y-62039761D01*
X164998095Y-62039761D02*
X164950476Y-61992142D01*
X164950476Y-61992142D02*
X164902857Y-61896904D01*
X164902857Y-61896904D02*
X164855238Y-61706428D01*
X164855238Y-61706428D02*
X164855238Y-61468333D01*
X164855238Y-61468333D02*
X164902857Y-61277857D01*
X164902857Y-61277857D02*
X164950476Y-61182619D01*
X164950476Y-61182619D02*
X164998095Y-61135000D01*
X164998095Y-61135000D02*
X165093333Y-61087380D01*
X166407619Y-62087380D02*
X166645714Y-62087380D01*
X166645714Y-62087380D02*
X166645714Y-61896904D01*
X166645714Y-61896904D02*
X166550476Y-61849285D01*
X166550476Y-61849285D02*
X166455238Y-61754047D01*
X166455238Y-61754047D02*
X166407619Y-61611190D01*
X166407619Y-61611190D02*
X166407619Y-61373095D01*
X166407619Y-61373095D02*
X166455238Y-61230238D01*
X166455238Y-61230238D02*
X166550476Y-61135000D01*
X166550476Y-61135000D02*
X166693333Y-61087380D01*
X166693333Y-61087380D02*
X166883809Y-61087380D01*
X166883809Y-61087380D02*
X167026666Y-61135000D01*
X167026666Y-61135000D02*
X167121904Y-61230238D01*
X167121904Y-61230238D02*
X167169523Y-61373095D01*
X167169523Y-61373095D02*
X167169523Y-61611190D01*
X167169523Y-61611190D02*
X167121904Y-61754047D01*
X167121904Y-61754047D02*
X167026666Y-61849285D01*
X167026666Y-61849285D02*
X166931428Y-61896904D01*
X166931428Y-61896904D02*
X166931428Y-62087380D01*
X166931428Y-62087380D02*
X167169523Y-62087380D01*
X208170476Y-61252619D02*
X208218095Y-61205000D01*
X208218095Y-61205000D02*
X208313333Y-61157380D01*
X208313333Y-61157380D02*
X208551428Y-61157380D01*
X208551428Y-61157380D02*
X208646666Y-61205000D01*
X208646666Y-61205000D02*
X208694285Y-61252619D01*
X208694285Y-61252619D02*
X208741904Y-61347857D01*
X208741904Y-61347857D02*
X208741904Y-61443095D01*
X208741904Y-61443095D02*
X208694285Y-61585952D01*
X208694285Y-61585952D02*
X208122857Y-62157380D01*
X208122857Y-62157380D02*
X208741904Y-62157380D01*
X209122857Y-61252619D02*
X209170476Y-61205000D01*
X209170476Y-61205000D02*
X209265714Y-61157380D01*
X209265714Y-61157380D02*
X209503809Y-61157380D01*
X209503809Y-61157380D02*
X209599047Y-61205000D01*
X209599047Y-61205000D02*
X209646666Y-61252619D01*
X209646666Y-61252619D02*
X209694285Y-61347857D01*
X209694285Y-61347857D02*
X209694285Y-61443095D01*
X209694285Y-61443095D02*
X209646666Y-61585952D01*
X209646666Y-61585952D02*
X209075238Y-62157380D01*
X209075238Y-62157380D02*
X209694285Y-62157380D01*
X210313333Y-61157380D02*
X210408571Y-61157380D01*
X210408571Y-61157380D02*
X210503809Y-61205000D01*
X210503809Y-61205000D02*
X210551428Y-61252619D01*
X210551428Y-61252619D02*
X210599047Y-61347857D01*
X210599047Y-61347857D02*
X210646666Y-61538333D01*
X210646666Y-61538333D02*
X210646666Y-61776428D01*
X210646666Y-61776428D02*
X210599047Y-61966904D01*
X210599047Y-61966904D02*
X210551428Y-62062142D01*
X210551428Y-62062142D02*
X210503809Y-62109761D01*
X210503809Y-62109761D02*
X210408571Y-62157380D01*
X210408571Y-62157380D02*
X210313333Y-62157380D01*
X210313333Y-62157380D02*
X210218095Y-62109761D01*
X210218095Y-62109761D02*
X210170476Y-62062142D01*
X210170476Y-62062142D02*
X210122857Y-61966904D01*
X210122857Y-61966904D02*
X210075238Y-61776428D01*
X210075238Y-61776428D02*
X210075238Y-61538333D01*
X210075238Y-61538333D02*
X210122857Y-61347857D01*
X210122857Y-61347857D02*
X210170476Y-61252619D01*
X210170476Y-61252619D02*
X210218095Y-61205000D01*
X210218095Y-61205000D02*
X210313333Y-61157380D01*
X211627619Y-62157380D02*
X211865714Y-62157380D01*
X211865714Y-62157380D02*
X211865714Y-61966904D01*
X211865714Y-61966904D02*
X211770476Y-61919285D01*
X211770476Y-61919285D02*
X211675238Y-61824047D01*
X211675238Y-61824047D02*
X211627619Y-61681190D01*
X211627619Y-61681190D02*
X211627619Y-61443095D01*
X211627619Y-61443095D02*
X211675238Y-61300238D01*
X211675238Y-61300238D02*
X211770476Y-61205000D01*
X211770476Y-61205000D02*
X211913333Y-61157380D01*
X211913333Y-61157380D02*
X212103809Y-61157380D01*
X212103809Y-61157380D02*
X212246666Y-61205000D01*
X212246666Y-61205000D02*
X212341904Y-61300238D01*
X212341904Y-61300238D02*
X212389523Y-61443095D01*
X212389523Y-61443095D02*
X212389523Y-61681190D01*
X212389523Y-61681190D02*
X212341904Y-61824047D01*
X212341904Y-61824047D02*
X212246666Y-61919285D01*
X212246666Y-61919285D02*
X212151428Y-61966904D01*
X212151428Y-61966904D02*
X212151428Y-62157380D01*
X212151428Y-62157380D02*
X212389523Y-62157380D01*
X151460476Y-61272619D02*
X151508095Y-61225000D01*
X151508095Y-61225000D02*
X151603333Y-61177380D01*
X151603333Y-61177380D02*
X151841428Y-61177380D01*
X151841428Y-61177380D02*
X151936666Y-61225000D01*
X151936666Y-61225000D02*
X151984285Y-61272619D01*
X151984285Y-61272619D02*
X152031904Y-61367857D01*
X152031904Y-61367857D02*
X152031904Y-61463095D01*
X152031904Y-61463095D02*
X151984285Y-61605952D01*
X151984285Y-61605952D02*
X151412857Y-62177380D01*
X151412857Y-62177380D02*
X152031904Y-62177380D01*
X152412857Y-61272619D02*
X152460476Y-61225000D01*
X152460476Y-61225000D02*
X152555714Y-61177380D01*
X152555714Y-61177380D02*
X152793809Y-61177380D01*
X152793809Y-61177380D02*
X152889047Y-61225000D01*
X152889047Y-61225000D02*
X152936666Y-61272619D01*
X152936666Y-61272619D02*
X152984285Y-61367857D01*
X152984285Y-61367857D02*
X152984285Y-61463095D01*
X152984285Y-61463095D02*
X152936666Y-61605952D01*
X152936666Y-61605952D02*
X152365238Y-62177380D01*
X152365238Y-62177380D02*
X152984285Y-62177380D01*
X153603333Y-61177380D02*
X153698571Y-61177380D01*
X153698571Y-61177380D02*
X153793809Y-61225000D01*
X153793809Y-61225000D02*
X153841428Y-61272619D01*
X153841428Y-61272619D02*
X153889047Y-61367857D01*
X153889047Y-61367857D02*
X153936666Y-61558333D01*
X153936666Y-61558333D02*
X153936666Y-61796428D01*
X153936666Y-61796428D02*
X153889047Y-61986904D01*
X153889047Y-61986904D02*
X153841428Y-62082142D01*
X153841428Y-62082142D02*
X153793809Y-62129761D01*
X153793809Y-62129761D02*
X153698571Y-62177380D01*
X153698571Y-62177380D02*
X153603333Y-62177380D01*
X153603333Y-62177380D02*
X153508095Y-62129761D01*
X153508095Y-62129761D02*
X153460476Y-62082142D01*
X153460476Y-62082142D02*
X153412857Y-61986904D01*
X153412857Y-61986904D02*
X153365238Y-61796428D01*
X153365238Y-61796428D02*
X153365238Y-61558333D01*
X153365238Y-61558333D02*
X153412857Y-61367857D01*
X153412857Y-61367857D02*
X153460476Y-61272619D01*
X153460476Y-61272619D02*
X153508095Y-61225000D01*
X153508095Y-61225000D02*
X153603333Y-61177380D01*
X154917619Y-62177380D02*
X155155714Y-62177380D01*
X155155714Y-62177380D02*
X155155714Y-61986904D01*
X155155714Y-61986904D02*
X155060476Y-61939285D01*
X155060476Y-61939285D02*
X154965238Y-61844047D01*
X154965238Y-61844047D02*
X154917619Y-61701190D01*
X154917619Y-61701190D02*
X154917619Y-61463095D01*
X154917619Y-61463095D02*
X154965238Y-61320238D01*
X154965238Y-61320238D02*
X155060476Y-61225000D01*
X155060476Y-61225000D02*
X155203333Y-61177380D01*
X155203333Y-61177380D02*
X155393809Y-61177380D01*
X155393809Y-61177380D02*
X155536666Y-61225000D01*
X155536666Y-61225000D02*
X155631904Y-61320238D01*
X155631904Y-61320238D02*
X155679523Y-61463095D01*
X155679523Y-61463095D02*
X155679523Y-61701190D01*
X155679523Y-61701190D02*
X155631904Y-61844047D01*
X155631904Y-61844047D02*
X155536666Y-61939285D01*
X155536666Y-61939285D02*
X155441428Y-61986904D01*
X155441428Y-61986904D02*
X155441428Y-62177380D01*
X155441428Y-62177380D02*
X155679523Y-62177380D01*
X140440476Y-61312619D02*
X140488095Y-61265000D01*
X140488095Y-61265000D02*
X140583333Y-61217380D01*
X140583333Y-61217380D02*
X140821428Y-61217380D01*
X140821428Y-61217380D02*
X140916666Y-61265000D01*
X140916666Y-61265000D02*
X140964285Y-61312619D01*
X140964285Y-61312619D02*
X141011904Y-61407857D01*
X141011904Y-61407857D02*
X141011904Y-61503095D01*
X141011904Y-61503095D02*
X140964285Y-61645952D01*
X140964285Y-61645952D02*
X140392857Y-62217380D01*
X140392857Y-62217380D02*
X141011904Y-62217380D01*
X141392857Y-61312619D02*
X141440476Y-61265000D01*
X141440476Y-61265000D02*
X141535714Y-61217380D01*
X141535714Y-61217380D02*
X141773809Y-61217380D01*
X141773809Y-61217380D02*
X141869047Y-61265000D01*
X141869047Y-61265000D02*
X141916666Y-61312619D01*
X141916666Y-61312619D02*
X141964285Y-61407857D01*
X141964285Y-61407857D02*
X141964285Y-61503095D01*
X141964285Y-61503095D02*
X141916666Y-61645952D01*
X141916666Y-61645952D02*
X141345238Y-62217380D01*
X141345238Y-62217380D02*
X141964285Y-62217380D01*
X142583333Y-61217380D02*
X142678571Y-61217380D01*
X142678571Y-61217380D02*
X142773809Y-61265000D01*
X142773809Y-61265000D02*
X142821428Y-61312619D01*
X142821428Y-61312619D02*
X142869047Y-61407857D01*
X142869047Y-61407857D02*
X142916666Y-61598333D01*
X142916666Y-61598333D02*
X142916666Y-61836428D01*
X142916666Y-61836428D02*
X142869047Y-62026904D01*
X142869047Y-62026904D02*
X142821428Y-62122142D01*
X142821428Y-62122142D02*
X142773809Y-62169761D01*
X142773809Y-62169761D02*
X142678571Y-62217380D01*
X142678571Y-62217380D02*
X142583333Y-62217380D01*
X142583333Y-62217380D02*
X142488095Y-62169761D01*
X142488095Y-62169761D02*
X142440476Y-62122142D01*
X142440476Y-62122142D02*
X142392857Y-62026904D01*
X142392857Y-62026904D02*
X142345238Y-61836428D01*
X142345238Y-61836428D02*
X142345238Y-61598333D01*
X142345238Y-61598333D02*
X142392857Y-61407857D01*
X142392857Y-61407857D02*
X142440476Y-61312619D01*
X142440476Y-61312619D02*
X142488095Y-61265000D01*
X142488095Y-61265000D02*
X142583333Y-61217380D01*
X143897619Y-62217380D02*
X144135714Y-62217380D01*
X144135714Y-62217380D02*
X144135714Y-62026904D01*
X144135714Y-62026904D02*
X144040476Y-61979285D01*
X144040476Y-61979285D02*
X143945238Y-61884047D01*
X143945238Y-61884047D02*
X143897619Y-61741190D01*
X143897619Y-61741190D02*
X143897619Y-61503095D01*
X143897619Y-61503095D02*
X143945238Y-61360238D01*
X143945238Y-61360238D02*
X144040476Y-61265000D01*
X144040476Y-61265000D02*
X144183333Y-61217380D01*
X144183333Y-61217380D02*
X144373809Y-61217380D01*
X144373809Y-61217380D02*
X144516666Y-61265000D01*
X144516666Y-61265000D02*
X144611904Y-61360238D01*
X144611904Y-61360238D02*
X144659523Y-61503095D01*
X144659523Y-61503095D02*
X144659523Y-61741190D01*
X144659523Y-61741190D02*
X144611904Y-61884047D01*
X144611904Y-61884047D02*
X144516666Y-61979285D01*
X144516666Y-61979285D02*
X144421428Y-62026904D01*
X144421428Y-62026904D02*
X144421428Y-62217380D01*
X144421428Y-62217380D02*
X144659523Y-62217380D01*
X131190476Y-61312619D02*
X131238095Y-61265000D01*
X131238095Y-61265000D02*
X131333333Y-61217380D01*
X131333333Y-61217380D02*
X131571428Y-61217380D01*
X131571428Y-61217380D02*
X131666666Y-61265000D01*
X131666666Y-61265000D02*
X131714285Y-61312619D01*
X131714285Y-61312619D02*
X131761904Y-61407857D01*
X131761904Y-61407857D02*
X131761904Y-61503095D01*
X131761904Y-61503095D02*
X131714285Y-61645952D01*
X131714285Y-61645952D02*
X131142857Y-62217380D01*
X131142857Y-62217380D02*
X131761904Y-62217380D01*
X132142857Y-61312619D02*
X132190476Y-61265000D01*
X132190476Y-61265000D02*
X132285714Y-61217380D01*
X132285714Y-61217380D02*
X132523809Y-61217380D01*
X132523809Y-61217380D02*
X132619047Y-61265000D01*
X132619047Y-61265000D02*
X132666666Y-61312619D01*
X132666666Y-61312619D02*
X132714285Y-61407857D01*
X132714285Y-61407857D02*
X132714285Y-61503095D01*
X132714285Y-61503095D02*
X132666666Y-61645952D01*
X132666666Y-61645952D02*
X132095238Y-62217380D01*
X132095238Y-62217380D02*
X132714285Y-62217380D01*
X133333333Y-61217380D02*
X133428571Y-61217380D01*
X133428571Y-61217380D02*
X133523809Y-61265000D01*
X133523809Y-61265000D02*
X133571428Y-61312619D01*
X133571428Y-61312619D02*
X133619047Y-61407857D01*
X133619047Y-61407857D02*
X133666666Y-61598333D01*
X133666666Y-61598333D02*
X133666666Y-61836428D01*
X133666666Y-61836428D02*
X133619047Y-62026904D01*
X133619047Y-62026904D02*
X133571428Y-62122142D01*
X133571428Y-62122142D02*
X133523809Y-62169761D01*
X133523809Y-62169761D02*
X133428571Y-62217380D01*
X133428571Y-62217380D02*
X133333333Y-62217380D01*
X133333333Y-62217380D02*
X133238095Y-62169761D01*
X133238095Y-62169761D02*
X133190476Y-62122142D01*
X133190476Y-62122142D02*
X133142857Y-62026904D01*
X133142857Y-62026904D02*
X133095238Y-61836428D01*
X133095238Y-61836428D02*
X133095238Y-61598333D01*
X133095238Y-61598333D02*
X133142857Y-61407857D01*
X133142857Y-61407857D02*
X133190476Y-61312619D01*
X133190476Y-61312619D02*
X133238095Y-61265000D01*
X133238095Y-61265000D02*
X133333333Y-61217380D01*
X134647619Y-62217380D02*
X134885714Y-62217380D01*
X134885714Y-62217380D02*
X134885714Y-62026904D01*
X134885714Y-62026904D02*
X134790476Y-61979285D01*
X134790476Y-61979285D02*
X134695238Y-61884047D01*
X134695238Y-61884047D02*
X134647619Y-61741190D01*
X134647619Y-61741190D02*
X134647619Y-61503095D01*
X134647619Y-61503095D02*
X134695238Y-61360238D01*
X134695238Y-61360238D02*
X134790476Y-61265000D01*
X134790476Y-61265000D02*
X134933333Y-61217380D01*
X134933333Y-61217380D02*
X135123809Y-61217380D01*
X135123809Y-61217380D02*
X135266666Y-61265000D01*
X135266666Y-61265000D02*
X135361904Y-61360238D01*
X135361904Y-61360238D02*
X135409523Y-61503095D01*
X135409523Y-61503095D02*
X135409523Y-61741190D01*
X135409523Y-61741190D02*
X135361904Y-61884047D01*
X135361904Y-61884047D02*
X135266666Y-61979285D01*
X135266666Y-61979285D02*
X135171428Y-62026904D01*
X135171428Y-62026904D02*
X135171428Y-62217380D01*
X135171428Y-62217380D02*
X135409523Y-62217380D01*
X186720476Y-61192619D02*
X186768095Y-61145000D01*
X186768095Y-61145000D02*
X186863333Y-61097380D01*
X186863333Y-61097380D02*
X187101428Y-61097380D01*
X187101428Y-61097380D02*
X187196666Y-61145000D01*
X187196666Y-61145000D02*
X187244285Y-61192619D01*
X187244285Y-61192619D02*
X187291904Y-61287857D01*
X187291904Y-61287857D02*
X187291904Y-61383095D01*
X187291904Y-61383095D02*
X187244285Y-61525952D01*
X187244285Y-61525952D02*
X186672857Y-62097380D01*
X186672857Y-62097380D02*
X187291904Y-62097380D01*
X187672857Y-61192619D02*
X187720476Y-61145000D01*
X187720476Y-61145000D02*
X187815714Y-61097380D01*
X187815714Y-61097380D02*
X188053809Y-61097380D01*
X188053809Y-61097380D02*
X188149047Y-61145000D01*
X188149047Y-61145000D02*
X188196666Y-61192619D01*
X188196666Y-61192619D02*
X188244285Y-61287857D01*
X188244285Y-61287857D02*
X188244285Y-61383095D01*
X188244285Y-61383095D02*
X188196666Y-61525952D01*
X188196666Y-61525952D02*
X187625238Y-62097380D01*
X187625238Y-62097380D02*
X188244285Y-62097380D01*
X188863333Y-61097380D02*
X188958571Y-61097380D01*
X188958571Y-61097380D02*
X189053809Y-61145000D01*
X189053809Y-61145000D02*
X189101428Y-61192619D01*
X189101428Y-61192619D02*
X189149047Y-61287857D01*
X189149047Y-61287857D02*
X189196666Y-61478333D01*
X189196666Y-61478333D02*
X189196666Y-61716428D01*
X189196666Y-61716428D02*
X189149047Y-61906904D01*
X189149047Y-61906904D02*
X189101428Y-62002142D01*
X189101428Y-62002142D02*
X189053809Y-62049761D01*
X189053809Y-62049761D02*
X188958571Y-62097380D01*
X188958571Y-62097380D02*
X188863333Y-62097380D01*
X188863333Y-62097380D02*
X188768095Y-62049761D01*
X188768095Y-62049761D02*
X188720476Y-62002142D01*
X188720476Y-62002142D02*
X188672857Y-61906904D01*
X188672857Y-61906904D02*
X188625238Y-61716428D01*
X188625238Y-61716428D02*
X188625238Y-61478333D01*
X188625238Y-61478333D02*
X188672857Y-61287857D01*
X188672857Y-61287857D02*
X188720476Y-61192619D01*
X188720476Y-61192619D02*
X188768095Y-61145000D01*
X188768095Y-61145000D02*
X188863333Y-61097380D01*
X190177619Y-62097380D02*
X190415714Y-62097380D01*
X190415714Y-62097380D02*
X190415714Y-61906904D01*
X190415714Y-61906904D02*
X190320476Y-61859285D01*
X190320476Y-61859285D02*
X190225238Y-61764047D01*
X190225238Y-61764047D02*
X190177619Y-61621190D01*
X190177619Y-61621190D02*
X190177619Y-61383095D01*
X190177619Y-61383095D02*
X190225238Y-61240238D01*
X190225238Y-61240238D02*
X190320476Y-61145000D01*
X190320476Y-61145000D02*
X190463333Y-61097380D01*
X190463333Y-61097380D02*
X190653809Y-61097380D01*
X190653809Y-61097380D02*
X190796666Y-61145000D01*
X190796666Y-61145000D02*
X190891904Y-61240238D01*
X190891904Y-61240238D02*
X190939523Y-61383095D01*
X190939523Y-61383095D02*
X190939523Y-61621190D01*
X190939523Y-61621190D02*
X190891904Y-61764047D01*
X190891904Y-61764047D02*
X190796666Y-61859285D01*
X190796666Y-61859285D02*
X190701428Y-61906904D01*
X190701428Y-61906904D02*
X190701428Y-62097380D01*
X190701428Y-62097380D02*
X190939523Y-62097380D01*
%TO.C,U2*%
X191151904Y-81787380D02*
X191151904Y-82596904D01*
X191151904Y-82596904D02*
X191104285Y-82692142D01*
X191104285Y-82692142D02*
X191056666Y-82739761D01*
X191056666Y-82739761D02*
X190961428Y-82787380D01*
X190961428Y-82787380D02*
X190770952Y-82787380D01*
X190770952Y-82787380D02*
X190675714Y-82739761D01*
X190675714Y-82739761D02*
X190628095Y-82692142D01*
X190628095Y-82692142D02*
X190580476Y-82596904D01*
X190580476Y-82596904D02*
X190580476Y-81787380D01*
X190151904Y-81882619D02*
X190104285Y-81835000D01*
X190104285Y-81835000D02*
X190009047Y-81787380D01*
X190009047Y-81787380D02*
X189770952Y-81787380D01*
X189770952Y-81787380D02*
X189675714Y-81835000D01*
X189675714Y-81835000D02*
X189628095Y-81882619D01*
X189628095Y-81882619D02*
X189580476Y-81977857D01*
X189580476Y-81977857D02*
X189580476Y-82073095D01*
X189580476Y-82073095D02*
X189628095Y-82215952D01*
X189628095Y-82215952D02*
X190199523Y-82787380D01*
X190199523Y-82787380D02*
X189580476Y-82787380D01*
X178354284Y-82287380D02*
X178020951Y-83287380D01*
X178020951Y-83287380D02*
X177687618Y-82287380D01*
X177354284Y-83287380D02*
X177354284Y-82287380D01*
X176878094Y-83287380D02*
X176878094Y-82287380D01*
X176878094Y-82287380D02*
X176306666Y-83287380D01*
X176306666Y-83287380D02*
X176306666Y-82287380D01*
X175830475Y-82906428D02*
X175068571Y-82906428D01*
X178354284Y-69287380D02*
X178020951Y-70287380D01*
X178020951Y-70287380D02*
X177687618Y-69287380D01*
X177354284Y-70287380D02*
X177354284Y-69287380D01*
X176878094Y-70287380D02*
X176878094Y-69287380D01*
X176878094Y-69287380D02*
X176306666Y-70287380D01*
X176306666Y-70287380D02*
X176306666Y-69287380D01*
X175830475Y-69906428D02*
X175068571Y-69906428D01*
X175449523Y-70287380D02*
X175449523Y-69525476D01*
X209020951Y-82287380D02*
X208687618Y-83287380D01*
X208687618Y-83287380D02*
X208354285Y-82287380D01*
X207830475Y-82287380D02*
X207639999Y-82287380D01*
X207639999Y-82287380D02*
X207544761Y-82335000D01*
X207544761Y-82335000D02*
X207449523Y-82430238D01*
X207449523Y-82430238D02*
X207401904Y-82620714D01*
X207401904Y-82620714D02*
X207401904Y-82954047D01*
X207401904Y-82954047D02*
X207449523Y-83144523D01*
X207449523Y-83144523D02*
X207544761Y-83239761D01*
X207544761Y-83239761D02*
X207639999Y-83287380D01*
X207639999Y-83287380D02*
X207830475Y-83287380D01*
X207830475Y-83287380D02*
X207925713Y-83239761D01*
X207925713Y-83239761D02*
X208020951Y-83144523D01*
X208020951Y-83144523D02*
X208068570Y-82954047D01*
X208068570Y-82954047D02*
X208068570Y-82620714D01*
X208068570Y-82620714D02*
X208020951Y-82430238D01*
X208020951Y-82430238D02*
X207925713Y-82335000D01*
X207925713Y-82335000D02*
X207830475Y-82287380D01*
X206973332Y-82287380D02*
X206973332Y-83096904D01*
X206973332Y-83096904D02*
X206925713Y-83192142D01*
X206925713Y-83192142D02*
X206878094Y-83239761D01*
X206878094Y-83239761D02*
X206782856Y-83287380D01*
X206782856Y-83287380D02*
X206592380Y-83287380D01*
X206592380Y-83287380D02*
X206497142Y-83239761D01*
X206497142Y-83239761D02*
X206449523Y-83192142D01*
X206449523Y-83192142D02*
X206401904Y-83096904D01*
X206401904Y-83096904D02*
X206401904Y-82287380D01*
X206068570Y-82287380D02*
X205497142Y-82287380D01*
X205782856Y-83287380D02*
X205782856Y-82287380D01*
X205163808Y-82906428D02*
X204401904Y-82906428D01*
X209020951Y-69287380D02*
X208687618Y-70287380D01*
X208687618Y-70287380D02*
X208354285Y-69287380D01*
X207830475Y-69287380D02*
X207639999Y-69287380D01*
X207639999Y-69287380D02*
X207544761Y-69335000D01*
X207544761Y-69335000D02*
X207449523Y-69430238D01*
X207449523Y-69430238D02*
X207401904Y-69620714D01*
X207401904Y-69620714D02*
X207401904Y-69954047D01*
X207401904Y-69954047D02*
X207449523Y-70144523D01*
X207449523Y-70144523D02*
X207544761Y-70239761D01*
X207544761Y-70239761D02*
X207639999Y-70287380D01*
X207639999Y-70287380D02*
X207830475Y-70287380D01*
X207830475Y-70287380D02*
X207925713Y-70239761D01*
X207925713Y-70239761D02*
X208020951Y-70144523D01*
X208020951Y-70144523D02*
X208068570Y-69954047D01*
X208068570Y-69954047D02*
X208068570Y-69620714D01*
X208068570Y-69620714D02*
X208020951Y-69430238D01*
X208020951Y-69430238D02*
X207925713Y-69335000D01*
X207925713Y-69335000D02*
X207830475Y-69287380D01*
X206973332Y-69287380D02*
X206973332Y-70096904D01*
X206973332Y-70096904D02*
X206925713Y-70192142D01*
X206925713Y-70192142D02*
X206878094Y-70239761D01*
X206878094Y-70239761D02*
X206782856Y-70287380D01*
X206782856Y-70287380D02*
X206592380Y-70287380D01*
X206592380Y-70287380D02*
X206497142Y-70239761D01*
X206497142Y-70239761D02*
X206449523Y-70192142D01*
X206449523Y-70192142D02*
X206401904Y-70096904D01*
X206401904Y-70096904D02*
X206401904Y-69287380D01*
X206068570Y-69287380D02*
X205497142Y-69287380D01*
X205782856Y-70287380D02*
X205782856Y-69287380D01*
X205163808Y-69906428D02*
X204401904Y-69906428D01*
X204782856Y-70287380D02*
X204782856Y-69525476D01*
%TO.C,R4*%
X197275476Y-56282619D02*
X197323095Y-56235000D01*
X197323095Y-56235000D02*
X197418333Y-56187380D01*
X197418333Y-56187380D02*
X197656428Y-56187380D01*
X197656428Y-56187380D02*
X197751666Y-56235000D01*
X197751666Y-56235000D02*
X197799285Y-56282619D01*
X197799285Y-56282619D02*
X197846904Y-56377857D01*
X197846904Y-56377857D02*
X197846904Y-56473095D01*
X197846904Y-56473095D02*
X197799285Y-56615952D01*
X197799285Y-56615952D02*
X197227857Y-57187380D01*
X197227857Y-57187380D02*
X197846904Y-57187380D01*
X198227857Y-56282619D02*
X198275476Y-56235000D01*
X198275476Y-56235000D02*
X198370714Y-56187380D01*
X198370714Y-56187380D02*
X198608809Y-56187380D01*
X198608809Y-56187380D02*
X198704047Y-56235000D01*
X198704047Y-56235000D02*
X198751666Y-56282619D01*
X198751666Y-56282619D02*
X198799285Y-56377857D01*
X198799285Y-56377857D02*
X198799285Y-56473095D01*
X198799285Y-56473095D02*
X198751666Y-56615952D01*
X198751666Y-56615952D02*
X198180238Y-57187380D01*
X198180238Y-57187380D02*
X198799285Y-57187380D01*
X199418333Y-56187380D02*
X199513571Y-56187380D01*
X199513571Y-56187380D02*
X199608809Y-56235000D01*
X199608809Y-56235000D02*
X199656428Y-56282619D01*
X199656428Y-56282619D02*
X199704047Y-56377857D01*
X199704047Y-56377857D02*
X199751666Y-56568333D01*
X199751666Y-56568333D02*
X199751666Y-56806428D01*
X199751666Y-56806428D02*
X199704047Y-56996904D01*
X199704047Y-56996904D02*
X199656428Y-57092142D01*
X199656428Y-57092142D02*
X199608809Y-57139761D01*
X199608809Y-57139761D02*
X199513571Y-57187380D01*
X199513571Y-57187380D02*
X199418333Y-57187380D01*
X199418333Y-57187380D02*
X199323095Y-57139761D01*
X199323095Y-57139761D02*
X199275476Y-57092142D01*
X199275476Y-57092142D02*
X199227857Y-56996904D01*
X199227857Y-56996904D02*
X199180238Y-56806428D01*
X199180238Y-56806428D02*
X199180238Y-56568333D01*
X199180238Y-56568333D02*
X199227857Y-56377857D01*
X199227857Y-56377857D02*
X199275476Y-56282619D01*
X199275476Y-56282619D02*
X199323095Y-56235000D01*
X199323095Y-56235000D02*
X199418333Y-56187380D01*
X200732619Y-57187380D02*
X200970714Y-57187380D01*
X200970714Y-57187380D02*
X200970714Y-56996904D01*
X200970714Y-56996904D02*
X200875476Y-56949285D01*
X200875476Y-56949285D02*
X200780238Y-56854047D01*
X200780238Y-56854047D02*
X200732619Y-56711190D01*
X200732619Y-56711190D02*
X200732619Y-56473095D01*
X200732619Y-56473095D02*
X200780238Y-56330238D01*
X200780238Y-56330238D02*
X200875476Y-56235000D01*
X200875476Y-56235000D02*
X201018333Y-56187380D01*
X201018333Y-56187380D02*
X201208809Y-56187380D01*
X201208809Y-56187380D02*
X201351666Y-56235000D01*
X201351666Y-56235000D02*
X201446904Y-56330238D01*
X201446904Y-56330238D02*
X201494523Y-56473095D01*
X201494523Y-56473095D02*
X201494523Y-56711190D01*
X201494523Y-56711190D02*
X201446904Y-56854047D01*
X201446904Y-56854047D02*
X201351666Y-56949285D01*
X201351666Y-56949285D02*
X201256428Y-56996904D01*
X201256428Y-56996904D02*
X201256428Y-57187380D01*
X201256428Y-57187380D02*
X201494523Y-57187380D01*
D14*
%TO.C,R1*%
X141752936Y-58600000D02*
X143207064Y-58600000D01*
X141752936Y-60420000D02*
X143207064Y-60420000D01*
%TO.C,R2*%
X164172936Y-58600000D02*
X165627064Y-58600000D01*
X164172936Y-60420000D02*
X165627064Y-60420000D01*
%TO.C,R3*%
X134014564Y-60410000D02*
X132560436Y-60410000D01*
X134014564Y-58590000D02*
X132560436Y-58590000D01*
%TO.C,R7*%
X152672936Y-58580000D02*
X154127064Y-58580000D01*
X152672936Y-60400000D02*
X154127064Y-60400000D01*
%TO.C,R8*%
X188105436Y-58550000D02*
X189559564Y-58550000D01*
X188105436Y-60370000D02*
X189559564Y-60370000D01*
%TO.C,R6*%
X175962936Y-58560000D02*
X177417064Y-58560000D01*
X175962936Y-60380000D02*
X177417064Y-60380000D01*
%TO.C,R5*%
X209542936Y-58420000D02*
X210997064Y-58420000D01*
X209542936Y-60240000D02*
X210997064Y-60240000D01*
D11*
%TO.C,U2*%
X210140000Y-70420000D02*
X210140000Y-82420000D01*
X207640000Y-84920000D02*
X176640000Y-84920000D01*
X198640000Y-70920000D02*
X195140000Y-69420000D01*
X198640000Y-69420000D02*
X198640000Y-72420000D01*
X195140000Y-72420000D02*
X198640000Y-70920000D01*
X195140000Y-69420000D02*
X195140000Y-72420000D01*
X176640000Y-67920000D02*
X207640000Y-67920000D01*
X174140000Y-82420000D02*
X174140000Y-70420000D01*
X207640000Y-84920000D02*
G75*
G03*
X210140000Y-82420000I0J2500000D01*
G01*
X210140000Y-70420000D02*
G75*
G03*
X207640000Y-67920000I-2500000J0D01*
G01*
X174140000Y-82420000D02*
G75*
G03*
X176640000Y-84920000I2500000J0D01*
G01*
X176640000Y-67920000D02*
G75*
G03*
X174140000Y-70420000I0J-2500000D01*
G01*
D14*
%TO.C,R4*%
X198735436Y-58290000D02*
X200189564Y-58290000D01*
X198735436Y-60110000D02*
X200189564Y-60110000D01*
%TD*%
D15*
%TO.C,U2*%
X176639999Y-73219999D03*
X176639999Y-79669999D03*
X207639999Y-79669999D03*
X207639999Y-73169999D03*
%TD*%
M02*
