%TF.GenerationSoftware,KiCad,Pcbnew,(7.0.0)*%
%TF.CreationDate,2023-04-21T00:04:54-05:00*%
%TF.ProjectId,OMICRON oO,4f4d4943-524f-44e2-906f-4f2e6b696361,rev?*%
%TF.SameCoordinates,Original*%
%TF.FileFunction,Drillmap*%
%TF.FilePolarity,Positive*%
%FSLAX45Y45*%
G04 Gerber Fmt 4.5, Leading zero omitted, Abs format (unit mm)*
G04 Created by KiCad (PCBNEW (7.0.0)) date 2023-04-21 00:04:54*
%MOMM*%
%LPD*%
G01*
G04 APERTURE LIST*
%ADD10C,0.100000*%
%ADD11C,0.200000*%
%ADD12C,0.300000*%
G04 APERTURE END LIST*
D10*
X12359250Y-5165000D02*
X21946750Y-5165000D01*
X21946750Y-5165000D02*
X21946750Y-10293000D01*
X21946750Y-10293000D02*
X12359250Y-10293000D01*
X12359250Y-10293000D02*
X12359250Y-5165000D01*
D11*
D12*
X16822500Y-6330250D02*
X17122500Y-6630250D01*
X17122500Y-6330250D02*
X16822500Y-6630250D01*
X16822500Y-8781250D02*
X17122500Y-9081250D01*
X17122500Y-8781250D02*
X16822500Y-9081250D01*
X21517500Y-6330250D02*
X21817500Y-6630250D01*
X21817500Y-6330250D02*
X21517500Y-6630250D01*
X21517500Y-8781250D02*
X21817500Y-9081250D01*
X21817500Y-8781250D02*
X21517500Y-9081250D01*
D11*
X12601869Y-10591476D02*
X12601869Y-10391476D01*
X12601869Y-10391476D02*
X12649488Y-10391476D01*
X12649488Y-10391476D02*
X12678059Y-10401000D01*
X12678059Y-10401000D02*
X12697107Y-10420048D01*
X12697107Y-10420048D02*
X12706631Y-10439095D01*
X12706631Y-10439095D02*
X12716155Y-10477190D01*
X12716155Y-10477190D02*
X12716155Y-10505762D01*
X12716155Y-10505762D02*
X12706631Y-10543857D01*
X12706631Y-10543857D02*
X12697107Y-10562905D01*
X12697107Y-10562905D02*
X12678059Y-10581952D01*
X12678059Y-10581952D02*
X12649488Y-10591476D01*
X12649488Y-10591476D02*
X12601869Y-10591476D01*
X12801869Y-10591476D02*
X12801869Y-10458143D01*
X12801869Y-10496238D02*
X12811393Y-10477190D01*
X12811393Y-10477190D02*
X12820917Y-10467667D01*
X12820917Y-10467667D02*
X12839964Y-10458143D01*
X12839964Y-10458143D02*
X12859012Y-10458143D01*
X12925678Y-10591476D02*
X12925678Y-10458143D01*
X12925678Y-10391476D02*
X12916155Y-10401000D01*
X12916155Y-10401000D02*
X12925678Y-10410524D01*
X12925678Y-10410524D02*
X12935202Y-10401000D01*
X12935202Y-10401000D02*
X12925678Y-10391476D01*
X12925678Y-10391476D02*
X12925678Y-10410524D01*
X13049488Y-10591476D02*
X13030440Y-10581952D01*
X13030440Y-10581952D02*
X13020917Y-10562905D01*
X13020917Y-10562905D02*
X13020917Y-10391476D01*
X13154250Y-10591476D02*
X13135202Y-10581952D01*
X13135202Y-10581952D02*
X13125678Y-10562905D01*
X13125678Y-10562905D02*
X13125678Y-10391476D01*
X13350440Y-10591476D02*
X13350440Y-10391476D01*
X13350440Y-10391476D02*
X13417107Y-10534333D01*
X13417107Y-10534333D02*
X13483774Y-10391476D01*
X13483774Y-10391476D02*
X13483774Y-10591476D01*
X13664726Y-10591476D02*
X13664726Y-10486714D01*
X13664726Y-10486714D02*
X13655202Y-10467667D01*
X13655202Y-10467667D02*
X13636155Y-10458143D01*
X13636155Y-10458143D02*
X13598059Y-10458143D01*
X13598059Y-10458143D02*
X13579012Y-10467667D01*
X13664726Y-10581952D02*
X13645678Y-10591476D01*
X13645678Y-10591476D02*
X13598059Y-10591476D01*
X13598059Y-10591476D02*
X13579012Y-10581952D01*
X13579012Y-10581952D02*
X13569488Y-10562905D01*
X13569488Y-10562905D02*
X13569488Y-10543857D01*
X13569488Y-10543857D02*
X13579012Y-10524810D01*
X13579012Y-10524810D02*
X13598059Y-10515286D01*
X13598059Y-10515286D02*
X13645678Y-10515286D01*
X13645678Y-10515286D02*
X13664726Y-10505762D01*
X13759964Y-10458143D02*
X13759964Y-10658143D01*
X13759964Y-10467667D02*
X13779012Y-10458143D01*
X13779012Y-10458143D02*
X13817107Y-10458143D01*
X13817107Y-10458143D02*
X13836155Y-10467667D01*
X13836155Y-10467667D02*
X13845678Y-10477190D01*
X13845678Y-10477190D02*
X13855202Y-10496238D01*
X13855202Y-10496238D02*
X13855202Y-10553381D01*
X13855202Y-10553381D02*
X13845678Y-10572429D01*
X13845678Y-10572429D02*
X13836155Y-10581952D01*
X13836155Y-10581952D02*
X13817107Y-10591476D01*
X13817107Y-10591476D02*
X13779012Y-10591476D01*
X13779012Y-10591476D02*
X13759964Y-10581952D01*
X13940917Y-10572429D02*
X13950440Y-10581952D01*
X13950440Y-10581952D02*
X13940917Y-10591476D01*
X13940917Y-10591476D02*
X13931393Y-10581952D01*
X13931393Y-10581952D02*
X13940917Y-10572429D01*
X13940917Y-10572429D02*
X13940917Y-10591476D01*
X13940917Y-10467667D02*
X13950440Y-10477190D01*
X13950440Y-10477190D02*
X13940917Y-10486714D01*
X13940917Y-10486714D02*
X13931393Y-10477190D01*
X13931393Y-10477190D02*
X13940917Y-10467667D01*
X13940917Y-10467667D02*
X13940917Y-10486714D01*
X12154250Y-10838000D02*
X12354250Y-11038000D01*
X12354250Y-10838000D02*
X12154250Y-11038000D01*
X12582821Y-10811476D02*
X12706631Y-10811476D01*
X12706631Y-10811476D02*
X12639964Y-10887667D01*
X12639964Y-10887667D02*
X12668536Y-10887667D01*
X12668536Y-10887667D02*
X12687583Y-10897190D01*
X12687583Y-10897190D02*
X12697107Y-10906714D01*
X12697107Y-10906714D02*
X12706631Y-10925762D01*
X12706631Y-10925762D02*
X12706631Y-10973381D01*
X12706631Y-10973381D02*
X12697107Y-10992429D01*
X12697107Y-10992429D02*
X12687583Y-11001952D01*
X12687583Y-11001952D02*
X12668536Y-11011476D01*
X12668536Y-11011476D02*
X12611393Y-11011476D01*
X12611393Y-11011476D02*
X12592345Y-11001952D01*
X12592345Y-11001952D02*
X12582821Y-10992429D01*
X12792345Y-10992429D02*
X12801869Y-11001952D01*
X12801869Y-11001952D02*
X12792345Y-11011476D01*
X12792345Y-11011476D02*
X12782821Y-11001952D01*
X12782821Y-11001952D02*
X12792345Y-10992429D01*
X12792345Y-10992429D02*
X12792345Y-11011476D01*
X12925678Y-10811476D02*
X12944726Y-10811476D01*
X12944726Y-10811476D02*
X12963774Y-10821000D01*
X12963774Y-10821000D02*
X12973298Y-10830524D01*
X12973298Y-10830524D02*
X12982821Y-10849571D01*
X12982821Y-10849571D02*
X12992345Y-10887667D01*
X12992345Y-10887667D02*
X12992345Y-10935286D01*
X12992345Y-10935286D02*
X12982821Y-10973381D01*
X12982821Y-10973381D02*
X12973298Y-10992429D01*
X12973298Y-10992429D02*
X12963774Y-11001952D01*
X12963774Y-11001952D02*
X12944726Y-11011476D01*
X12944726Y-11011476D02*
X12925678Y-11011476D01*
X12925678Y-11011476D02*
X12906631Y-11001952D01*
X12906631Y-11001952D02*
X12897107Y-10992429D01*
X12897107Y-10992429D02*
X12887583Y-10973381D01*
X12887583Y-10973381D02*
X12878059Y-10935286D01*
X12878059Y-10935286D02*
X12878059Y-10887667D01*
X12878059Y-10887667D02*
X12887583Y-10849571D01*
X12887583Y-10849571D02*
X12897107Y-10830524D01*
X12897107Y-10830524D02*
X12906631Y-10821000D01*
X12906631Y-10821000D02*
X12925678Y-10811476D01*
X13116155Y-10811476D02*
X13135202Y-10811476D01*
X13135202Y-10811476D02*
X13154250Y-10821000D01*
X13154250Y-10821000D02*
X13163774Y-10830524D01*
X13163774Y-10830524D02*
X13173298Y-10849571D01*
X13173298Y-10849571D02*
X13182821Y-10887667D01*
X13182821Y-10887667D02*
X13182821Y-10935286D01*
X13182821Y-10935286D02*
X13173298Y-10973381D01*
X13173298Y-10973381D02*
X13163774Y-10992429D01*
X13163774Y-10992429D02*
X13154250Y-11001952D01*
X13154250Y-11001952D02*
X13135202Y-11011476D01*
X13135202Y-11011476D02*
X13116155Y-11011476D01*
X13116155Y-11011476D02*
X13097107Y-11001952D01*
X13097107Y-11001952D02*
X13087583Y-10992429D01*
X13087583Y-10992429D02*
X13078059Y-10973381D01*
X13078059Y-10973381D02*
X13068536Y-10935286D01*
X13068536Y-10935286D02*
X13068536Y-10887667D01*
X13068536Y-10887667D02*
X13078059Y-10849571D01*
X13078059Y-10849571D02*
X13087583Y-10830524D01*
X13087583Y-10830524D02*
X13097107Y-10821000D01*
X13097107Y-10821000D02*
X13116155Y-10811476D01*
X13306631Y-10811476D02*
X13325679Y-10811476D01*
X13325679Y-10811476D02*
X13344726Y-10821000D01*
X13344726Y-10821000D02*
X13354250Y-10830524D01*
X13354250Y-10830524D02*
X13363774Y-10849571D01*
X13363774Y-10849571D02*
X13373298Y-10887667D01*
X13373298Y-10887667D02*
X13373298Y-10935286D01*
X13373298Y-10935286D02*
X13363774Y-10973381D01*
X13363774Y-10973381D02*
X13354250Y-10992429D01*
X13354250Y-10992429D02*
X13344726Y-11001952D01*
X13344726Y-11001952D02*
X13325679Y-11011476D01*
X13325679Y-11011476D02*
X13306631Y-11011476D01*
X13306631Y-11011476D02*
X13287583Y-11001952D01*
X13287583Y-11001952D02*
X13278059Y-10992429D01*
X13278059Y-10992429D02*
X13268536Y-10973381D01*
X13268536Y-10973381D02*
X13259012Y-10935286D01*
X13259012Y-10935286D02*
X13259012Y-10887667D01*
X13259012Y-10887667D02*
X13268536Y-10849571D01*
X13268536Y-10849571D02*
X13278059Y-10830524D01*
X13278059Y-10830524D02*
X13287583Y-10821000D01*
X13287583Y-10821000D02*
X13306631Y-10811476D01*
X13459012Y-11011476D02*
X13459012Y-10878143D01*
X13459012Y-10897190D02*
X13468536Y-10887667D01*
X13468536Y-10887667D02*
X13487583Y-10878143D01*
X13487583Y-10878143D02*
X13516155Y-10878143D01*
X13516155Y-10878143D02*
X13535202Y-10887667D01*
X13535202Y-10887667D02*
X13544726Y-10906714D01*
X13544726Y-10906714D02*
X13544726Y-11011476D01*
X13544726Y-10906714D02*
X13554250Y-10887667D01*
X13554250Y-10887667D02*
X13573298Y-10878143D01*
X13573298Y-10878143D02*
X13601869Y-10878143D01*
X13601869Y-10878143D02*
X13620917Y-10887667D01*
X13620917Y-10887667D02*
X13630440Y-10906714D01*
X13630440Y-10906714D02*
X13630440Y-11011476D01*
X13725679Y-11011476D02*
X13725679Y-10878143D01*
X13725679Y-10897190D02*
X13735202Y-10887667D01*
X13735202Y-10887667D02*
X13754250Y-10878143D01*
X13754250Y-10878143D02*
X13782821Y-10878143D01*
X13782821Y-10878143D02*
X13801869Y-10887667D01*
X13801869Y-10887667D02*
X13811393Y-10906714D01*
X13811393Y-10906714D02*
X13811393Y-11011476D01*
X13811393Y-10906714D02*
X13820917Y-10887667D01*
X13820917Y-10887667D02*
X13839964Y-10878143D01*
X13839964Y-10878143D02*
X13868536Y-10878143D01*
X13868536Y-10878143D02*
X13887583Y-10887667D01*
X13887583Y-10887667D02*
X13897107Y-10906714D01*
X13897107Y-10906714D02*
X13897107Y-11011476D01*
X14255202Y-10801952D02*
X14083774Y-11059095D01*
X14479964Y-10811476D02*
X14499012Y-10811476D01*
X14499012Y-10811476D02*
X14518060Y-10821000D01*
X14518060Y-10821000D02*
X14527583Y-10830524D01*
X14527583Y-10830524D02*
X14537107Y-10849571D01*
X14537107Y-10849571D02*
X14546631Y-10887667D01*
X14546631Y-10887667D02*
X14546631Y-10935286D01*
X14546631Y-10935286D02*
X14537107Y-10973381D01*
X14537107Y-10973381D02*
X14527583Y-10992429D01*
X14527583Y-10992429D02*
X14518060Y-11001952D01*
X14518060Y-11001952D02*
X14499012Y-11011476D01*
X14499012Y-11011476D02*
X14479964Y-11011476D01*
X14479964Y-11011476D02*
X14460917Y-11001952D01*
X14460917Y-11001952D02*
X14451393Y-10992429D01*
X14451393Y-10992429D02*
X14441869Y-10973381D01*
X14441869Y-10973381D02*
X14432345Y-10935286D01*
X14432345Y-10935286D02*
X14432345Y-10887667D01*
X14432345Y-10887667D02*
X14441869Y-10849571D01*
X14441869Y-10849571D02*
X14451393Y-10830524D01*
X14451393Y-10830524D02*
X14460917Y-10821000D01*
X14460917Y-10821000D02*
X14479964Y-10811476D01*
X14632345Y-10992429D02*
X14641869Y-11001952D01*
X14641869Y-11001952D02*
X14632345Y-11011476D01*
X14632345Y-11011476D02*
X14622821Y-11001952D01*
X14622821Y-11001952D02*
X14632345Y-10992429D01*
X14632345Y-10992429D02*
X14632345Y-11011476D01*
X14832345Y-11011476D02*
X14718060Y-11011476D01*
X14775202Y-11011476D02*
X14775202Y-10811476D01*
X14775202Y-10811476D02*
X14756155Y-10840048D01*
X14756155Y-10840048D02*
X14737107Y-10859095D01*
X14737107Y-10859095D02*
X14718060Y-10868619D01*
X15022821Y-11011476D02*
X14908536Y-11011476D01*
X14965679Y-11011476D02*
X14965679Y-10811476D01*
X14965679Y-10811476D02*
X14946631Y-10840048D01*
X14946631Y-10840048D02*
X14927583Y-10859095D01*
X14927583Y-10859095D02*
X14908536Y-10868619D01*
X15137107Y-10897190D02*
X15118060Y-10887667D01*
X15118060Y-10887667D02*
X15108536Y-10878143D01*
X15108536Y-10878143D02*
X15099012Y-10859095D01*
X15099012Y-10859095D02*
X15099012Y-10849571D01*
X15099012Y-10849571D02*
X15108536Y-10830524D01*
X15108536Y-10830524D02*
X15118060Y-10821000D01*
X15118060Y-10821000D02*
X15137107Y-10811476D01*
X15137107Y-10811476D02*
X15175202Y-10811476D01*
X15175202Y-10811476D02*
X15194250Y-10821000D01*
X15194250Y-10821000D02*
X15203774Y-10830524D01*
X15203774Y-10830524D02*
X15213298Y-10849571D01*
X15213298Y-10849571D02*
X15213298Y-10859095D01*
X15213298Y-10859095D02*
X15203774Y-10878143D01*
X15203774Y-10878143D02*
X15194250Y-10887667D01*
X15194250Y-10887667D02*
X15175202Y-10897190D01*
X15175202Y-10897190D02*
X15137107Y-10897190D01*
X15137107Y-10897190D02*
X15118060Y-10906714D01*
X15118060Y-10906714D02*
X15108536Y-10916238D01*
X15108536Y-10916238D02*
X15099012Y-10935286D01*
X15099012Y-10935286D02*
X15099012Y-10973381D01*
X15099012Y-10973381D02*
X15108536Y-10992429D01*
X15108536Y-10992429D02*
X15118060Y-11001952D01*
X15118060Y-11001952D02*
X15137107Y-11011476D01*
X15137107Y-11011476D02*
X15175202Y-11011476D01*
X15175202Y-11011476D02*
X15194250Y-11001952D01*
X15194250Y-11001952D02*
X15203774Y-10992429D01*
X15203774Y-10992429D02*
X15213298Y-10973381D01*
X15213298Y-10973381D02*
X15213298Y-10935286D01*
X15213298Y-10935286D02*
X15203774Y-10916238D01*
X15203774Y-10916238D02*
X15194250Y-10906714D01*
X15194250Y-10906714D02*
X15175202Y-10897190D01*
X15403774Y-11011476D02*
X15289488Y-11011476D01*
X15346631Y-11011476D02*
X15346631Y-10811476D01*
X15346631Y-10811476D02*
X15327583Y-10840048D01*
X15327583Y-10840048D02*
X15308536Y-10859095D01*
X15308536Y-10859095D02*
X15289488Y-10868619D01*
X15479964Y-10811476D02*
X15479964Y-10849571D01*
X15556155Y-10811476D02*
X15556155Y-10849571D01*
X15819012Y-11087667D02*
X15809488Y-11078143D01*
X15809488Y-11078143D02*
X15790441Y-11049571D01*
X15790441Y-11049571D02*
X15780917Y-11030524D01*
X15780917Y-11030524D02*
X15771393Y-11001952D01*
X15771393Y-11001952D02*
X15761869Y-10954333D01*
X15761869Y-10954333D02*
X15761869Y-10916238D01*
X15761869Y-10916238D02*
X15771393Y-10868619D01*
X15771393Y-10868619D02*
X15780917Y-10840048D01*
X15780917Y-10840048D02*
X15790441Y-10821000D01*
X15790441Y-10821000D02*
X15809488Y-10792429D01*
X15809488Y-10792429D02*
X15819012Y-10782905D01*
X15980917Y-10878143D02*
X15980917Y-11011476D01*
X15933298Y-10801952D02*
X15885679Y-10944810D01*
X15885679Y-10944810D02*
X16009488Y-10944810D01*
X16205679Y-11011476D02*
X16205679Y-10811476D01*
X16291393Y-11011476D02*
X16291393Y-10906714D01*
X16291393Y-10906714D02*
X16281869Y-10887667D01*
X16281869Y-10887667D02*
X16262822Y-10878143D01*
X16262822Y-10878143D02*
X16234250Y-10878143D01*
X16234250Y-10878143D02*
X16215202Y-10887667D01*
X16215202Y-10887667D02*
X16205679Y-10897190D01*
X16415202Y-11011476D02*
X16396155Y-11001952D01*
X16396155Y-11001952D02*
X16386631Y-10992429D01*
X16386631Y-10992429D02*
X16377107Y-10973381D01*
X16377107Y-10973381D02*
X16377107Y-10916238D01*
X16377107Y-10916238D02*
X16386631Y-10897190D01*
X16386631Y-10897190D02*
X16396155Y-10887667D01*
X16396155Y-10887667D02*
X16415202Y-10878143D01*
X16415202Y-10878143D02*
X16443774Y-10878143D01*
X16443774Y-10878143D02*
X16462822Y-10887667D01*
X16462822Y-10887667D02*
X16472345Y-10897190D01*
X16472345Y-10897190D02*
X16481869Y-10916238D01*
X16481869Y-10916238D02*
X16481869Y-10973381D01*
X16481869Y-10973381D02*
X16472345Y-10992429D01*
X16472345Y-10992429D02*
X16462822Y-11001952D01*
X16462822Y-11001952D02*
X16443774Y-11011476D01*
X16443774Y-11011476D02*
X16415202Y-11011476D01*
X16596155Y-11011476D02*
X16577107Y-11001952D01*
X16577107Y-11001952D02*
X16567583Y-10982905D01*
X16567583Y-10982905D02*
X16567583Y-10811476D01*
X16748536Y-11001952D02*
X16729488Y-11011476D01*
X16729488Y-11011476D02*
X16691393Y-11011476D01*
X16691393Y-11011476D02*
X16672345Y-11001952D01*
X16672345Y-11001952D02*
X16662822Y-10982905D01*
X16662822Y-10982905D02*
X16662822Y-10906714D01*
X16662822Y-10906714D02*
X16672345Y-10887667D01*
X16672345Y-10887667D02*
X16691393Y-10878143D01*
X16691393Y-10878143D02*
X16729488Y-10878143D01*
X16729488Y-10878143D02*
X16748536Y-10887667D01*
X16748536Y-10887667D02*
X16758060Y-10906714D01*
X16758060Y-10906714D02*
X16758060Y-10925762D01*
X16758060Y-10925762D02*
X16662822Y-10944810D01*
X16834250Y-11001952D02*
X16853298Y-11011476D01*
X16853298Y-11011476D02*
X16891393Y-11011476D01*
X16891393Y-11011476D02*
X16910441Y-11001952D01*
X16910441Y-11001952D02*
X16919965Y-10982905D01*
X16919965Y-10982905D02*
X16919965Y-10973381D01*
X16919965Y-10973381D02*
X16910441Y-10954333D01*
X16910441Y-10954333D02*
X16891393Y-10944810D01*
X16891393Y-10944810D02*
X16862822Y-10944810D01*
X16862822Y-10944810D02*
X16843774Y-10935286D01*
X16843774Y-10935286D02*
X16834250Y-10916238D01*
X16834250Y-10916238D02*
X16834250Y-10906714D01*
X16834250Y-10906714D02*
X16843774Y-10887667D01*
X16843774Y-10887667D02*
X16862822Y-10878143D01*
X16862822Y-10878143D02*
X16891393Y-10878143D01*
X16891393Y-10878143D02*
X16910441Y-10887667D01*
X16986631Y-11087667D02*
X16996155Y-11078143D01*
X16996155Y-11078143D02*
X17015203Y-11049571D01*
X17015203Y-11049571D02*
X17024726Y-11030524D01*
X17024726Y-11030524D02*
X17034250Y-11001952D01*
X17034250Y-11001952D02*
X17043774Y-10954333D01*
X17043774Y-10954333D02*
X17043774Y-10916238D01*
X17043774Y-10916238D02*
X17034250Y-10868619D01*
X17034250Y-10868619D02*
X17024726Y-10840048D01*
X17024726Y-10840048D02*
X17015203Y-10821000D01*
X17015203Y-10821000D02*
X16996155Y-10792429D01*
X16996155Y-10792429D02*
X16986631Y-10782905D01*
X17316155Y-11087667D02*
X17306631Y-11078143D01*
X17306631Y-11078143D02*
X17287584Y-11049571D01*
X17287584Y-11049571D02*
X17278060Y-11030524D01*
X17278060Y-11030524D02*
X17268536Y-11001952D01*
X17268536Y-11001952D02*
X17259012Y-10954333D01*
X17259012Y-10954333D02*
X17259012Y-10916238D01*
X17259012Y-10916238D02*
X17268536Y-10868619D01*
X17268536Y-10868619D02*
X17278060Y-10840048D01*
X17278060Y-10840048D02*
X17287584Y-10821000D01*
X17287584Y-10821000D02*
X17306631Y-10792429D01*
X17306631Y-10792429D02*
X17316155Y-10782905D01*
X17392345Y-10878143D02*
X17392345Y-11011476D01*
X17392345Y-10897190D02*
X17401869Y-10887667D01*
X17401869Y-10887667D02*
X17420917Y-10878143D01*
X17420917Y-10878143D02*
X17449488Y-10878143D01*
X17449488Y-10878143D02*
X17468536Y-10887667D01*
X17468536Y-10887667D02*
X17478060Y-10906714D01*
X17478060Y-10906714D02*
X17478060Y-11011476D01*
X17601869Y-11011476D02*
X17582822Y-11001952D01*
X17582822Y-11001952D02*
X17573298Y-10992429D01*
X17573298Y-10992429D02*
X17563774Y-10973381D01*
X17563774Y-10973381D02*
X17563774Y-10916238D01*
X17563774Y-10916238D02*
X17573298Y-10897190D01*
X17573298Y-10897190D02*
X17582822Y-10887667D01*
X17582822Y-10887667D02*
X17601869Y-10878143D01*
X17601869Y-10878143D02*
X17630441Y-10878143D01*
X17630441Y-10878143D02*
X17649488Y-10887667D01*
X17649488Y-10887667D02*
X17659012Y-10897190D01*
X17659012Y-10897190D02*
X17668536Y-10916238D01*
X17668536Y-10916238D02*
X17668536Y-10973381D01*
X17668536Y-10973381D02*
X17659012Y-10992429D01*
X17659012Y-10992429D02*
X17649488Y-11001952D01*
X17649488Y-11001952D02*
X17630441Y-11011476D01*
X17630441Y-11011476D02*
X17601869Y-11011476D01*
X17725679Y-10878143D02*
X17801869Y-10878143D01*
X17754250Y-10811476D02*
X17754250Y-10982905D01*
X17754250Y-10982905D02*
X17763774Y-11001952D01*
X17763774Y-11001952D02*
X17782822Y-11011476D01*
X17782822Y-11011476D02*
X17801869Y-11011476D01*
X17988536Y-10878143D02*
X17988536Y-11078143D01*
X17988536Y-10887667D02*
X18007584Y-10878143D01*
X18007584Y-10878143D02*
X18045679Y-10878143D01*
X18045679Y-10878143D02*
X18064726Y-10887667D01*
X18064726Y-10887667D02*
X18074250Y-10897190D01*
X18074250Y-10897190D02*
X18083774Y-10916238D01*
X18083774Y-10916238D02*
X18083774Y-10973381D01*
X18083774Y-10973381D02*
X18074250Y-10992429D01*
X18074250Y-10992429D02*
X18064726Y-11001952D01*
X18064726Y-11001952D02*
X18045679Y-11011476D01*
X18045679Y-11011476D02*
X18007584Y-11011476D01*
X18007584Y-11011476D02*
X17988536Y-11001952D01*
X18198060Y-11011476D02*
X18179012Y-11001952D01*
X18179012Y-11001952D02*
X18169488Y-10982905D01*
X18169488Y-10982905D02*
X18169488Y-10811476D01*
X18359965Y-11011476D02*
X18359965Y-10906714D01*
X18359965Y-10906714D02*
X18350441Y-10887667D01*
X18350441Y-10887667D02*
X18331393Y-10878143D01*
X18331393Y-10878143D02*
X18293298Y-10878143D01*
X18293298Y-10878143D02*
X18274250Y-10887667D01*
X18359965Y-11001952D02*
X18340917Y-11011476D01*
X18340917Y-11011476D02*
X18293298Y-11011476D01*
X18293298Y-11011476D02*
X18274250Y-11001952D01*
X18274250Y-11001952D02*
X18264726Y-10982905D01*
X18264726Y-10982905D02*
X18264726Y-10963857D01*
X18264726Y-10963857D02*
X18274250Y-10944810D01*
X18274250Y-10944810D02*
X18293298Y-10935286D01*
X18293298Y-10935286D02*
X18340917Y-10935286D01*
X18340917Y-10935286D02*
X18359965Y-10925762D01*
X18426631Y-10878143D02*
X18502822Y-10878143D01*
X18455203Y-10811476D02*
X18455203Y-10982905D01*
X18455203Y-10982905D02*
X18464726Y-11001952D01*
X18464726Y-11001952D02*
X18483774Y-11011476D01*
X18483774Y-11011476D02*
X18502822Y-11011476D01*
X18645679Y-11001952D02*
X18626631Y-11011476D01*
X18626631Y-11011476D02*
X18588536Y-11011476D01*
X18588536Y-11011476D02*
X18569488Y-11001952D01*
X18569488Y-11001952D02*
X18559965Y-10982905D01*
X18559965Y-10982905D02*
X18559965Y-10906714D01*
X18559965Y-10906714D02*
X18569488Y-10887667D01*
X18569488Y-10887667D02*
X18588536Y-10878143D01*
X18588536Y-10878143D02*
X18626631Y-10878143D01*
X18626631Y-10878143D02*
X18645679Y-10887667D01*
X18645679Y-10887667D02*
X18655203Y-10906714D01*
X18655203Y-10906714D02*
X18655203Y-10925762D01*
X18655203Y-10925762D02*
X18559965Y-10944810D01*
X18826631Y-11011476D02*
X18826631Y-10811476D01*
X18826631Y-11001952D02*
X18807584Y-11011476D01*
X18807584Y-11011476D02*
X18769488Y-11011476D01*
X18769488Y-11011476D02*
X18750441Y-11001952D01*
X18750441Y-11001952D02*
X18740917Y-10992429D01*
X18740917Y-10992429D02*
X18731393Y-10973381D01*
X18731393Y-10973381D02*
X18731393Y-10916238D01*
X18731393Y-10916238D02*
X18740917Y-10897190D01*
X18740917Y-10897190D02*
X18750441Y-10887667D01*
X18750441Y-10887667D02*
X18769488Y-10878143D01*
X18769488Y-10878143D02*
X18807584Y-10878143D01*
X18807584Y-10878143D02*
X18826631Y-10887667D01*
X18902822Y-11087667D02*
X18912346Y-11078143D01*
X18912346Y-11078143D02*
X18931393Y-11049571D01*
X18931393Y-11049571D02*
X18940917Y-11030524D01*
X18940917Y-11030524D02*
X18950441Y-11001952D01*
X18950441Y-11001952D02*
X18959965Y-10954333D01*
X18959965Y-10954333D02*
X18959965Y-10916238D01*
X18959965Y-10916238D02*
X18950441Y-10868619D01*
X18950441Y-10868619D02*
X18940917Y-10840048D01*
X18940917Y-10840048D02*
X18931393Y-10821000D01*
X18931393Y-10821000D02*
X18912346Y-10792429D01*
X18912346Y-10792429D02*
X18902822Y-10782905D01*
M02*
